<svg width="18.371mm" height="20.728mm" version="1.1" viewBox="0 0 18.371 20.728" xmlns="http://www.w3.org/2000/svg">
 <g transform="translate(-95.779 -138.11)">
  <g transform="matrix(.055123 0 0 .055123 66.007 137.05)">
   <g stroke-width=".72766">
    <path d="m821.04 83.714h-5.2566c-3.6419-0.10478-6.6843-2.8059-7.2213-6.4092-1.2698-12.115-1.2698-24.329 0-36.444 0.53701-3.6034 3.5794-6.3044 7.2213-6.4092h5.2573c3.6419 0.10478 6.685 2.8059 7.222 6.4092 1.2698 12.115 1.2698 24.329 0 36.444-0.53702 3.6041-3.5808 6.3044-7.2228 6.4092z" fill="#9ba589"/>
    <path d="m821.04 87.352h-5.2566c-5.4742-0.12588-10.056-4.1899-10.834-9.6095-1.2989-12.386-1.3018-24.874-7e-3 -37.261 0.75822-5.4429 5.3476-9.536 10.842-9.6684h5.2574c5.4742 0.12588 10.056 4.1899 10.834 9.6102 1.2981 12.386 1.3003 24.874 7e-3 37.261-0.75894 5.4436-5.3483 9.536-10.843 9.6684zm-5.2566-49.263c-1.8017 0.1026-3.2963 1.4313-3.6099 3.209-1.2356 11.843-1.2334 23.784 7e-3 35.627 0.33399 1.7537 1.8213 3.0533 3.6034 3.15h5.2566c1.8024-0.10333 3.2963-1.432 3.6099-3.2097 1.2348-11.843 1.2334-23.784-6e-3 -35.626-0.33472-1.7537-1.8213-3.0533-3.6041-3.15z" fill="#3e3442"/>
    <path d="m596.49 83.714h-5.253c-3.6419-0.10478-6.685-2.8059-7.222-6.4092-1.2698-12.115-1.2698-24.329 0-36.444 0.53702-3.6034 3.5801-6.3044 7.222-6.4092h5.2566c3.6419 0.10478 6.685 2.8059 7.222 6.4092 1.2698 12.115 1.2698 24.329 0 36.444-0.53701 3.6048-3.5823 6.3059-7.2257 6.4092z" fill="#9ba589"/>
   </g>
   <g transform="matrix(.72766 0 0 .72766 343.69 -154.8)" fill="#3e3442">
    <path d="m347.42 332.78h-7.225c-7.522-0.174-13.818-5.758-14.888-13.206-1.785-17.022-1.789-34.184-9e-3 -51.207 1.042-7.48 7.349-13.105 14.9-13.287h7.225c7.523 0.173 13.819 5.758 14.889 13.206 1.785 17.022 1.789 34.184 9e-3 51.207-1.042 7.481-7.35 13.106-14.901 13.287zm-7.225-67.7c-2.476 0.142-4.529 1.968-4.96 4.41-1.699 16.276-1.695 32.685 9e-3 48.961 0.459 2.409 2.502 4.195 4.951 4.329h7.225c2.476-0.142 4.531-1.967 4.962-4.41 1.698-16.276 1.694-32.685-9e-3 -48.961-0.46-2.41-2.503-4.196-4.953-4.329z"/>
    <path d="m359.47 694.87c-0.575 0-1.147-0.099-1.688-0.294l-23.775-8.532c-36.485-13.094-59.218-57.459-52.878-103.2l8.279-59.715c3.023-21.806 18.572-37.632 36.973-37.632h33.09c2.761 0 5 2.239 5 5v199.37c0 2.761-2.239 5-5 5zm-33.089-199.37c-13.354 0-24.738 12.2-27.068 29l-8.278 59.715c-5.7 41.153 14.221 80.882 46.35 92.412l17.086 6.132v-187.26z"/>
    <path d="m291.47 599.62c-5.753 5e-3 -11.499-0.378-17.2-1.144-2.553-0.346-4.425-2.575-4.325-5.149 0.168-4.34 0.536-8.583 1.095-12.61l8.275-59.714c3.868-27.89 23.662-48.133 47.066-48.133h43.327c2.761 0 5 2.239 5 5v93.251c0 1.783-0.95 3.431-2.492 4.325-7.973 4.523-16.192 8.596-24.62 12.2-17.68 7.828-36.791 11.905-56.126 11.974zm-11.27-10.527c15.611 1.48 38.092 0.423 63.4-10.616 8.086-3.527 15.171-6.974 21.11-10.269v-85.339h-38.329c-18.358 0-33.986 16.615-37.16 39.506l-8.279 59.715c-0.314 2.265-0.563 4.607-0.742 7.003z"/>
    <path d="m359.47 694.87c-0.575 0-1.147-0.099-1.688-0.294l-23.775-8.532c-36.485-13.094-59.218-57.459-52.878-103.2l8.279-59.715c3.023-21.806 18.572-37.632 36.973-37.632h33.09c2.761 0 5 2.239 5 5v199.37c0 2.761-2.239 5-5 5zm-33.089-199.37c-13.354 0-24.738 12.2-27.068 29l-8.278 59.715c-5.7 41.153 14.221 80.882 46.35 92.412l17.086 6.132v-187.26z"/>
   </g>
   <g stroke-width=".72766">
    <path d="m605.26 347.19-17.296-6.2084c-24.949-8.9502-40.482-39.574-36.102-71.165l6.0243-43.452c1.9414-14.005 11.782-24.245 23.3-24.245h24.078z" fill="#bf6161"/>
    <path d="m557.88 229.27-6.0243 43.452c-0.6287 4.5595-0.85063 9.1656-0.66363 13.764 1.5019 0.0728 3.0096 0.11716 4.5239 0.11716 14.391-0.0408 28.617-3.0678 41.778-8.8898 2.7382-1.1941 5.3272-2.3787 7.7678-3.5524v-69.134h-24.082c-11.517 0-21.358 10.237-23.3 24.242z" enable-background="new    " fill="#994a4a" opacity=".3"/>
    <path d="m605.26 350.83c-0.4184 0-0.83463-0.072-1.2283-0.21393l-17.3-6.2084c-26.549-9.528-43.091-41.811-38.477-75.095l6.0243-43.452c2.1997-15.867 13.514-27.383 26.904-27.383h24.078c2.0091 0 3.6383 1.6292 3.6383 3.6383v145.07c0 2.0091-1.6292 3.6383-3.6383 3.6383zm-24.078-145.07c-9.7172 0-18.001 8.8774-19.696 21.102l-6.0236 43.452c-4.1477 29.945 10.348 58.855 33.727 67.245l12.433 4.462v-136.26z" fill="#3e3442"/>
    <path d="m595.16 269.47c6.0068-2.5636 11.864-5.464 17.545-8.6875v-67.856h-31.53c-15.195 0-28.083 13.41-30.644 31.886l-6.0243 43.451c-0.40895 2.9514-0.65126 5.894-0.76405 8.8163 11.266 1.5281 30.017 1.7224 51.417-7.6106z" fill="#604957"/>
    <path d="m549.18 272.32 6.0236-43.452c2.5621-18.476 15.45-31.886 30.644-31.886h26.863v-4.056h-31.527c-15.195 0-28.083 13.41-30.644 31.886l-6.0243 43.451c-0.40895 2.9514-0.65126 5.894-0.76405 8.8163 1.4946 0.20302 3.1253 0.38057 4.8753 0.51737 0.13026-1.7544 0.30926-3.5124 0.55375-5.277z" enable-background="new    " fill="#725865" opacity=".26"/>
   </g>
   <g transform="matrix(.72766 0 0 .72766 343.69 -154.8)" fill="#3e3442">
    <path d="m291.47 599.62c-5.753 5e-3 -11.499-0.378-17.2-1.144-2.553-0.346-4.425-2.575-4.325-5.149 0.168-4.34 0.536-8.583 1.095-12.61l8.275-59.714c3.868-27.89 23.662-48.133 47.066-48.133h43.327c2.761 0 5 2.239 5 5v93.251c0 1.783-0.95 3.431-2.492 4.325-7.973 4.523-16.192 8.596-24.62 12.2-17.68 7.828-36.791 11.905-56.126 11.974zm-11.27-10.527c15.611 1.48 38.092 0.423 63.4-10.616 8.086-3.527 15.171-6.974 21.11-10.269v-85.339h-38.329c-18.358 0-33.986 16.615-37.16 39.506l-8.279 59.715c-0.314 2.265-0.563 4.607-0.742 7.003z"/>
    <path d="m291.39 586.11c-1.673 0-3.376-0.036-5.062-0.107-0.828-0.035-1.472-0.735-1.436-1.563 0.035-0.828 0.735-1.472 1.564-1.437 2.359 0.1 4.721 0.127 7.058 0.086 0.821 3e-3 1.494 0.653 1.526 1.474 0.014 0.828-0.645 1.511-1.473 1.526-0.727 0.015-1.452 0.022-2.177 0.021zm9.139-0.347c-0.828 0.031-1.525-0.616-1.556-1.444s0.616-1.525 1.444-1.556c1.625-0.123 3.278-0.284 4.914-0.476 0.821-0.108 1.575 0.47 1.683 1.291s-0.47 1.575-1.291 1.683c-0.013 2e-3 -0.027 3e-3 -0.04 5e-3 -1.678 0.2-3.373 0.362-5.039 0.489-0.04 7e-3 -0.077 8e-3 -0.115 8e-3zm11.9-1.5c-0.828-2e-3 -1.499-0.674-1.497-1.503 1e-3 -0.726 0.523-1.348 1.238-1.474 1.627-0.288 3.258-0.61 4.847-0.958 0.81-0.177 1.609 0.336 1.786 1.146s-0.336 1.609-1.146 1.786c-1.628 0.355-3.3 0.684-4.965 0.979-0.087 0.017-0.175 0.025-0.263 0.024zm11.7-2.652c-0.828-1e-3 -1.499-0.674-1.498-1.502 1e-3 -0.673 0.45-1.262 1.098-1.443 1.593-0.443 3.187-0.919 4.737-1.415 0.785-0.265 1.636 0.157 1.901 0.942s-0.157 1.636-0.942 1.901c-0.015 5e-3 -0.03 0.01-0.044 0.014-1.586 0.508-3.217 1-4.847 1.449-0.131 0.036-0.267 0.055-0.403 0.055zm-37.6-1.87c-0.07 0-0.139-5e-3 -0.208-0.014-0.821-0.114-1.394-0.871-1.28-1.692l0.687-4.953c0.114-0.821 0.871-1.394 1.692-1.28s1.394 0.871 1.28 1.692l-0.687 4.953c-0.102 0.741-0.736 1.294-1.484 1.294zm49-1.872c-0.828-4e-3 -1.497-0.678-1.494-1.506 3e-3 -0.618 0.384-1.172 0.962-1.394 1.52-0.577 3.064-1.2 4.589-1.842 0.763-0.323 1.644 0.034 1.966 0.797s-0.034 1.644-0.797 1.966c-1.56 0.659-3.139 1.293-4.694 1.883-0.169 0.064-0.349 0.096-0.53 0.096zm11.047-4.695c-0.828 1e-3 -1.5-0.671-1.501-1.499 0-0.588 0.343-1.122 0.878-1.366 1.547-0.705 3.049-1.405 4.507-2.1 0.741-0.371 1.642-0.07 2.013 0.671s0.07 1.642-0.671 2.013c-0.017 8e-3 -0.033 0.016-0.05 0.024-1.473 0.703-2.992 1.411-4.555 2.125-0.194 0.089-0.405 0.134-0.619 0.134zm10.8-5.22c-0.828 1e-3 -1.501-0.67-1.501-1.499 0-0.562 0.313-1.077 0.812-1.334 0.513-0.267 1.019-0.53 1.519-0.791v-1.465c0-0.828 0.672-1.5 1.5-1.5s1.5 0.672 1.5 1.5v2.368c-1e-3 0.556-0.308 1.066-0.8 1.325-0.765 0.407-1.547 0.816-2.348 1.229-0.209 0.109-0.441 0.166-0.676 0.168zm-69.2-0.1c-0.07 0-0.139-5e-3 -0.208-0.015-0.821-0.114-1.394-0.871-1.28-1.692l0.687-4.952c0.114-0.821 0.871-1.394 1.692-1.28s1.394 0.871 1.28 1.692l-0.687 4.953c-0.102 0.741-0.735 1.294-1.483 1.296zm71.535-10.49c-0.828 0-1.5-0.672-1.5-1.5v-5c0-0.828 0.672-1.5 1.5-1.5s1.5 0.672 1.5 1.5v5c1e-3 0.828-0.67 1.501-1.498 1.502h-1e-3zm-69.887-1.4c-0.07 0-0.139-5e-3 -0.208-0.015-0.82-0.114-1.393-0.871-1.28-1.691l0.687-4.953c0.098-0.823 0.844-1.41 1.667-1.312s1.41 0.844 1.312 1.667c-2e-3 0.019-5e-3 0.038-8e-3 0.058l-0.686 4.953c-0.1 0.743-0.733 1.298-1.483 1.3zm69.887-10.6c-0.828 0-1.5-0.672-1.5-1.5v-5c0-0.828 0.672-1.5 1.5-1.5s1.5 0.672 1.5 1.5v5c1e-3 0.828-0.67 1.501-1.498 1.502h-1e-3zm-68.239-1.283c-0.07 0-0.139-5e-3 -0.208-0.015-0.82-0.114-1.393-0.871-1.28-1.691l0.686-4.952c0.114-0.821 0.871-1.394 1.692-1.28s1.394 0.871 1.28 1.692l-0.686 4.952c-0.102 0.741-0.735 1.294-1.483 1.296zm68.239-10.717c-0.828 0-1.5-0.672-1.5-1.5v-5c0-0.828 0.672-1.5 1.5-1.5s1.5 0.672 1.5 1.5v5c1e-3 0.828-0.67 1.501-1.498 1.502h-1e-3zm-66.591-1.169c-0.07 0-0.139-5e-3 -0.208-0.014-0.821-0.114-1.394-0.871-1.28-1.692l0.686-4.953c0.114-0.821 0.871-1.394 1.692-1.28s1.394 0.871 1.28 1.692l-0.686 4.955c-0.103 0.741-0.735 1.293-1.483 1.294zm66.591-10.831c-0.828 0-1.5-0.672-1.5-1.5v-5c0-0.828 0.672-1.5 1.5-1.5s1.5 0.672 1.5 1.5v5c1e-3 0.828-0.67 1.501-1.498 1.502h-1e-3zm-64.779-1.028c-0.828 1e-3 -1.501-0.67-1.502-1.498 0-0.109 0.012-0.217 0.035-0.323 0.37-1.684 0.821-3.354 1.341-4.965 0.255-0.788 1.1-1.221 1.888-0.966s1.221 1.1 0.967 1.888c-0.491 1.519-0.916 3.1-1.265 4.685-0.15 0.688-0.759 1.18-1.463 1.181zm64.779-10.972c-0.828 0-1.5-0.672-1.5-1.5v-5c0-0.828 0.672-1.5 1.5-1.5s1.5 0.672 1.5 1.5v5c1e-3 0.828-0.67 1.501-1.498 1.502h-1e-3zm-60.863-0.339c-0.229 1e-3 -0.456-0.052-0.661-0.154-0.743-0.366-1.05-1.265-0.684-2.008 0.759-1.547 1.606-3.049 2.535-4.5 0.434-0.706 1.358-0.926 2.063-0.493 0.706 0.434 0.926 1.358 0.493 2.063-0.01 0.016-0.02 0.032-0.031 0.048-0.868 1.357-1.658 2.762-2.368 4.208-0.253 0.513-0.775 0.837-1.346 0.837zm6.721-9.89c-0.828 0-1.5-0.671-1.5-1.5 0-0.378 0.143-0.743 0.4-1.02 1.18-1.276 2.45-2.466 3.8-3.56 0.645-0.52 1.589-0.419 2.109 0.225s0.419 1.589-0.225 2.109c-1.24 1.004-2.406 2.095-3.489 3.265-0.282 0.306-0.678 0.481-1.094 0.482zm54.142-1.771c-0.828 0-1.5-0.672-1.5-1.5v-5c0-0.828 0.672-1.5 1.5-1.5s1.5 0.672 1.5 1.5v5c1e-3 0.828-0.67 1.501-1.498 1.502h-1e-3zm-44.6-5.385c-0.828 1e-3 -1.501-0.669-1.502-1.498-1e-3 -0.578 0.331-1.106 0.852-1.355 1.586-0.763 3.24-1.377 4.939-1.835 0.801-0.214 1.624 0.261 1.838 1.062s-0.261 1.624-1.062 1.838c-1.52 0.41-2.999 0.959-4.417 1.642-0.202 0.097-0.423 0.148-0.647 0.148zm40.6-2.612h-5c-0.828 0-1.5-0.672-1.5-1.5s0.672-1.5 1.5-1.5h5c0.828 0 1.5 0.672 1.5 1.5s-0.672 1.5-1.5 1.5zm-12 0h-5c-0.828 0-1.5-0.672-1.5-1.5s0.672-1.5 1.5-1.5h5c0.828 0 1.5 0.672 1.5 1.5s-0.672 1.5-1.5 1.5zm-12 0h-5c-0.828 0-1.5-0.672-1.5-1.5s0.672-1.5 1.5-1.5h5c0.828 0 1.5 0.672 1.5 1.5s-0.672 1.5-1.5 1.5z"/>
    <path d="m638.42 694.87c-2.761 0-5-2.239-5-5v-199.37c0-2.761 2.239-5 5-5h33.09c18.4 0 33.95 15.826 36.972 37.632l8.279 59.715c6.341 45.738-16.391 90.1-52.877 103.2l-23.776 8.532c-0.542 0.193-1.113 0.29-1.688 0.287zm5-199.37v187.26l17.087-6.132c32.128-11.53 52.054-51.259 46.348-92.412l-8.277-59.716c-2.33-16.807-13.714-29-27.068-29z"/>
    <path d="m706.42 599.62c-19.334-0.07-38.444-4.148-56.123-11.977-8.428-3.604-16.647-7.677-24.619-12.2-1.542-0.894-2.492-2.542-2.492-4.325v-93.249c0-2.761 2.239-5 5-5h43.326c23.4 0 43.2 20.243 47.065 48.133l8.279 59.715c0.558 4.027 0.926 8.27 1.094 12.61 0.1 2.574-1.772 4.803-4.324 5.149-5.703 0.767-11.452 1.149-17.206 1.144zm-73.236-31.412c5.936 3.294 13.022 6.742 21.109 10.269 25.308 11.038 47.788 12.095 63.4 10.616-0.18-2.4-0.429-4.738-0.743-7l-8.279-59.715c-3.174-22.891-18.8-39.506-37.16-39.506h-38.327z"/>
    <path d="m638.42 694.87c-2.761 0-5-2.239-5-5v-199.37c0-2.761 2.239-5 5-5h33.09c18.4 0 33.95 15.826 36.972 37.632l8.279 59.715c6.341 45.738-16.391 90.1-52.877 103.2l-23.776 8.532c-0.542 0.193-1.113 0.29-1.688 0.287zm5-199.37v187.26l17.087-6.132c32.128-11.53 52.054-51.259 46.348-92.412l-8.277-59.716c-2.33-16.807-13.714-29-27.068-29z"/>
   </g>
   <g stroke-width=".72766">
    <path d="m808.24 347.19 17.3-6.2084c24.949-8.9502 40.482-39.574 36.102-71.165l-6.0243-43.452c-1.9414-14.005-11.782-24.245-23.3-24.245h-24.078z" fill="#bf616a"/>
    <path d="m861.64 272.72-6.0243-43.452c-1.9414-14.005-11.782-24.245-23.3-24.245h-24.078v69.136c2.4398 1.173 5.0296 2.3569 7.7678 3.5524 13.16 5.8213 27.385 8.8483 41.774 8.8898 1.5143 0 3.022-0.0473 4.5239-0.11715 0.18701-4.5988-0.0349-9.2049-0.66363-13.764z" enable-background="new    " fill="#994a4a" opacity=".3"/>
    <path d="m808.24 350.83c-2.0091 0-3.6383-1.6292-3.6383-3.6383v-145.07c0-2.0091 1.6292-3.6383 3.6383-3.6383h24.078c13.389 0 24.704 11.516 26.903 27.383l6.0243 43.452c4.6141 33.282-11.927 65.562-38.476 75.095l-17.301 6.2084c-0.39439 0.14043-0.80989 0.21102-1.2283 0.20883zm3.6383-145.07v136.26l12.434-4.462c23.378-8.3899 37.878-37.299 33.726-67.245l-6.0228-43.453c-1.6954-12.23-9.9791-21.102-19.696-21.102z" fill="#3e3442"/>
    <path d="m818.34 269.47c-6.0068-2.5636-11.864-5.464-17.545-8.6875v-67.856h31.527c15.195 0 28.082 13.41 30.644 31.886l6.0185 43.451c0.40968 2.9514 0.6549 5.894 0.76477 8.8163-11.263 1.5281-30.017 1.7224-51.41-7.6106z" fill="#604957"/>
    <path d="m827.22 196.87c15.195 0 28.082 13.179 30.644 31.337l6.0236 42.706c0.28233 2.0003 0.48026 3.9949 0.61633 5.9828 1.8876-0.13753 3.6427-0.32236 5.2392-0.53556-0.10842-2.899-0.36383-5.7914-0.76477-8.665l-6.0236-42.706c-2.5621-18.159-15.449-31.338-30.644-31.338h-31.524v3.2184z" enable-background="new    " fill="#725865" opacity=".26"/>
    <path d="m857.88 271.69c-1.2639-4e-3 -2.533-0.024-3.7838-0.0728-0.6025-0.0255-1.0704-0.53411-1.0449-1.1359v-7.3e-4c0.0131-0.59086 0.50281-1.0595 1.0937-1.0464 0.0138 0 0.0284 7.2e-4 0.0422 1e-3 1.2174 0.0509 2.4515 0.0728 3.6892 0.0728 0.48826 0 0.97507-4e-3 1.4604-0.0138 0.59741 2e-3 1.0878 0.47371 1.1126 1.0711 0.0116 0.6025-0.46789 1.1002-1.0704 1.1119h-7.3e-4c-0.49626 7e-3 -0.99762 0.0124-1.4982 0.0124zm-8.8149-0.43659c-0.0364 0-0.0728-1e-3 -0.10915-6e-3 -1.2203-0.12152-2.45-0.26924-3.6572-0.44097-0.59741-0.0779-1.0194-0.62578-0.94159-1.2232 0.0779-0.59741 0.62579-1.0194 1.2232-0.9416 8e-3 1e-3 0.0167 2e-3 0.0247 4e-3 1.1766 0.16664 2.3758 0.31144 3.5655 0.43078 0.59959 0.0618 1.0355 0.59886 0.97361 1.1977-0.0568 0.55447-0.52246 0.97652-1.0791 0.97943zm-8.63-1.2931c-0.0735 7.3e-4 -0.14626-7e-3 -0.2183-0.0211-1.1897-0.23794-2.4013-0.50499-3.5946-0.79533-0.58576-0.14189-0.94595-0.73203-0.80406-1.3185 0.14189-0.58577 0.73202-0.94596 1.3185-0.80334 1.1642 0.28306 2.3474 0.54429 3.508 0.77714 0.59086 0.12007 0.97215 0.69638 0.85209 1.2872-0.1026 0.50717-0.54793 0.87173-1.0646 0.87391zm21.165-0.86591c-0.54429-7.3e-4 -1.0049-0.4024-1.0798-0.94159l-0.49917-3.6034c-0.0946-0.59523 0.31216-1.1548 0.90739-1.2487 0.59522-0.0946 1.1548 0.31217 1.2487 0.90739 2e-3 0.0138 4e-3 0.0276 6e-3 0.0422l0.49918 3.6034c0.0822 0.59668-0.334 1.1475-0.93068 1.2305-0.0502 8e-3 -0.10042 0.0124-0.15135 0.0131zm-29.632-1.2559c-0.10697 0-0.21321-0.0153-0.31581-0.0458-1.1642-0.35146-2.3402-0.72766-3.5008-1.1308-0.5734-0.18628-0.88629-0.80261-0.70001-1.376 0.18628-0.5734 0.80261-0.88629 1.376-0.70001 0.0116 4e-3 0.0233 8e-3 0.0349 0.0124 1.133 0.3893 2.2841 0.76113 3.42 1.1039 0.57703 0.17391 0.90375 0.78296 0.72911 1.3607-0.13898 0.46061-0.56321 0.77569-1.0435 0.77569zm-8.232-2.9004c-0.13971 0-0.27869-0.0269-0.40822-0.0793-0.84263-0.33982-1.6831-0.69273-2.5221-1.0595l-0.85573-0.37548c-0.55229-0.24231-0.8026-0.88628-0.56029-1.4386 0.24231-0.55229 0.88629-0.80261 1.4386-0.5603l0.85136 0.37256c0.81862 0.35729 1.6409 0.7022 2.4653 1.0362 0.55885 0.22558 0.82954 0.86155 0.60396 1.4204-0.16663 0.41331-0.56757 0.68327-1.0129 0.684zm-7.9868-3.5262c-0.15935 0-0.31726-0.0349-0.46206-0.1026-1.1352-0.53338-2.2354-1.0602-3.2999-1.5805-0.54065-0.26705-0.76259-0.92122-0.49553-1.4619 0.26632-0.53847 0.91757-0.76113 1.4575-0.49772 1.0522 0.51591 2.14 1.0369 3.2636 1.563 0.54575 0.25614 0.78078 0.90594 0.52465 1.4517-0.17974 0.38348-0.56467 0.62798-0.98817 0.62798zm44.651-0.96634c-0.54429-7.3e-4 -1.0042-0.40239-1.0791-0.94159l-0.4999-3.6041c-0.0648-0.59959 0.36893-1.1373 0.96852-1.2021 0.57485-0.0618 1.0988 0.33545 1.1934 0.90593l0.4999 3.6041c0.083 0.59741-0.33399 1.1482-0.9314 1.2312-0.0502 6e-3 -0.10042 9e-3 -0.15136 9e-3zm-52.335-3.0045c-0.6025 0-1.0915-0.48898-1.0915-1.0915v-3.6383c0-0.6025 0.48899-1.0915 1.0915-1.0915s1.0915 0.48899 1.0915 1.0915v3.6383c1e-3 0.60251-0.4868 1.0922-1.0893 1.0937h-2e-3zm51.136-5.6444c-0.54429-7.3e-4 -1.0042-0.4024-1.0791-0.9416l-0.4999-3.6041c-0.0713-0.59886 0.35655-1.1417 0.95469-1.213 0.58212-0.0691 1.1155 0.334 1.2072 0.91322l0.49918 3.6034c0.0829 0.59668-0.334 1.1482-0.93068 1.2312-0.0502 8e-3 -0.10042 0.0124-0.15135 0.0131zm-51.136-3.0875c-0.6025 0-1.0915-0.48898-1.0915-1.0915v-3.6383c0-0.6025 0.48899-1.0915 1.0915-1.0915s1.0915 0.48899 1.0915 1.0915v3.6383c1e-3 0.60251-0.4868 1.0922-1.0893 1.0937h-2e-3zm49.936-5.5615c-0.54429-7.3e-4 -1.0042-0.4024-1.0791-0.94159l-0.49918-3.6041c-0.1026-0.59377 0.29616-1.1584 0.89066-1.261 0.59377-0.10187 1.1584 0.29616 1.261 0.89066 4e-3 0.0233 7e-3 0.0466 9e-3 0.0706l0.49991 3.6041c0.0822 0.59668-0.33473 1.1475-0.93141 1.2305-0.0502 8e-3 -0.10042 0.0124-0.15135 0.0131zm-49.936-3.1704c-0.6025 0-1.0915-0.48898-1.0915-1.0915v-3.6383c0-0.6025 0.48899-1.0915 1.0915-1.0915s1.0915 0.48899 1.0915 1.0915v3.6383c1e-3 0.60251-0.4868 1.0922-1.0893 1.0937h-2e-3zm48.738-5.4756c-0.54429-7.2e-4 -1.0042-0.40239-1.0791-0.94159l-0.49699-3.6056c-0.0713-0.59887 0.35655-1.1417 0.95469-1.213 0.58213-0.0691 1.1155 0.33399 1.2072 0.91321l0.49917 3.6041c0.0822 0.59668-0.33399 1.1475-0.93068 1.2305-0.0509 8e-3 -0.1026 0.0117-0.15426 0.0124zm-48.738-3.2526c-0.6025 0-1.0915-0.48898-1.0915-1.0915v-3.6383c0-0.6025 0.48899-1.0915 1.0915-1.0915s1.0915 0.48899 1.0915 1.0915v3.6383c-7.3e-4 0.60251-0.48899 1.09-1.0915 1.09zm47.525-5.3949c-0.53337-7.3e-4 -0.98816-0.38711-1.0755-0.91321-0.19283-1.1643-0.44096-2.3285-0.73785-3.4571-0.17027-0.57849 0.16009-1.1854 0.73858-1.3556 0.57849-0.17027 1.1854 0.16009 1.3556 0.73858 6e-3 0.0204 0.0116 0.0408 0.016 0.0618 0.31362 1.1934 0.5763 2.4238 0.77932 3.6558 0.0982 0.5945-0.30343 1.1563-0.89793 1.2552-0.0589 9e-3 -0.11788 0.0131-0.17755 0.0131zm-47.525-3.337c-0.6025 0-1.0915-0.48898-1.0915-1.0915v-3.6383c0-0.6025 0.48899-1.0915 1.0915-1.0915s1.0915 0.48899 1.0915 1.0915v3.6383c-7.3e-4 0.60251-0.48899 1.09-1.0915 1.09zm45.14-5.0412c-0.44023 0-0.83681-0.26341-1.0071-0.66944-0.45406-1.0828-0.96488-2.14-1.5317-3.1682-0.28015-0.53338-0.0749-1.1934 0.45842-1.4742 0.5181-0.27215 1.1577-0.0881 1.4517 0.4184 0.60542 1.0966 1.1504 2.2245 1.6343 3.38 0.23285 0.55593-0.0284 1.1956-0.58431 1.4284-0.13389 0.056-0.27651 0.0851-0.42132 0.0851zm-45.14-3.6907c-0.6025 0-1.0915-0.48898-1.0915-1.0915v-3.6383c0-0.6025 0.48899-1.0915 1.0915-1.0915s1.0915 0.48899 1.0915 1.0915v3.6383c-7.3e-4 0.60251-0.48899 1.09-1.0915 1.09zm40.74-3.8188c-0.33254 0-0.64689-0.15135-0.85427-0.41112-0.72475-0.91031-1.5099-1.7711-2.3503-2.5766-0.43587-0.41622-0.45188-1.1075-0.0357-1.5434 0.41622-0.43586 1.1075-0.45187 1.5434-0.0357 0.9103 0.87392 1.7609 1.8075 2.5468 2.7942 0.3762 0.4708 0.29906 1.1577-0.17173 1.5339-0.19356 0.15426-0.43369 0.23867-0.68109 0.23867zm-40.74-4.9132c-0.6025 0-1.0915-0.48898-1.0915-1.0915v-3.6383c0-0.6025 0.48899-1.0915 1.0915-1.0915s1.0915 0.48899 1.0915 1.0915v3.6383c-7.3e-4 0.60251-0.48899 1.09-1.0915 1.09zm34.263-0.87319c-0.19938 0-0.39439-0.0546-0.56466-0.15863-0.98162-0.59668-2.0142-1.106-3.0853-1.5223-0.56248-0.21757-0.84263-0.84991-0.62506-1.4124s0.8499-0.84263 1.4124-0.62506c1.1904 0.46206 2.338 1.0282 3.4295 1.6918 0.51591 0.31216 0.68036 0.98379 0.36819 1.499-0.19792 0.32672-0.55302 0.52682-0.93504 0.5261zm-8.1876-2.7913c-0.0364 0-0.0728 0-0.10915-5e-3 -0.56903-0.0567-1.1461-0.0851-1.7158-0.0851h-1.8112c-0.6025 0-1.0915-0.48899-1.0915-1.0915 0-0.60251 0.48899-1.0915 1.0915-1.0915h1.8112c0.64107 0 1.2909 0.032 1.9305 0.096 0.59959 0.0618 1.0355 0.59813 0.97361 1.1977-0.0575 0.55375-0.52246 0.97579-1.0791 0.97943zm-8.7319-0.0902h-3.6383c-0.6025 0-1.0915-0.48899-1.0915-1.0915 0-0.60251 0.48899-1.0915 1.0915-1.0915h3.6383c0.6025 0 1.0915 0.48898 1.0915 1.0915 0 0.6025-0.48899 1.0915-1.0915 1.0915zm-8.7319 0h-3.6383c-0.6025 0-1.0915-0.48899-1.0915-1.0915 0-0.60251 0.48899-1.0915 1.0915-1.0915h3.6383c0.6025 0 1.0915 0.48898 1.0915 1.0915 0 0.6025-0.48899 1.0915-1.0915 1.0915z" fill="#3e3442"/>
    <path d="m857.72 281.52c-14.069-0.0509-27.974-3.0183-40.838-8.7152-6.1327-2.6225-12.113-5.5862-17.914-8.8775-1.122-0.65052-1.8133-1.8497-1.8133-3.1471v-67.854c0-2.0091 1.6292-3.6383 3.6383-3.6383h31.527c17.027 0 31.435 14.73 34.247 35.024l6.0243 43.452c0.40603 2.9303 0.67381 6.0178 0.79606 9.1758 0.0728 1.873-1.2894 3.495-3.1464 3.7467-4.1498 0.55811-8.3332 0.83608-12.52 0.83244zm-53.291-22.857c4.3194 2.3969 9.4756 4.9059 15.36 7.4723 18.416 8.0319 34.773 8.801 46.134 7.7248-0.13098-1.7464-0.31217-3.4476-0.54065-5.0936l-6.0243-43.452c-2.3096-16.657-13.68-28.747-27.04-28.747h-27.889z" fill="#3e3442"/>
   </g>
   <g transform="matrix(.72766 0 0 .72766 343.69 -154.8)" fill="#a3be8c">
    <path d="m629.55 341.68h-263.01c-26.769 0.189-28.383-19.209-28.108-46.076-0.275-26.866 1.339-46.265 28.108-46.076h263.01c26.769-0.189 28.382 19.209 28.107 46.076 0.276 26.867-1.338 46.265-28.107 46.076z"/>
    <path d="m657.66 295.6c0.022-2.097 0.027-4.145 0.016-6.144-0.149 23.621-3.448 40.1-28.123 39.923h-263.01c-24.679 0.175-27.975-16.306-28.124-39.932-0.013 2.004-7e-3 4.055 0.016 6.153-0.275 26.867 1.339 46.265 28.108 46.076h263.01c26.769 0.189 28.383-19.209 28.107-46.076z" enable-background="new    " opacity=".25"/>
    <path d="m338.43 295.6c-0.022 2.103-0.027 4.156-0.016 6.159 0.151-23.612 3.454-40.081 28.124-39.907h263.01c24.673-0.174 27.973 16.3 28.123 39.917 0.013-2.009 7e-3 -4.065-0.016-6.169 0.275-26.867-1.338-46.265-28.107-46.076h-263.01c-26.769-0.189-28.383 19.21-28.108 46.076z" enable-background="new    " opacity=".31"/>
   </g>
   <g transform="matrix(.72766 0 0 .72766 343.69 -154.8)" fill="#3e3442">
    <path d="m366.12 346.68c-10.117 0-17.649-2.6-22.985-7.958-9.275-9.3-9.885-25.031-9.7-43.12-0.183-18.088 0.426-33.815 9.7-43.119 5.41-5.427 13.083-8.039 23.443-7.957h262.97c10.312-0.1 18 2.53 23.408 7.957 9.274 9.3 9.884 25.031 9.7 43.119 0.185 18.088-0.425 33.815-9.7 43.12-5.407 5.424-13.083 8.043-23.427 7.956h-262.99zm0.067-92.156c-7.391 0-12.606 1.644-15.971 5.019-6.537 6.558-6.939 20.774-6.783 36.008v0.1c-0.155 15.234 0.246 29.451 6.784 36.009 3.418 3.429 8.734 5.084 16.289 5.016h263.43c7.357 0 12.572-1.643 15.936-5.018 6.537-6.558 6.938-20.775 6.782-36.009v-0.1c0.156-15.234-0.245-29.45-6.782-36.008-3.418-3.43-8.756-5.093-16.29-5.017h-263.04z"/>
    <path d="m584.94 320.87c-3.866 0-7-3.134-7-7v-67.75c0-3.866 3.134-7 7-7s7 3.134 7 7v67.75c0 3.866-3.134 7-7 7z"/>
    <path d="m414.66 320.87c-3.866 0-7-3.134-7-7v-67.75c0-3.866 3.134-7 7-7s7 3.134 7 7v67.75c0 3.866-3.134 7-7 7z"/>
   </g>
   <g stroke-width=".72766">
    <path d="m822.73 165.94c-1.5856-8.3477-3.8835-16.544-6.8691-24.5-17.411-46.451-60.76-76.586-108.47-76.586h-0.0458c-47.713 0-91.059 30.135-108.47 76.586-2.9863 7.9548-5.2843 16.151-6.8691 24.499-8.2953 52.118-11.279 104.47-7.4847 156.4 3.3851 37.407 35.329 69.249 64.047 69.244h117.6c28.718 5e-3 60.661-31.838 64.047-69.244 3.7911-51.931 0.81207-104.29-7.4847-156.4z" fill="#bf616a"/>
    <path d="m830.22 313.47c-3.3858 36.644-35.329 67.836-64.047 67.831h-117.6c-28.718 5e-3 -60.662-31.188-64.047-67.831-0.9314-12.495-1.4597-25.013-1.5848-37.552-0.1579 16.705 0.37038 33.38 1.5848 50.026 3.3851 36.644 35.329 67.836 64.047 67.831h117.6c28.718 5e-3 60.661-31.188 64.047-67.831 1.2399-16.639 1.7682-33.314 1.5848-50.026-0.13607 12.536-0.66435 25.053-1.5848 37.552z" enable-background="new    " fill="#994a4a" opacity=".3"/>
    <path d="m822.73 165.94c-1.5856-8.3477-3.8835-16.544-6.8691-24.5-17.411-46.451-60.76-76.586-108.47-76.586h-0.0451c-47.713 0-91.059 30.135-108.47 76.586-2.9863 7.9548-5.2843 16.152-6.8691 24.5-8.2953 52.118-11.279 104.47-7.4847 156.4 1.7464 19.316 11.112 37.148 23.714 49.878-9.5323-11.886-16.345-27.116-17.778-43.43-3.6077-50.905-0.77278-102.22 7.1231-153.32 1.5063-8.1724 3.6929-16.205 6.5373-24.013 16.57-45.533 57.824-75.073 103.23-75.073h0.0429c45.406 0 86.664 29.543 103.23 75.073 2.8452 7.8078 5.0318 15.84 6.5373 24.013 7.8966 51.089 10.731 102.41 7.1231 153.32-1.4335 16.314-8.2488 31.545-17.778 43.43 12.602-12.73 21.967-30.562 23.715-49.878 3.7911-51.931 0.81206-104.29-7.4847-156.4z" enable-background="new    " fill="#bf616a" opacity=".39"/>
    <path d="m667.25 168.98c-8.3994 0-15.208 6.8087-15.208 15.208s6.8087 15.208 15.208 15.208c8.3994 0 15.208-6.8087 15.208-15.208s-6.8087-15.208-15.208-15.208zm0 23.89c-4.7946 0-8.681-3.8864-8.681-8.681 0-4.7946 3.8864-8.681 8.681-8.681 4.7946 0 8.681 3.8864 8.681 8.681 1e-3 4.7946-3.8835 8.6824-8.6781 8.6839h-3e-3z" fill="#eae6e5"/>
    <path d="m667.25 200.13c-8.801 0-15.936-7.1347-15.936-15.936 0-8.801 7.1347-15.936 15.936-15.936 8.801 0 15.936 7.1347 15.936 15.936-0.0109 8.7967-7.1391 15.925-15.936 15.936zm0-30.416c-7.997 0-14.48 6.4834-14.48 14.48 0 7.997 6.4834 14.48 14.48 14.48 7.997 0 14.48-6.4834 14.48-14.48-9e-3 -7.9941-6.4864-14.473-14.48-14.483zm0 23.89c-5.1962 7.2e-4 -9.4086-4.2117-9.4094-9.4079-7.2e-4 -5.1962 4.2117-9.4086 9.4079-9.4094s9.4086 4.2117 9.4094 9.4079v7.3e-4c-5e-3 5.194-4.2139 9.4036-9.4079 9.4086zm0-17.361c-4.3922-7.3e-4 -7.9533 3.5604-7.9541 7.9526-7.2e-4 4.3922 3.5597 7.9533 7.9526 7.954 4.3922 7.3e-4 7.9533-3.5597 7.954-7.9526v-1e-3c-4e-3 -4.3907-3.5619-7.9497-7.9526-7.9548z" fill="#3e3442"/>
    <path d="m755.53 168.98c-8.3994 0-15.208 6.8087-15.208 15.208s6.8087 15.208 15.208 15.208 15.208-6.8087 15.208-15.208-6.8087-15.208-15.208-15.208zm0 23.89c-4.7946 0-8.681-3.8864-8.681-8.681 0-4.7946 3.8864-8.681 8.681-8.681 4.7946 0 8.681 3.8864 8.681 8.681 1e-3 4.7946-3.8835 8.6824-8.6781 8.6839h-3e-3z" fill="#eae6e5"/>
    <path d="m821.23 163.92c0.091-0.0779 0.17245-0.16445 0.26196-0.24377-1.4677-6.3154-3.3451-12.529-5.6212-18.6-17.411-46.451-60.76-76.586-108.47-76.586h-0.0451c-47.713 0-91.059 30.135-108.47 76.586-2.2761 6.0716-4.1535 12.284-5.6219 18.6 0.0895 0.0793 0.17173 0.16591 0.26269 0.24377 32.293 27.643 77.809 32.639 113.86 32.639s81.563-4.9961 113.86-32.639z" enable-background="new    " fill="#994a4a" opacity=".3"/>
   </g>
   <path d="m643.85 269.76h132.23c8.7472 0 15.838 7.091 15.838 15.838v58.913c0 8.7472-7.091 15.838-15.838 15.838h-132.23c-8.7472 0-15.838-7.091-15.838-15.838v-58.913c0-8.7472 7.091-15.838 15.838-15.838z" enable-background="new    " fill="#994a4a" opacity=".3" stroke="#994a4a" stroke-linecap="round" stroke-linejoin="round" stroke-width="7.2766"/>
   <path d="m755.53 200.13c-8.801 0-15.936-7.1347-15.936-15.936 0-8.801 7.1347-15.936 15.936-15.936 8.801 0 15.936 7.1347 15.936 15.936-0.0102 8.7967-7.1391 15.926-15.936 15.936zm0-30.416c-7.997 0-14.48 6.4834-14.48 14.48 0 7.997 6.4834 14.48 14.48 14.48 7.997 0 14.48-6.4834 14.48-14.48-9e-3 -7.9941-6.4864-14.473-14.48-14.483zm0 23.89c-5.1962 0-9.4086-4.2124-9.4086-9.4086s4.2124-9.4086 9.4086-9.4086 9.4086 4.2124 9.4086 9.4086c-5e-3 5.194-4.2146 9.4043-9.4086 9.4086zm0-17.361c-4.3922 0-7.9533 3.5612-7.9533 7.9533s3.5604 7.9533 7.9533 7.9533c4.3922 0 7.9533-3.5604 7.9533-7.9533v-7.3e-4c-4e-3 -4.3914-3.5619-7.9504-7.9533-7.9548z" fill="#3e3442" stroke-width=".72766"/>
   <path d="m643.85 262.49h132.23c8.7472 0 15.838 7.091 15.838 15.838v58.913c0 8.7472-7.091 15.838-15.838 15.838h-132.23c-8.7472 0-15.838-7.091-15.838-15.838v-58.913c0-8.7472 7.091-15.838 15.838-15.838z" fill="#725865" stroke-width=".72766"/>
   <g transform="matrix(.72766 0 0 .72766 343.69 -154.8)" fill="#3e3442" opacity=".4">
    <path d="m510.1 643.54-6 6.155c-2.387 2.353-6.221 2.353-8.608 0l-6-6.155c-0.444-0.447-0.696-1.051-0.7-1.681v-75.2c0.069-1.462 1.307-2.593 2.77-2.53h16.461c1.462-0.063 2.7 1.068 2.769 2.53v75.2c-2e-3 0.629-0.251 1.233-0.692 1.681z"/>
    <path d="m499.8 654.46c-2.422 0.01-4.747-0.952-6.453-2.672l-6-6.155c-0.993-1.006-1.55-2.362-1.552-3.775v-75.2c0.071-3.118 2.651-5.591 5.77-5.53h16.46c3.119-0.062 5.7 2.411 5.77 5.53v75.2c-2e-3 1.414-0.559 2.77-1.552 3.776l-5.994 6.154c-1.705 1.718-4.028 2.681-6.449 2.672zm-8-12.858 5.845 6c1.23 1.091 3.081 1.091 4.311 0l5.844-6v-74.477h-16z"/>
   </g>
   <g transform="matrix(.72766 0 0 .72766 343.69 -154.8)" fill="#3e3442">
    <path d="m594.23 702.95h-181.72c-14.774-0.019-26.746-11.991-26.765-26.765v-80.963c0.019-14.774 11.991-26.747 26.765-26.766h181.72c14.776 0.017 26.751 11.99 26.77 26.766v80.963c-0.019 14.776-11.994 26.748-26.77 26.765zm-181.72-124.49c-9.255 0.011-16.755 7.511-16.765 16.766v80.963c0.01 9.255 7.51 16.755 16.765 16.765h181.72c9.256-8e-3 16.759-7.509 16.77-16.765v-80.963c-0.01-9.255-7.511-16.755-16.766-16.766z"/>
    <path d="m592.15 687.45h-4.989c-0.828 0-1.5-0.672-1.5-1.5s0.672-1.5 1.5-1.5h4.989c0.828 0 1.5 0.672 1.5 1.5s-0.672 1.5-1.5 1.5zm-11.973 0h-4.989c-0.828 0-1.5-0.672-1.5-1.5s0.672-1.5 1.5-1.5h4.989c0.828 0 1.5 0.672 1.5 1.5s-0.672 1.5-1.5 1.5zm-11.973 0h-4.989c-0.828 0-1.5-0.672-1.5-1.5s0.672-1.5 1.5-1.5h4.989c0.828 0 1.5 0.672 1.5 1.5s-0.672 1.5-1.5 1.5zm-11.974 0h-4.989c-0.828 0-1.5-0.672-1.5-1.5s0.672-1.5 1.5-1.5h4.989c0.828 0 1.5 0.672 1.5 1.5s-0.672 1.5-1.5 1.5zm-11.973 0h-4.989c-0.828 0-1.5-0.672-1.5-1.5s0.672-1.5 1.5-1.5h4.989c0.828 0 1.5 0.672 1.5 1.5s-0.672 1.5-1.5 1.5zm-11.974 0h-4.989c-0.828 0-1.5-0.672-1.5-1.5s0.672-1.5 1.5-1.5h4.989c0.828 0 1.5 0.672 1.5 1.5s-0.672 1.5-1.5 1.5zm-11.973 0h-4.989c-0.828 0-1.5-0.672-1.5-1.5s0.672-1.5 1.5-1.5h4.989c0.828 0 1.5 0.672 1.5 1.5s-0.672 1.5-1.5 1.5zm-11.973 0h-4.989c-0.828 0-1.5-0.672-1.5-1.5s0.672-1.5 1.5-1.5h4.989c0.828 0 1.5 0.672 1.5 1.5s-0.672 1.5-1.5 1.5zm-11.974 0h-4.989c-0.828 0-1.5-0.672-1.5-1.5s0.672-1.5 1.5-1.5h4.989c0.828 0 1.5 0.672 1.5 1.5s-0.672 1.5-1.5 1.5zm-11.973 0h-4.991c-0.828 0-1.5-0.672-1.5-1.5s0.672-1.5 1.5-1.5h4.989c0.828 0 1.5 0.672 1.5 1.5s-0.672 1.5-1.5 1.5zm-11.974 0h-4.989c-0.828 0-1.5-0.672-1.5-1.5s0.672-1.5 1.5-1.5h4.989c0.828 0 1.5 0.672 1.5 1.5s-0.672 1.5-1.5 1.5zm-11.973 0h-4.989c-0.828 0-1.5-0.672-1.5-1.5s0.672-1.5 1.5-1.5h4.989c0.828 0 1.5 0.672 1.5 1.5s-0.672 1.5-1.5 1.5zm-11.974 0h-4.989c-0.828 0-1.5-0.672-1.5-1.5s0.672-1.5 1.5-1.5h4.989c0.828 0 1.5 0.672 1.5 1.5s-0.672 1.5-1.5 1.5zm-11.973 0h-4.989c-0.828 0-1.5-0.672-1.5-1.5s0.672-1.5 1.5-1.5h4.992c0.828 0 1.5 0.672 1.5 1.5s-0.672 1.5-1.5 1.5zm-11.974 0h-4.988c-0.828 0-1.5-0.672-1.5-1.5s0.672-1.5 1.5-1.5h4.988c0.828 0 1.5 0.672 1.5 1.5s-0.672 1.5-1.5 1.5zm-11.973 0h-0.042c-1.929 0-3.826-0.496-5.508-1.44-0.729-0.393-1.002-1.303-0.609-2.032s1.303-1.002 2.032-0.609l0.048 0.027c1.233 0.691 2.623 1.054 4.037 1.054 0.833-2e-3 1.511 0.667 1.521 1.5 9e-3 0.819-0.647 1.491-1.466 1.5zm186.38-1.207c-0.828 0-1.5-0.672-1.5-1.5 0-0.546 0.297-1.049 0.775-1.313 1.239-0.685 2.284-1.674 3.036-2.874 0.43-0.708 1.352-0.934 2.06-0.505 0.708 0.43 0.934 1.352 0.504 2.06-7e-3 0.012-0.014 0.023-0.022 0.035-1.023 1.633-2.445 2.978-4.132 3.91-0.22 0.123-0.468 0.187-0.721 0.187zm-195.62-5.257c-0.632 0-1.197-0.397-1.411-0.992-0.44-1.221-0.664-2.51-0.663-3.808v-1.621c0-0.828 0.672-1.5 1.5-1.5s1.5 0.672 1.5 1.5v1.62c-1e-3 0.952 0.164 1.898 0.486 2.794 0.28 0.778-0.123 1.636-0.9 1.918-0.164 0.06-0.337 0.09-0.512 0.089zm200.68-4.839c-0.828 0-1.5-0.672-1.5-1.5v-4.988c0-0.828 0.672-1.5 1.5-1.5s1.5 0.672 1.5 1.5v4.988c0 0.828-0.672 1.5-1.5 1.5zm-201.25-7.067c-0.828 0-1.5-0.672-1.5-1.5v-4.988c0-0.828 0.672-1.5 1.5-1.5s1.5 0.672 1.5 1.5v4.988c0 0.828-0.672 1.5-1.5 1.5h-4e-3zm201.25-4.905c-0.828 0-1.5-0.672-1.5-1.5v-4.989c0-0.828 0.672-1.5 1.5-1.5s1.5 0.672 1.5 1.5v4.989c0 0.828-0.672 1.5-1.5 1.5zm-201.25-7.068c-0.828 0-1.5-0.672-1.5-1.5v-4.989c0-0.828 0.672-1.5 1.5-1.5s1.5 0.672 1.5 1.5v4.989c0 0.828-0.672 1.5-1.5 1.5h-4e-3zm201.25-4.906c-0.828 0-1.5-0.672-1.5-1.5v-4.989c0-0.828 0.672-1.5 1.5-1.5s1.5 0.672 1.5 1.5v4.989c0 0.828-0.672 1.5-1.5 1.5zm-201.25-7.067c-0.828 0-1.5-0.672-1.5-1.5v-4.989c0-0.828 0.672-1.5 1.5-1.5s1.5 0.672 1.5 1.5v4.989c0 0.828-0.672 1.5-1.5 1.5h-4e-3zm201.25-4.906c-0.828 0-1.5-0.672-1.5-1.5v-4.99c0-0.828 0.672-1.5 1.5-1.5s1.5 0.672 1.5 1.5v4.99c0 0.828-0.672 1.5-1.5 1.5zm-201.25-7.068c-0.828 0-1.5-0.672-1.5-1.5v-4.989c0-0.828 0.672-1.5 1.5-1.5s1.5 0.672 1.5 1.5v4.989c0 0.828-0.672 1.5-1.5 1.5h-4e-3zm201.25-4.906c-0.828 0-1.5-0.672-1.5-1.5v-4.989c0-0.828 0.672-1.5 1.5-1.5s1.5 0.672 1.5 1.5v4.989c0 0.828-0.672 1.5-1.5 1.5zm-201.25-7.067c-0.828 0-1.5-0.672-1.5-1.5v-4.986c0-0.828 0.672-1.5 1.5-1.5s1.5 0.672 1.5 1.5v4.989c-2e-3 0.828-0.675 1.499-1.503 1.497h-1e-3zm201.25-4.907c-0.828 0-1.5-0.672-1.5-1.5v-4.988c0-0.828 0.672-1.5 1.5-1.5s1.5 0.672 1.5 1.5v4.988c0 0.828-0.672 1.5-1.5 1.5zm-201.25-7.067c-0.828 0-1.5-0.672-1.5-1.5v-4.988c0-0.828 0.672-1.5 1.5-1.5s1.5 0.672 1.5 1.5v4.988c0 0.828-0.672 1.5-1.5 1.5h-4e-3zm201.25-4.905c-0.828 0-1.5-0.672-1.5-1.5v-4.99c0-0.828 0.672-1.5 1.5-1.5s1.5 0.672 1.5 1.5v4.99c0 0.828-0.672 1.5-1.5 1.5zm-201.25-7.068c-0.828 0-1.5-0.672-1.5-1.5v-0.518c-5e-3 -1.728 0.393-3.433 1.161-4.981 0.372-0.74 1.274-1.039 2.014-0.667 0.734 0.369 1.035 1.259 0.675 1.997-0.562 1.135-0.853 2.385-0.85 3.651v0.518c0 0.828-0.672 1.5-1.5 1.5h-4e-3zm200.28-4.759c-0.575 0-1.1-0.328-1.351-0.846-0.617-1.275-1.55-2.37-2.709-3.184-0.645-0.52-0.747-1.464-0.227-2.109 0.472-0.586 1.304-0.732 1.947-0.341 1.576 1.108 2.845 2.599 3.686 4.332 0.361 0.746 0.048 1.643-0.697 2.003-0.203 0.098-0.427 0.15-0.653 0.15zm-194.3-4.762c-0.828 0-1.5-0.672-1.5-1.5 0-0.603 0.361-1.147 0.917-1.382 1.381-0.584 2.866-0.884 4.366-0.881h1.1c0.828 0 1.5 0.672 1.5 1.5s-0.672 1.5-1.5 1.5h-1.1c-1.099-2e-3 -2.188 0.217-3.2 0.645-0.186 0.078-0.386 0.119-0.588 0.118zm184.49-0.763h-4.989c-0.828 0-1.5-0.672-1.5-1.5s0.672-1.5 1.5-1.5h4.989c0.828 0 1.5 0.672 1.5 1.5s-0.672 1.5-1.5 1.5zm-11.974 0h-4.989c-0.828 0-1.5-0.672-1.5-1.5s0.672-1.5 1.5-1.5h4.989c0.828 0 1.5 0.672 1.5 1.5s-0.672 1.5-1.5 1.5zm-11.973 0h-4.99c-0.828 0-1.5-0.672-1.5-1.5s0.672-1.5 1.5-1.5h4.99c0.828 0 1.5 0.672 1.5 1.5s-0.672 1.5-1.5 1.5zm-11.974 0h-4.996c-0.828 0-1.5-0.672-1.5-1.5s0.672-1.5 1.5-1.5h4.988c0.828 0 1.5 0.672 1.5 1.5s-0.672 1.5-1.5 1.5zm-11.973 0h-4.989c-0.828 0-1.5-0.672-1.5-1.5s0.672-1.5 1.5-1.5h4.989c0.828 0 1.5 0.672 1.5 1.5s-0.672 1.5-1.5 1.5zm-11.973 0h-4.99c-0.828 0-1.5-0.672-1.5-1.5s0.672-1.5 1.5-1.5h4.99c0.828 0 1.5 0.672 1.5 1.5s-0.672 1.5-1.5 1.5zm-11.974 0h-4.989c-0.828 0-1.5-0.672-1.5-1.5s0.672-1.5 1.5-1.5h4.989c0.828 0 1.5 0.672 1.5 1.5s-0.672 1.5-1.5 1.5zm-11.974 0h-4.989c-0.828 0-1.5-0.672-1.5-1.5s0.672-1.5 1.5-1.5h4.987c0.828 0 1.5 0.672 1.5 1.5s-0.672 1.5-1.5 1.5zm-11.973 0h-4.989c-0.828 0-1.5-0.672-1.5-1.5s0.672-1.5 1.5-1.5h4.989c0.828 0 1.5 0.672 1.5 1.5s-0.672 1.5-1.5 1.5zm-11.973 0h-4.989c-0.828 0-1.5-0.672-1.5-1.5s0.672-1.5 1.5-1.5h4.989c0.828 0 1.5 0.672 1.5 1.5s-0.672 1.5-1.5 1.5zm-11.974 0h-4.989c-0.828 0-1.5-0.672-1.5-1.5s0.672-1.5 1.5-1.5h4.989c0.828 0 1.5 0.672 1.5 1.5s-0.672 1.5-1.5 1.5zm-11.973 0h-4.989c-0.828 0-1.5-0.672-1.5-1.5s0.672-1.5 1.5-1.5h4.98c0.828 0 1.5 0.672 1.5 1.5s-0.672 1.5-1.5 1.5zm-11.974 0h-4.988c-0.828 0-1.5-0.672-1.5-1.5s0.672-1.5 1.5-1.5h4.988c0.828 0 1.5 0.672 1.5 1.5s-0.672 1.5-1.5 1.5zm-11.973 0h-4.989c-0.828 0-1.5-0.672-1.5-1.5s0.672-1.5 1.5-1.5h4.989c0.828 0 1.5 0.672 1.5 1.5s-0.672 1.5-1.5 1.5zm-11.974 0h-4.988c-0.828 0-1.5-0.672-1.5-1.5s0.672-1.5 1.5-1.5h4.988c0.828 0 1.5 0.672 1.5 1.5s-0.672 1.5-1.5 1.5z"/>
    <path d="m580.62 755.88h-161.64c-20.546 0-42.661-10.881-60.68-29.857-18.254-19.223-30.03-44.683-32.308-69.853-5.028-68.861-1.55-141.56 10.328-216.17 8e-3 -0.049 0.016-0.1 0.025-0.144 2.234-11.752 5.47-23.292 9.671-34.493 11.8-31.834 32.973-59.344 60.726-78.9 55.764-39.462 130.35-39.462 186.12 0 27.753 19.557 48.925 47.066 60.726 78.9 4.201 11.201 7.437 22.741 9.672 34.494 9e-3 0.047 0.017 0.095 0.024 0.144 11.879 74.614 15.356 147.32 10.335 216.09-2.285 25.256-14.06 50.716-32.314 69.939-18.018 18.97-40.136 29.854-60.68 29.854zm-161.63-10h161.63c17.818 0 37.289-9.746 53.429-26.743 16.732-17.62 27.521-40.9 29.6-63.869 4.957-67.9 1.516-139.8-10.232-213.63-2.129-11.166-5.207-22.13-9.2-32.773-11.097-29.947-31.01-55.827-57.114-74.227-52.314-37.036-122.3-37.036-174.62 0-26.104 18.4-46.017 44.281-57.113 74.228-3.994 10.642-7.072 21.606-9.2 32.772-11.749 73.83-15.189 145.73-10.225 213.72 2.071 22.882 12.86 46.162 29.592 63.782 16.139 17 35.613 26.743 53.43 26.743z"/>
   </g>
   <path d="m707.37 184.2c42.922 0 81.651-5.921 109.13-29.435 5.122-4.3842 7.1311-11.942 4.8608-18.64l-0.0378-0.10987c-8.927-26.264-24.48-48.544-44.976-64.431-20.413-15.822-44.255-24.185-68.994-24.185-24.694 0-48.535 8.363-68.948 24.185-20.496 15.887-36.049 38.166-44.977 64.431l-0.0378 0.10987c-2.271 6.6945-0.26123 14.255 4.8615 18.64 27.471 23.514 66.2 29.435 109.12 29.435z" fill="#725865" stroke-width=".72766"/>
   <g transform="matrix(.72766 0 0 .72766 343.69 -154.8)" fill="#3e3442" opacity=".4">
    <path d="m453.13 362.77-6 6.738c-2.116 2.377-5.758 2.589-8.135 0.473-0.167-0.148-0.325-0.306-0.473-0.473l-6-6.738c-0.451-0.507-0.7-1.162-0.7-1.841v-82.33c0-1.53 1.24-2.77 2.77-2.77h16.461c1.529 1e-3 2.769 1.241 2.769 2.77v82.33c2e-3 0.678-0.244 1.333-0.692 1.841z"/>
    <path d="m442.83 374.44c-2.501-1e-3 -4.882-1.069-6.545-2.937l-6-6.738c-0.94-1.056-1.459-2.421-1.459-3.835v-82.33c4e-3 -3.185 2.585-5.766 5.77-5.77h16.46c3.185 3e-3 5.767 2.585 5.77 5.77v82.33c1e-3 1.414-0.518 2.779-1.459 3.835l-6 6.738c-1.661 1.866-4.039 2.934-6.537 2.937zm-8-13.6 5.938 6.673c1.066 1.139 2.854 1.198 3.993 0.132 0.045-0.043 0.089-0.087 0.132-0.132l5.937-6.673v-82.011h-16z"/>
    <path d="m565.47 362.77-6 6.738c-2.116 2.377-5.758 2.589-8.135 0.473-0.167-0.148-0.325-0.306-0.473-0.473l-6-6.738c-0.451-0.507-0.7-1.162-0.7-1.841v-82.33c0-1.529 1.24-2.769 2.769-2.77h16.473c1.53 0 2.77 1.24 2.77 2.77v82.33c-1e-3 0.679-0.252 1.334-0.704 1.841z"/>
    <path d="m555.17 374.44c-2.501-1e-3 -4.883-1.069-6.546-2.937l-6-6.738c-0.94-1.056-1.459-2.421-1.459-3.835v-82.33c3e-3 -3.185 2.585-5.767 5.77-5.77h16.468c3.185 3e-3 5.767 2.585 5.771 5.77v82.33c0 1.414-0.52 2.779-1.46 3.835l-6 6.738c-1.663 1.867-4.044 2.936-6.544 2.937zm-8-13.6 5.937 6.673c1.065 1.139 2.851 1.2 3.99 0.135 0.047-0.043 0.091-0.088 0.135-0.135l5.938-6.673v-82.011h-16z"/>
   </g>
   <g stroke-width=".72766">
    <path d="m816.49 148.23c-27.473 23.514-66.203 29.435-109.13 29.435s-81.651-5.921-109.12-29.435c-2.8772-2.517-4.8106-5.9399-5.4807-9.7034-1.1621 6.001 0.92122 12.171 5.4836 16.238 27.473 23.514 66.202 29.435 109.12 29.435 42.918 0 81.651-5.921 109.13-29.435 4.5617-4.0683 6.6443-10.238 5.4815-16.238-0.67164 3.7642-2.6058 7.1871-5.4844 9.7034z" enable-background="new    " fill="#725865" opacity=".32"/>
    <path d="m821.35 136.12-0.0378-0.10988c-8.927-26.264-24.48-48.544-44.976-64.431-20.413-15.822-44.255-24.185-68.994-24.185-24.694 0-48.535 8.363-68.948 24.185-20.496 15.887-36.049 38.166-44.977 64.431l-0.0378 0.10988c-2.1597 6.3386-0.51154 13.355 4.2459 18.068-2.3991-4.2634-2.8794-9.3432-1.3222-13.981l0.0364-0.10696c8.6992-25.591 23.853-47.298 43.823-62.778 19.889-15.416 43.119-23.565 67.18-23.565 24.104 0 47.335 8.1498 67.224 23.565 19.971 15.479 35.124 37.188 43.823 62.778l0.0364 0.10696c1.5572 4.6374 1.0769 9.7172-1.3222 13.981 4.7582-4.7131 6.407-11.729 4.2459-18.068z" enable-background="new    " fill="#725865" opacity=".58"/>
    <path d="m707.37 187.83c-52.614 0-86.999-9.3475-111.49-30.31-6.3648-5.6292-8.7094-14.539-5.9399-22.572l0.048-0.14189c9.1481-26.912 25.121-49.781 46.182-66.106s45.669-24.947 71.178-24.947c25.536 0 50.165 8.6264 71.223 24.947s37.038 39.195 46.192 66.136l0.0466 0.13971c2.7578 8.0261 0.40967 16.923-5.9494 22.544-24.492 20.962-58.88 30.31-111.49 30.31zm-113.98-51.737 3.4455 1.1686c-1.7828 5.2559-0.22776 11.303 3.7736 14.729 23.078 19.753 56.003 28.561 106.76 28.561s83.681-8.8047 106.76-28.561c4.0021-3.4251 5.5557-9.4727 3.7838-14.707l-0.0458-0.13753c-8.6875-25.557-23.819-47.247-43.751-62.696-19.769-15.322-42.859-23.422-66.764-23.422-23.88 0-46.951 8.0996-66.72 23.422-19.931 15.448-35.063 37.139-43.761 62.724z" fill="#3e3442"/>
    <path d="m707.57 176.56c-1.2858 4e-3 -2.5796-4e-3 -3.8515-0.0153-0.6025-2e-3 -1.0893-0.49335-1.0871-1.0958 2e-3 -0.60251 0.49336-1.0893 1.0959-1.0871h0.0102c1.2668 0.0109 2.5468 0.0182 3.8362 0.0153h1.3941c0.6025-1e-3 1.0922 0.48681 1.0937 1.0893 1e-3 0.6025-0.4868 1.0922-1.0893 1.0937-0.46643 7.3e-4 -0.93431 7.3e-4 -1.4022 0zm6.49-0.0538c-0.6025 5e-3 -1.0951-0.48026-1.1002-1.0828-5e-3 -0.6025 0.48026-1.0951 1.0828-1.1002 1.2196-0.0189 2.4282-0.0429 3.6259-0.0728 0.6025-0.016 1.1039 0.46061 1.1199 1.0631 0.016 0.60251-0.46061 1.1039-1.0631 1.1199-1.2043 0.0306-2.4202 0.0546-3.6478 0.0728zm-15.426-0.0378h-0.024c-1.2268-0.0262-2.4428-0.0582-3.6478-0.0968-0.60178-0.0196-1.0748-0.52319-1.0558-1.125 0.0262-0.59887 0.52537-1.0682 1.125-1.0566 1.197 0.0378 2.4056 0.0699 3.6259 0.096 0.6025 7e-3 1.0864 0.50063 1.0798 1.1031-7e-3 0.6025-0.50063 1.0864-1.1031 1.0798zm24.15-0.20593c-0.6025 0.0116-1.101-0.46716-1.1133-1.0697-0.0116-0.6025 0.46716-1.101 1.0704-1.1133 1.2188-0.0488 2.426-0.10405 3.6216-0.16591 0.59232-0.0393 1.1053 0.40895 1.1446 1.002 7.3e-4 0.0109 1e-3 0.0211 1e-3 0.032 0.0313 0.60177-0.4315 1.1155-1.0333 1.1468h-7.3e-4c-1.2036 0.0618-2.4187 0.11788-3.6456 0.16664zm-32.875-0.0888h-0.0517c-1.2268-0.0575-2.442-0.12079-3.6448-0.19065-0.6025-0.0349-1.0631-0.55229-1.0282-1.1548 0.0349-0.6025 0.55229-1.0631 1.1548-1.0282 1.1941 0.0691 2.4013 0.13243 3.6201 0.18919 0.6025 0.0138 1.0806 0.51373 1.0668 1.117-0.0138 0.6025-0.51373 1.0806-1.117 1.066zm41.592-0.3813c-0.6025 0.0204-1.1075-0.4526-1.1279-1.0551-0.0204-0.60251 0.45261-1.1075 1.0551-1.1279 1.2174-0.083 2.4224-0.17318 3.6136-0.26996 0.60105-0.0488 1.1279 0.39876 1.1766 0.99981 0.0488 0.60104-0.39875 1.1279-0.99907 1.1766-1.2014 0.0968-2.4136 0.18774-3.6383 0.27215-0.0276 4e-3 -0.0524 4e-3 -0.0779 4e-3zm-50.306-0.14553h-0.0837c-1.2261-0.0924-2.4391-0.1921-3.6383-0.29907-0.60105-0.0487-1.0478-0.57558-0.99908-1.1766 0.0488-0.60105 0.57558-1.0478 1.1766-0.99908 6e-3 7.3e-4 0.0109 7.3e-4 0.0167 1e-3 1.1904 0.10624 2.394 0.2052 3.6106 0.29689 0.6025 0.0226 1.0733 0.52974 1.0507 1.1322-0.0225 0.6025-0.52973 1.0733-1.1322 1.0507zm59.006-0.58722c-0.6025-2e-3 -1.09-0.4919-1.0878-1.0951 1e-3 -0.55811 0.42422-1.0245 0.9787-1.082 1.213-0.12297 2.4129-0.25323 3.6005-0.39075 0.59668-0.0851 1.1497 0.3289 1.2348 0.92558 0.0851 0.59668-0.3289 1.1497-0.92558 1.2348-0.0197 3e-3 -0.0386 5e-3 -0.0582 7e-3 -1.1963 0.13971-2.4064 0.27142-3.631 0.39439-0.0364 3e-3 -0.0728 4e-3 -0.10915 3e-3zm-67.699-0.21248c-0.04 0-0.08-2e-3 -0.12006-7e-3 -1.2239-0.13389-2.434-0.27578-3.6303-0.42568-0.59813-0.075-1.0224-0.62069-0.94741-1.2188 0.0749-0.59813 0.62069-1.0224 1.2188-0.94741 1.1854 0.14844 2.3845 0.28888 3.5961 0.42204 0.59886 0.0662 1.0318 0.60541 0.9656 1.2043-0.0611 0.55229-0.52683 0.9707-1.0828 0.97215zm76.368-0.82589c-0.6025-2e-3 -1.0893-0.49263-1.0871-1.0959 2e-3 -0.5421 0.40094-0.9998 0.93722-1.0762 1.2065-0.16881 2.3998-0.34636 3.5794-0.53192 0.59523-0.0939 1.1548 0.3129 1.2479 0.90885 0.0939 0.59523-0.3129 1.1548-0.90812 1.2479-1.1919 0.18773-2.3976 0.36674-3.6165 0.53701-0.0502 7e-3 -0.10042 9e-3 -0.15063 9e-3zm-85.02-0.29107c-0.0546 0-0.10914-4e-3 -0.16299-0.0124-1.2188-0.18264-2.4224-0.37401-3.6121-0.57412-0.59449-0.0975-0.99762-0.65926-0.90011-1.2538 0.0975-0.5945 0.65926-0.99762 1.2538-0.90011 4e-3 7.2e-4 7e-3 7.2e-4 0.0102 1e-3 1.1766 0.19865 2.3671 0.38784 3.5721 0.56758 0.59668 0.088 1.0085 0.64252 0.92122 1.2385-0.0786 0.53556-0.53847 0.93286-1.0806 0.93286zm93.635-1.1031c-0.6025 0-1.0915-0.48899-1.0908-1.0922 0-0.52609 0.37547-0.97724 0.89284-1.0726 1.1977-0.22193 2.3802-0.45333 3.5473-0.69491 0.58722-0.13535 1.173 0.23139 1.3083 0.81934 0.13534 0.58722-0.2314 1.173-0.81935 1.3083-0.0153 4e-3 -0.0313 7e-3 -0.0466 9e-3 -1.1817 0.24522-2.3787 0.47952-3.5917 0.70437-0.0655 0.0116-0.13171 0.0182-0.19792 0.0182zm-102.24-0.38202c-0.0713 0-0.1419-7e-3 -0.21175-0.0211-1.2101-0.23795-2.4049-0.48608-3.5837-0.74585-0.58867-0.12953-0.96196-0.71165-0.83244-1.3003s0.71165-0.96197 1.3003-0.83244c1.1642 0.25613 2.3438 0.50208 3.5379 0.73711 0.59159 0.1157 0.97725 0.68983 0.86082 1.2814-0.10041 0.51155-0.54938 0.8812-1.0711 0.8812zm110.78-1.4255c-0.60251 0-1.0915-0.48826-1.0922-1.0908 0-0.50572 0.34636-0.94523 0.83826-1.0624 1.1824-0.28452 2.3496-0.57922 3.5-0.88484 0.58285-0.15499 1.181 0.19138 1.336 0.77423 0.15499 0.58286-0.19137 1.181-0.77423 1.336-1.1679 0.30998-2.3518 0.60905-3.5524 0.89793-0.083 0.0196-0.16809 0.0298-0.25322 0.0298zm-119.3-0.48903c-0.091 0-0.18119-0.0117-0.26924-0.0342-1.197-0.30416-2.3765-0.61924-3.5401-0.94596-0.58067-0.163-0.91904-0.7655-0.75604-1.3462s0.7655-0.91904 1.3462-0.75604c1.1468 0.32235 2.3096 0.63306 3.4877 0.93286 0.58432 0.14844 0.93796 0.74221 0.78952 1.3265-0.12225 0.4839-0.55812 0.82299-1.058 0.82299zm127.72-1.7988c-0.6025 7.3e-4 -1.0922-0.4868-1.0937-1.0893-7.3e-4 -0.48171 0.31435-0.90739 0.77641-1.0471 1.1482-0.35 2.303-0.72111 3.4338-1.1017 0.57412-0.18482 1.189 0.13098 1.3731 0.70511 0.18119 0.56321-0.11933 1.1679-0.67672 1.3636-1.1504 0.38712-2.3285 0.76477-3.4928 1.1213-0.10333 0.0313-0.21029 0.0473-0.31799 0.048zm-136.11-0.61051c-0.11424 0-0.22703-0.0182-0.33545-0.0531-1.1643-0.3762-2.3336-0.77205-3.4738-1.1766-0.57413-0.1841-0.89066-0.79824-0.70656-1.3724 0.1841-0.57412 0.79824-0.89065 1.3724-0.70656 0.0211 7e-3 0.0415 0.0138 0.0619 0.0218 1.1206 0.39731 2.2688 0.7866 3.4142 1.1563 0.57412 0.18482 0.8892 0.79897 0.7051 1.3731-0.14553 0.45188-0.56612 0.75822-1.0406 0.75749zm144.36-2.2274c-0.60251 0-1.0915-0.48899-1.0915-1.0922 0-0.45115 0.27796-0.85646 0.69928-1.018 1.1257-0.43659 2.2492-0.88629 3.3392-1.3469 0.55229-0.24231 1.1955 9e-3 1.4379 0.56176 0.24158 0.55229-9e-3 1.1955-0.56176 1.4378l-0.0262 0.0109c-1.1119 0.47007-2.2558 0.93213-3.4062 1.3738-0.12443 0.048-0.25614 0.0728-0.3893 0.0728zm-152.56-0.74731c-0.14044 0-0.27942-0.0269-0.40967-0.08-1.1446-0.46425-2.2819-0.94596-3.3807-1.4371-0.54502-0.25686-0.77932-0.90739-0.52246-1.4524 0.24886-0.52901 0.87101-0.76768 1.4102-0.54138 1.0769 0.47953 2.1917 0.95324 3.313 1.408 0.55884 0.22631 0.82808 0.86301 0.60105 1.4218-0.16664 0.41186-0.56685 0.68109-1.0114 0.68109zm160.58-2.7054c-0.6025 1e-3 -1.093-0.48608-1.0937-1.0893-7.3e-4 -0.42131 0.24012-0.80552 0.61996-0.9867 1.0849-0.52028 2.1655-1.0638 3.2134-1.6154 0.53337-0.2816 1.1934-0.0771 1.475 0.45624 0.2816 0.53338 0.0771 1.1934-0.45625 1.475-1.0711 0.56394-2.1757 1.1199-3.2846 1.6525-0.14699 0.0706-0.30853 0.10769-0.47153 0.10769zm-168.53-0.89939c-0.171 0-0.33909-0.0407-0.4919-0.11788-1.0988-0.55593-2.1924-1.1344-3.2497-1.7195-0.52756-0.29179-0.71821-0.95614-0.42641-1.4837 0.29179-0.52755 0.95614-0.7182 1.4837-0.42641 1.034 0.57194 2.1029 1.1381 3.1777 1.6816 0.53846 0.27141 0.75385 0.92849 0.48244 1.4662-0.18629 0.3682-0.56321 0.60032-0.9758 0.59959zm176.22-3.2243c-0.60251 0-1.0915-0.48826-1.0922-1.0908 0-0.38493 0.20229-0.74149 0.53337-0.93868 1.0246-0.60978 2.0498-1.2494 3.0489-1.8992 0.513-0.31726 1.1854-0.15863 1.5026 0.35437 0.30634 0.49553 0.16954 1.1446-0.31144 1.4742-1.0231 0.66654-2.0738 1.3214-3.1231 1.9465-0.16809 0.10041-0.35946 0.15353-0.5552 0.15353zm-183.81-1.0602c-0.20447 0-0.4053-0.0575-0.57849-0.16663-1.0384-0.65053-2.0746-1.328-3.0794-2.0149-0.49772-0.34055-0.62506-1.0195-0.28452-1.5172 0.34055-0.49772 1.0194-0.62506 1.5172-0.28525 0.98016 0.67018 1.9916 1.3324 3.006 1.9647 0.51154 0.31945 0.66653 0.99253 0.34709 1.5041-0.20011 0.32017-0.55157 0.51445-0.92922 0.513zm191.08-3.7576c-0.6025 7.3e-4 -1.0915-0.48753-1.0922-1.0908 0-0.34782 0.16518-0.67454 0.44533-0.88047 0.95833-0.70437 1.9152-1.4386 2.8459-2.183 0.47661-0.36892 1.1621-0.28087 1.531 0.19574 0.3602 0.46571 0.28597 1.1337-0.16809 1.5092-0.9525 0.76186-1.9334 1.5143-2.9157 2.2361-0.18701 0.13826-0.41331 0.2132-0.64616 0.2132zm-198.25-1.2239c-0.24085 0-0.47443-0.0793-0.66508-0.22703-0.96633-0.7444-1.9319-1.5208-2.8706-2.3081-0.46206-0.38711-0.52319-1.0755-0.13534-1.5375 0.38784-0.46207 1.0755-0.52319 1.5375-0.13535 0.91685 0.76841 1.8592 1.5281 2.8008 2.2558 0.47734 0.36819 0.56612 1.0536 0.19792 1.531-0.20666 0.2685-0.52683 0.42568-0.86519 0.42495zm204.8-4.4824c-0.6025 0-1.0915-0.48898-1.0908-1.0922 0-0.20811 0.0597-0.41186 0.17172-0.58722 0.5654-0.89866 0.93286-1.9072 1.0791-2.9587 0.0735-0.59814 0.61851-1.0238 1.2166-0.9496 0.59814 0.0735 1.0238 0.61851 0.9496 1.2166-1e-3 0.0145-4e-3 0.0291-7e-3 0.0429-0.19138 1.3593-0.66872 2.6632-1.4008 3.8246-0.2001 0.31363-0.54647 0.50354-0.91903 0.50354zm-210.58-1.8461c-0.47006 1e-3 -0.88847-0.29761-1.0384-0.74294-0.33981-1.0289-0.51227-2.1058-0.50936-3.1893 0-0.27797 0.0109-0.55594 0.0342-0.83463 0.0633-0.59959 0.60032-1.0347 1.1992-0.97143 0.5814 0.0611 1.0107 0.56903 0.97579 1.1519-0.0175 0.2183-0.0262 0.4366-0.0262 0.65489-1e-3 0.84918 0.13389 1.6933 0.40094 2.4995 0.19138 0.57121-0.11642 1.1904-0.68836 1.3818-7.3e-4 0-1e-3 7.3e-4 -2e-3 7.3e-4 -0.11206 0.0349-0.22848 0.0517-0.34564 0.0495zm211.17-6.5373c-0.46571 0-0.87974-0.2947-1.0318-0.73493-0.39366-1.1395-0.80042-2.271-1.2217-3.3953-0.21102-0.56467 0.0757-1.1934 0.64034-1.4051 0.56467-0.21102 1.1934 0.0757 1.4044 0.64035 0.42641 1.1402 0.83972 2.2892 1.2407 3.4462 0.19719 0.56976-0.10478 1.1912-0.67381 1.3884-0.11497 0.04-0.23649 0.0604-0.35801 0.0604zm-210.19-1.9348c-0.6025 0-1.0915-0.48899-1.0915-1.0915 0-0.12662 0.0218-0.2525 0.0655-0.37184 0.41695-1.1526 0.84772-2.2972 1.293-3.4338 0.23867-0.55374 0.8812-0.80843 1.435-0.56975 0.52682 0.22703 0.78732 0.82371 0.59668 1.3651-0.4366 1.1191-0.86082 2.2463-1.2734 3.3822-0.15644 0.43223-0.56757 0.72038-1.0274 0.71966zm207.09-6.2222c-0.44097 0-0.839-0.26487-1.0085-0.67236-0.46352-1.1126-0.94014-2.2157-1.4298-3.3109-0.24959-0.54865-8e-3 -1.1955 0.54065-1.4459 0.54865-0.24958 1.1955-8e-3 1.4459 0.54066 2e-3 4e-3 4e-3 9e-3 6e-3 0.0131 0.49554 1.1068 0.98452 2.239 1.4553 3.364 0.23212 0.55666-0.0313 1.1955-0.58795 1.4277-0.13243 0.0553-0.27506 0.0837-0.4184 0.0837zm-203.86-1.8919c-0.6025 7.3e-4 -1.0922-0.48753-1.0922-1.0908 0-0.15063 0.0306-0.2998 0.091-0.43733 0.48608-1.1199 0.9918-2.2456 1.5048-3.3472 0.25468-0.54648 0.90375-0.78296 1.4502-0.52901 0.54647 0.25395 0.78296 0.90375 0.52901 1.4502-0.50718 1.0886-1.0013 2.1866-1.4815 3.2941-0.17391 0.40021-0.56976 0.65853-1.0064 0.65635zm200.26-6.0505c-0.41622 0-0.79679-0.23649-0.98016-0.60978-0.52392-1.0638-1.0748-2.1444-1.6372-3.2126-0.28161-0.53338-0.0771-1.1934 0.45624-1.475 0.53337-0.2816 1.1934-0.0771 1.475 0.45624 0.57195 1.085 1.1322 2.183 1.6642 3.2657 0.26633 0.54065 0.0444 1.1948-0.49699 1.4619-0.1499 0.0735-0.31435 0.11206-0.48098 0.11206zm-196.53-1.8475c-0.60251-7.3e-4 -1.0915-0.48972-1.0908-1.0922 0-0.17318 0.0415-0.34346 0.12007-0.49699 0.55957-1.0915 1.1373-2.183 1.7173-3.2439 0.28961-0.52901 0.95251-0.72329 1.4815-0.43369 0.52901 0.28961 0.72329 0.95251 0.43369 1.4815-0.57049 1.0435-1.1395 2.1175-1.6896 3.1915-0.18846 0.36528-0.56612 0.59377-0.97725 0.59086zm192.42-5.8504c-0.39003 0-0.75095-0.20811-0.94596-0.54647-0.59595-1.034-1.2166-2.076-1.8446-3.0976-0.3158-0.51373-0.15499-1.1861 0.35874-1.5019s1.1861-0.15499 1.5019 0.35874c0.63816 1.0391 1.269 2.0986 1.8759 3.15 0.30125 0.52173 0.12224 1.1897-0.39949 1.491-0.1659 0.096-0.35437 0.14626-0.54647 0.14626zm-188.19-1.7886c-0.6025-7.2e-4 -1.0908-0.49044-1.09-1.0929 0-0.19647 0.0538-0.39003 0.15499-0.55885 0.62578-1.0464 1.2741-2.0971 1.9276-3.1231 0.31289-0.51519 0.98452-0.67891 1.4997-0.36529 0.51518 0.31362 0.6789 0.98453 0.36528 1.4997-8e-3 0.0131-0.016 0.0255-0.024 0.0378-0.6418 1.0093-1.28 2.0425-1.8956 3.0714-0.19865 0.33036-0.55738 0.53119-0.94304 0.52828zm183.57-5.6212c-0.36455 0-0.70437-0.18119-0.90739-0.48389-0.66581-0.99326-1.3549-1.9909-2.0491-2.9652-0.35437-0.48753-0.24595-1.1701 0.24159-1.5244 0.48753-0.35437 1.1701-0.24595 1.5244 0.24159 4e-3 5e-3 7e-3 0.0102 0.0117 0.016 0.70655 0.99107 1.408 2.0062 2.0847 3.0176 0.33545 0.50136 0.20084 1.1788-0.30052 1.5143-0.17901 0.12007-0.39003 0.1841-0.60542 0.1841zm-178.84-1.7187c-0.6025-7.3e-4 -1.0908-0.48972-1.0908-1.0922 0-0.22194 0.0684-0.43878 0.19501-0.62142 0.69637-1.0027 1.4153-2.0076 2.1364-2.9834 0.34709-0.49262 1.0282-0.61051 1.5208-0.26341 0.49263 0.34709 0.61051 1.0282 0.26341 1.5208-9e-3 0.0131-0.0182 0.0255-0.0276 0.0378-0.70874 0.96196-1.4153 1.9494-2.0993 2.9354-0.20665 0.29324-0.54429 0.46715-0.90302 0.46352zm173.74-5.3592c-0.33763 0-0.65708-0.15572-0.86373-0.42277-0.73712-0.95032-1.4946-1.8977-2.2506-2.816-0.38348-0.4657-0.31654-1.1533 0.14917-1.5368 0.4657-0.38348 1.1533-0.31653 1.5368 0.14917 0.76914 0.93432 1.5397 1.8985 2.29 2.8663 0.36965 0.47662 0.28233 1.1621-0.19356 1.5317-0.19137 0.14771-0.42641 0.22848-0.66799 0.22848zm-168.51-1.6409c-0.6025 0-1.0915-0.48899-1.0908-1.0922 0-0.24813 0.0851-0.48899 0.24012-0.68254 0.76623-0.95469 1.5536-1.9072 2.3394-2.8291 0.39075-0.45915 1.0798-0.51373 1.539-0.12298 0.45916 0.39075 0.51373 1.0798 0.12298 1.539-0.77205 0.90594-1.5456 1.841-2.2987 2.7797-0.20738 0.25832-0.52101 0.40822-0.85209 0.40822zm162.92-5.0667c-0.31071 0-0.60614-0.13243-0.81352-0.36383-0.80043-0.89575-1.6256-1.7871-2.4449-2.6487-0.43441-0.41768-0.44824-1.109-0.0306-1.5434 0.41768-0.43441 1.109-0.44824 1.5434-0.03056 0.024 0.02256 0.0466 0.04657 0.0677 0.07131 0.83462 0.87756 1.6736 1.7842 2.4886 2.6923 0.40166 0.44897 0.3631 1.1395-0.0859 1.5412-0.19938 0.179-0.45842 0.27724-0.7262 0.27797zm-157.22-1.5448c-0.6025 0-1.0915-0.48826-1.0915-1.0915 0-0.27506 0.10406-0.54065 0.29107-0.74221 0.83244-0.89866 1.686-1.7922 2.5366-2.6552 0.4235-0.42932 1.114-0.43441 1.5434-0.01164 0.42932 0.42277 0.43441 1.114 0.0116 1.5434-0.83463 0.847-1.6736 1.7238-2.4908 2.6065-0.20666 0.22412-0.49772 0.35073-0.80188 0.35h1e-3zm151.17-4.7429c-0.28233 7.28e-4 -0.55448-0.10915-0.7575-0.30562-0.87319-0.84045-1.7573-1.6736-2.6319-2.4639-0.44606-0.40531-0.47953-1.0959-0.0742-1.5426 0.4053-0.44678 1.0958-0.47953 1.5426-0.07422 0.88992 0.80916 1.7915 1.6532 2.6792 2.509 0.43369 0.4184 0.44533 1.1097 0.0269 1.5434-0.20592 0.21393-0.48898 0.334-0.78514 0.334zm-145-1.4415c-0.6025 0.0015-1.093-0.48535-1.0944-1.0886-7.3e-4 -0.30489 0.12588-0.59595 0.34928-0.80334 0.89138-0.83099 1.8082-1.6591 2.7236-2.4617 0.44678-0.40531 1.1366-0.37111 1.5419 0.07495 0.40531 0.44678 0.37111 1.1366-0.0749 1.5419-9e-3 8e-3 -0.0182 0.01601-0.0269 0.02401-0.89939 0.78806-1.7988 1.6009-2.6742 2.418-0.20229 0.18919-0.46862 0.2947-0.74513 0.2947zm138.5-4.3863c-0.25468 0-0.50135-0.0895-0.69709-0.2525-0.92049-0.7655-1.865-1.5281-2.8066-2.2608-0.47516-0.37111-0.5603-1.0573-0.18919-1.5325s1.0573-0.5603 1.5324-0.18919c0.95906 0.74876 1.9218 1.5244 2.859 2.3038 0.46352 0.38493 0.52755 1.0733 0.14262 1.5368-0.20811 0.25032-0.51591 0.39512-0.84118 0.39439zm-131.9-1.3258c-0.60251 0-1.0915-0.48826-1.0915-1.0915 0-0.33108 0.14989-0.64471 0.40821-0.85136 0.50791-0.40749 1.0194-0.81061 1.5339-1.2094 0.45479-0.35219 0.91176-0.70074 1.3695-1.0456 0.48098-0.3631 1.1657-0.26705 1.5288 0.21393s0.26705 1.1657-0.21393 1.5288c-1e-3 0.0015-4e-3 0.0022-5e-3 0.0036-0.44969 0.33982-0.89793 0.68182-1.3454 1.0275-0.50499 0.39148-1.0064 0.78733-1.5048 1.1868-0.19356 0.15426-0.43368 0.23794-0.68109 0.23722zm124.99-4.0021c-0.2263 7.28e-4 -0.44751-0.06986-0.6316-0.20156-0.97871-0.69637-1.9763-1.3826-2.9674-2.0374-0.50209-0.33327-0.63889-1.0114-0.30562-1.5135 0.33327-0.50209 1.0114-0.63889 1.5135-0.30562 1.0093 0.6709 2.0273 1.3702 3.0242 2.0797 0.49117 0.34928 0.60614 1.0311 0.25613 1.5223-0.20447 0.28742-0.53628 0.45842-0.8892 0.45842zm-117.97-1.2035c-0.60251 7.27e-4 -1.0922-0.4868-1.0937-1.0893-7.3e-4 -0.36165 0.17755-0.70001 0.47662-0.90375 1.01-0.69055 2.0418-1.3716 3.0671-2.0251 0.50572-0.32817 1.1817-0.1841 1.5099 0.32235 0.32818 0.50572 0.1841 1.1817-0.32235 1.5099-5e-3 0.0029-9e-3 0.0065-0.0146 0.0095-1.0049 0.64034-2.0178 1.3098-3.0081 1.9865-0.18119 0.12516-0.39585 0.1921-0.61633 0.1921zm110.67-3.5735c-0.19719 7.27e-4 -0.39148-0.05312-0.56029-0.15499-1.0347-0.61997-2.084-1.2254-3.1195-1.7995-0.52683-0.29252-0.71675-0.9576-0.42423-1.4844 0.29252-0.52682 0.9576-0.71674 1.4844-0.42422 1.0551 0.58577 2.1255 1.2035 3.1806 1.8352 0.51737 0.30998 0.68546 0.98016 0.37547 1.4968-0.19719 0.32963-0.55302 0.53119-0.9365 0.53119zm-103.28-1.0682c-0.6025 0-1.0915-0.48899-1.0915-1.0915 0-0.39003 0.20884-0.75094 0.5472-0.94596 1.058-0.60687 2.1415-1.2043 3.2192-1.7755 0.52246-0.30125 1.1897-0.12152 1.491 0.40094 0.30126 0.52246 0.12152 1.1897-0.40094 1.491-0.0233 0.0131-0.0473 0.0262-0.0713 0.03784-1.0558 0.55957-2.1175 1.1453-3.1544 1.7406-0.16445 0.09314-0.35001 0.14262-0.5392 0.14262zm95.615-3.1107c-0.16736 0-0.33326-0.03857-0.48316-0.11352-1.0726-0.53046-2.167-1.0486-3.2534-1.539-0.54938-0.24886-0.79315-0.89575-0.54429-1.4451 0.24886-0.54938 0.89502-0.79315 1.4444-0.54502 1.1075 0.50136 2.2252 1.0296 3.321 1.5717 0.54065 0.26705 0.76258 0.92122 0.49553 1.4619-0.1841 0.37402-0.56393 0.60978-0.98016 0.60905zm-87.872-0.9234c-0.6025 7.27e-4 -1.0922-0.48753-1.0929-1.09-7.3e-4 -0.4235 0.24449-0.80989 0.62797-0.98962 1.1097-0.521 2.2383-1.0275 3.3552-1.5055 0.55666-0.2314 1.1955 0.03274 1.4262 0.59013 0.22776 0.54793-0.0247 1.1774-0.56757 1.4168-1.0915 0.46788-2.199 0.96415-3.2854 1.4742-0.1448 0.0684-0.30343 0.10406-0.46352 0.10406zm79.897-2.6152c-0.1368 0-0.27287-0.0262-0.40021-0.07713-1.1104-0.4366-2.2434-0.86228-3.3691-1.2603-0.56466-0.21029-0.85282-0.83826-0.64252-1.4037 0.2052-0.55229 0.81134-0.84118 1.3702-0.65417 1.1497 0.40676 2.3074 0.83972 3.4411 1.288 0.56248 0.21612 0.84335 0.84772 0.62724 1.4102-0.163 0.42495-0.57267 0.70365-1.0282 0.70001zm-71.846-0.76259c-0.6025 7.28e-4 -1.0922-0.4868-1.0929-1.09-7.3e-4 -0.4577 0.28378-0.86664 0.7131-1.0253 1.1395-0.42277 2.3067-0.83244 3.4702-1.2174 0.57704-0.17537 1.1868 0.1499 1.3622 0.72693 0.16955 0.55666-0.12807 1.1482-0.67599 1.3447-1.1388 0.37766-2.2812 0.7786-3.3974 1.1919-0.12152 0.04584-0.25031 0.06913-0.38056 0.06913zm63.597-2.0913c-0.10623 0-0.21174-0.01601-0.31289-0.04657-1.1453-0.342-2.3103-0.66726-3.4651-0.96779-0.5894-0.12516-0.9656-0.7051-0.84044-1.2945 0.12515-0.5894 0.7051-0.9656 1.2945-0.84045 0.032 0.0065 0.064 0.01528 0.0961 0.02474 1.1795 0.30634 2.3707 0.63961 3.5401 0.98889 0.57776 0.17173 0.90739 0.77932 0.73567 1.3571-0.13753 0.46352-0.56394 0.78151-1.0478 0.78078zm-55.293-0.59232c-0.6025 0.0022-1.0929-0.48535-1.0951-1.0879-1e-3 -0.49335 0.32817-0.92631 0.80406-1.0566 1.1766-0.32454 2.3751-0.63234 3.5619-0.91467 0.58649-0.13971 1.1752 0.22266 1.3149 0.80916s-0.22267 1.1752-0.80989 1.3149c-1.1642 0.27578-2.3343 0.57703-3.4862 0.89502-0.0946 0.0262-0.19137 0.04002-0.28961 0.04002zm46.831-1.5426c-0.0749 0-0.14917-8e-3 -0.22193-0.02329-1.1723-0.24231-2.3613-0.46497-3.5364-0.66362-0.59377-0.10333-0.9918-0.66799-0.88847-1.2625 0.1026-0.59013 0.66144-0.98743 1.2523-0.88993 1.2006 0.20302 2.4166 0.43078 3.6143 0.67891 0.59013 0.12225 0.96997 0.69928 0.84845 1.2894-0.10478 0.50645-0.54938 0.86955-1.0668 0.87101zm-38.325-0.41331c-0.6025-7.28e-4 -1.0908-0.49044-1.0893-1.0937 7.3e-4 -0.52537 0.3762-0.97579 0.89284-1.0711 1.2028-0.22266 2.4231-0.42423 3.6281-0.60105 0.59523-0.09387 1.1541 0.31289 1.2479 0.90812 0.0939 0.59523-0.31289 1.1541-0.90812 1.2479-7e-3 0.0015-0.0145 0.0022-0.0226 0.0029-1.1781 0.17246-2.3722 0.37038-3.5495 0.58795-0.0655 0.01237-0.13171 0.01819-0.19792 0.01819zm29.709-0.97798c-0.0429 0-0.0859-0.0022-0.12879-0.0073-1.1781-0.13826-2.3838-0.25686-3.5801-0.35292-0.60032-0.05821-1.0391-0.59159-0.98161-1.1912 0.0568-0.58649 0.5683-1.0216 1.1562-0.98452 1.2232 0.09823 2.4544 0.2183 3.6594 0.36019 0.59886 0.06986 1.0282 0.61124 0.95833 1.2101-0.064 0.55011-0.52974 0.9656-1.0835 0.9656zm-21.065-0.22776c-0.6025-0.0022-1.09-0.4919-1.0878-1.0951 1e-3 -0.56103 0.42787-1.0289 0.98598-1.0828 1.213-0.1157 2.4471-0.21029 3.6667-0.2816 0.6025-0.03493 1.1199 0.42495 1.1548 1.0282 0.0349 0.60323-0.42496 1.1199-1.0282 1.1548-1.1941 0.07277-2.4013 0.16227-3.5874 0.27506-0.0342 0.0022-0.0691 0.0029-0.10406 0.0015zm12.358-0.40531h-0.0327c-0.95615-0.02765-1.9138-0.04148-2.8728-0.04148h-0.73567c-0.6025 0.0022-1.0929-0.48462-1.0951-1.0879-2e-3 -0.60323 0.48463-1.0929 1.0879-1.0951h0.74366c0.97871 0 1.9567 0.01382 2.9354 0.0422 0.60251 0.0087 1.0842 0.50427 1.0755 1.1068-9e-3 0.6025-0.50427 1.0842-1.1068 1.0762z" fill="#3e3442"/>
    <path d="m714.86 306.59-4.8448 5.4451c-1.3025 1.4633-3.5444 1.5943-5.0085 0.29179-0.1026-0.0917-0.20083-0.18919-0.29179-0.29179l-4.844-5.4451c-0.32818-0.36893-0.50936-0.84554-0.50936-1.3396v-47.536c0-1.1133 0.90229-2.0156 2.0156-2.0156h11.978c1.1126 7.3e-4 2.0149 0.90303 2.0149 2.0156v47.538c-7.3e-4 0.49335-0.18192 0.96924-0.51009 1.3374z" fill="#d08770"/>
   </g>
   <g transform="matrix(.72766 0 0 .72766 343.69 -154.8)" fill="#3e3442">
    <path d="m499.8 645.74c-2.501-1e-3 -4.882-1.07-6.545-2.937l-6-6.739c-0.941-1.055-1.461-2.42-1.46-3.834v-65.328c4e-3 -3.185 2.585-5.766 5.77-5.769h16.46c3.185 3e-3 5.766 2.584 5.77 5.769v65.332c0 1.414-0.519 2.778-1.459 3.834l-5.995 6.739c-1.663 1.865-4.042 2.932-6.541 2.933zm-8-13.6 5.937 6.672c0.521 0.592 1.274 0.93 2.063 0.926 0.789 4e-3 1.542-0.333 2.063-0.926l5.937-6.672v-65.011h-16z"/>
    <path d="m510.8 618.1h-22c-1.657 0-3-1.343-3-3v-13.5c0-1.657 1.343-3 3-3h22c1.657 0 3 1.343 3 3v13.5c0 1.657-1.343 3-3 3zm-19-6h16v-7.5h-16z"/>
    <path d="m499.8 618.1c-1.657 0-3-1.343-3-3v-12.333c0-1.657 1.343-3 3-3s3 1.343 3 3v12.333c0 1.657-1.343 3-3 3z"/>
    <circle cx="499.8" cy="577.6" r="3.375"/>
    <circle cx="499.8" cy="591.6" r="3.375"/>
    <circle cx="499.8" cy="624.98" r="3.375"/>
   </g>
   <g stroke-width=".72766">
    <path d="m673.41 102.63-4.8448 5.4444c-1.3018 1.4633-3.5437 1.5943-5.007 0.29252-0.10333-0.0917-0.20084-0.18919-0.29252-0.29252l-4.8448-5.4444c-0.32818-0.36893-0.50936-0.84554-0.50936-1.3396v-59.908c0-1.1133 0.90229-2.0156 2.0156-2.0156h11.978c1.1126 7.28e-4 2.0149 0.90303 2.0149 2.0156v59.908c0 0.49408-0.18192 0.97069-0.51009 1.3396z" fill="#d08770"/>
    <path d="m665.92 111.12c-1.8199-7.3e-4 -3.5524-0.77787-4.7625-2.1371l-4.366-4.903c-0.684-0.76841-1.0616-1.7617-1.0616-2.7906v-59.908c3e-3 -2.3176 1.881-4.1957 4.1986-4.1986h11.977c2.3176 0.0022 4.1964 1.881 4.1986 4.1986v59.908c7.2e-4 1.0289-0.37693 2.0222-1.0617 2.7906l-4.366 4.903c-1.2086 1.3578-2.939 2.135-4.7567 2.1371zm-5.8213-9.8962 4.3208 4.8557c0.77569 0.8288 2.0767 0.87174 2.9056 0.0961 0.0327-0.0313 0.0648-0.0633 0.096-0.0961l4.3201-4.8557v-59.676h-11.643z" fill="#3e3442"/>
    <rect x="657.91" y="78.999" width="16.009" height="9.8234" enable-background="new    " fill="#edab7a" opacity=".6"/>
   </g>
   <g transform="matrix(.72766 0 0 .72766 343.69 -154.8)" fill="#3e3442">
    <path d="m453.83 337.8h-22c-1.657 0-3-1.343-3-3v-13.5c0-1.657 1.343-3 3-3h22c1.657 0 3 1.343 3 3v13.5c0 1.657-1.343 3-3 3zm-19-6h16v-7.5h-16z"/>
    <path d="m442.83 337.8c-1.657 0-3-1.343-3-3v-12.331c0-1.657 1.343-3 3-3s3 1.343 3 3v12.331c0 1.657-1.343 3-3 3z"/>
    <circle cx="442.83" cy="297.3" r="3.375"/>
    <circle cx="442.83" cy="311.3" r="3.375"/>
    <circle cx="442.83" cy="344.68" r="3.375"/>
   </g>
   <path d="m755.16 102.63-4.8448 5.4444c-1.3018 1.4633-3.5437 1.5943-5.007 0.29252-0.10333-0.0917-0.20083-0.18919-0.29252-0.29252l-4.8448-5.4444c-0.32817-0.36893-0.50936-0.84554-0.50936-1.3396v-59.908c0-1.1126 0.9023-2.0149 2.0149-2.0156h11.98c1.1133 0 2.0156 0.9023 2.0156 2.0156v59.908c-7.2e-4 0.49408-0.18337 0.97069-0.51227 1.3396z" fill="#d08770" stroke-width=".72766"/>
   <rect x="739.66" y="78.999" width="16.009" height="9.8234" enable-background="new    " fill="#edab7a" opacity=".6" stroke-width=".72766"/>
   <g transform="matrix(.72766 0 0 .72766 343.69 -154.8)" fill="#3e3442">
    <path d="m555.17 365.44c-2.501-1e-3 -4.883-1.069-6.546-2.937l-6-6.738c-0.94-1.056-1.459-2.421-1.459-3.835v-82.33c3e-3 -3.185 2.585-5.767 5.77-5.77h16.468c3.185 3e-3 5.767 2.585 5.771 5.77v82.33c0 1.414-0.52 2.779-1.46 3.835l-6 6.738c-1.663 1.867-4.044 2.936-6.544 2.937zm-8-13.6 5.937 6.673c1.065 1.139 2.851 1.2 3.99 0.135 0.047-0.043 0.091-0.088 0.135-0.135l5.938-6.673v-82.011h-16z"/>
    <circle cx="442.83" cy="283.3" r="3.375"/>
    <circle cx="555.17" cy="283.3" r="3.375"/>
    <circle cx="442.83" cy="270.2" r="3.375"/>
    <circle cx="555.17" cy="270.2" r="3.375"/>
   </g>
   <rect x="739.66" y="78.999" width="16.009" height="9.8234" enable-background="new    " fill="#edab7a" opacity=".6" stroke-width=".72766"/>
   <g transform="matrix(.72766 0 0 .72766 343.69 -154.8)" fill="#3e3442">
    <path d="m566.17 337.8h-22c-1.657 0-3-1.343-3-3v-13.5c0-1.657 1.343-3 3-3h22c1.657 0 3 1.343 3 3v13.5c0 1.657-1.343 3-3 3zm-19-6h16v-7.5h-16z"/>
    <path d="m555.17 337.8c-1.657 0-3-1.343-3-3v-12.331c0-1.657 1.343-3 3-3s3 1.343 3 3v12.331c0 1.657-1.343 3-3 3z"/>
    <circle cx="555.17" cy="297.3" r="3.375"/>
    <circle cx="555.17" cy="311.3" r="3.375"/>
    <circle cx="555.17" cy="344.68" r="3.375"/>
   </g>
   <g stroke-width=".72766">
    <path d="m691.88 118.71h30.201c2.9128 0 5.2741 2.3613 5.2741 5.2741v35.658c0 2.9128-2.3613 5.2741-5.2741 5.2741h-30.201c-2.9128 0-5.2741-2.3612-5.2741-5.2741v-35.658c0-2.9128 2.3612-5.2741 5.2741-5.2741z" fill="#826776"/>
    <rect x="686.61" y="118.71" width="40.749" height="20.091" enable-background="new    " fill="#725865" opacity=".32"/>
    <path d="m722.08 167.1h-30.198c-4.1164-4e-3 -7.4527-3.3407-7.4571-7.4571v-35.655c4e-3 -4.1164 3.3407-7.4527 7.4571-7.4578h30.198c4.1164 5e-3 7.452 3.3414 7.4571 7.4578v35.655c-5e-3 4.1164-3.3407 7.452-7.4571 7.4571zm-30.198-46.206c-1.7064 2e-3 -3.0896 1.3855-3.0911 3.0918v35.655c2e-3 1.7064 1.3847 3.0889 3.0911 3.0911h30.198c1.7064-2e-3 3.0889-1.3847 3.0911-3.0911v-35.655c-1e-3 -1.7064-1.3847-3.0896-3.0911-3.0918z" fill="#3e3442"/>
    <path d="m718.7 161.28h-2.183c-0.40166 0-0.72766-0.32599-0.72766-0.72766 0-0.40166 0.326-0.72766 0.72766-0.72766h2.183c0.40167 0 0.72766 0.326 0.72766 0.72766 0 0.40167-0.32599 0.72766-0.72766 0.72766zm-5.8213 0h-2.183c-0.40166 0-0.72766-0.32599-0.72766-0.72766 0-0.40166 0.326-0.72766 0.72766-0.72766h2.183c0.40167 0 0.72766 0.326 0.72766 0.72766 0 0.40167-0.32599 0.72766-0.72766 0.72766zm-5.8213 0h-2.183c-0.40166 0-0.72766-0.32599-0.72766-0.72766 0-0.40166 0.326-0.72766 0.72766-0.72766h2.183c0.40167 0 0.72766 0.326 0.72766 0.72766 0 0.40167-0.32599 0.72766-0.72766 0.72766zm-5.8213 0h-2.183c-0.40166 0-0.72766-0.32599-0.72766-0.72766 0-0.40166 0.326-0.72766 0.72766-0.72766h2.183c0.40167 0 0.72766 0.326 0.72766 0.72766 0 0.40167-0.32599 0.72766-0.72766 0.72766zm-5.8213 0h-2.183c-0.14844-0.37329-0.57194-0.5552-0.94523-0.40676-0.18555 0.0742-0.33254 0.22121-0.40676 0.40676-0.90302-1e-3 -1.6343-0.73275-1.6358-1.6358v-0.75603c0-0.40167 0.32599-0.72766 0.72766-0.72766s0.72766 0.32599 0.72766 0.72766v0.75603c0 0.0997 0.0808 0.18046 0.18046 0.18046 0.14844 0.37329 0.57194 0.55521 0.94523 0.40677 0.18556-0.0742 0.33254-0.22121 0.40676-0.40677h2.183c0.40167 0 0.72766 0.326 0.72766 0.72766 0 0.40167-0.32599 0.72766-0.72766 0.72766zm26.92-0.0357c-0.40167 7.3e-4 -0.72766-0.32527-0.72839-0.72693 0-0.32381 0.2132-0.60833 0.52391-0.69928 0.0771-0.0226 0.13025-0.0931 0.13098-0.17392v-1.0143c0-0.40167 0.32599-0.72766 0.72766-0.72766s0.72766 0.32599 0.72766 0.72766v1.0144c-3e-3 0.72548-0.48171 1.3636-1.1774 1.5703-0.0662 0.0196-0.13535 0.0298-0.20447 0.0298zm-31.362-5.2668c-0.40167 0-0.72766-0.326-0.72766-0.72766v-2.183c0-0.40167 0.32599-0.72766 0.72766-0.72766s0.72766 0.32599 0.72766 0.72766v2.183c0 0.40166-0.32599 0.72766-0.72766 0.72766h-7.3e-4zm32.017-0.25832c-0.40167 0-0.72766-0.326-0.72766-0.72766v-2.183c0-0.40167 0.32599-0.72766 0.72766-0.72766s0.72766 0.32599 0.72766 0.72766v2.183c0 0.40166-0.32599 0.72766-0.72766 0.72766 0 0-7.3e-4 0 0 0zm-32.017-5.563c-0.40167 0-0.72766-0.326-0.72766-0.72766v-2.183c0-0.40167 0.32599-0.72766 0.72766-0.72766s0.72766 0.32599 0.72766 0.72766v2.183c0 0.40166-0.32599 0.72766-0.72766 0.72766 0 0-7.3e-4 0 0 0zm32.017-0.25832c-0.40167 0-0.72766-0.326-0.72766-0.72766v-2.183c0-0.40167 0.32599-0.72766 0.72766-0.72766s0.72766 0.32599 0.72766 0.72766v2.183c0 0.40166-0.32599 0.72766-0.72766 0.72766 0 0-7.3e-4 0 0 0zm-32.017-5.563c-0.40167 0-0.72766-0.326-0.72766-0.72766v-2.183c0-0.40167 0.32599-0.72766 0.72766-0.72766s0.72766 0.32599 0.72766 0.72766v2.183c0 0.40166-0.32599 0.72766-0.72766 0.72766 0 0-7.3e-4 0 0 0zm32.017-0.25832c-0.40167 0-0.72766-0.326-0.72766-0.72766v-2.183c0-0.40167 0.32599-0.72766 0.72766-0.72766s0.72766 0.32599 0.72766 0.72766v2.183c0 0.40166-0.32599 0.72766-0.72766 0.72766 0 0-7.3e-4 0 0 0zm-32.017-5.563c-0.40167 0-0.72766-0.326-0.72766-0.72766v-2.183c0-0.40167 0.32599-0.72766 0.72766-0.72766s0.72766 0.32599 0.72766 0.72766v2.183c0 0.40166-0.32599 0.72766-0.72766 0.72766 0 0-7.3e-4 0 0 0zm32.017-0.25832c-0.40167 0-0.72766-0.326-0.72766-0.72766v-2.183c0-0.40167 0.32599-0.72766 0.72766-0.72766s0.72766 0.32599 0.72766 0.72766v2.183c0 0.40166-0.32599 0.72766-0.72766 0.72766 0 0-7.3e-4 0 0 0zm-32.017-5.563c-0.40167 0-0.72766-0.326-0.72766-0.72766v-2.183c0-0.40167 0.32599-0.72766 0.72766-0.72766s0.72766 0.32599 0.72766 0.72766v2.183c0 0.40166-0.32599 0.72766-0.72766 0.72766 0 0-7.3e-4 0 0 0zm32.017-0.25832c-0.40167 0-0.72766-0.326-0.72766-0.72766v-2.183c0-0.40167 0.32599-0.72766 0.72766-0.72766s0.72766 0.32599 0.72766 0.72766v2.183c0 0.40166-0.32599 0.72766-0.72766 0.72766 0 0-7.3e-4 0 0 0zm-32.017-5.563c-0.40167 0-0.72766-0.326-0.72766-0.72766v-2.1568l0.72766-0.0262 0.72766 0.0291v2.1539c0 0.40166-0.32599 0.72766-0.72766 0.72766 0 0-7.3e-4 0 0 0zm32.017-0.25832c-0.40167 0-0.72766-0.326-0.72766-0.72766v-1.8985c-0.12661-0.3893 0.0793-0.80843 0.46425-0.94596 0.36747-0.13243 0.7735 0.0575 0.90666 0.42568 2e-3 5e-3 4e-3 0.0102 5e-3 0.0153 0.0524 0.16299 0.0793 0.33254 0.0793 0.50354v1.8985c7.3e-4 0.40167-0.32454 0.72839-0.7262 0.72912zm-3.404-2.8073h-2.183c-0.40167 0-0.72766-0.32599-0.72766-0.72766 0-0.40166 0.32599-0.72766 0.72766-0.72766h2.183c0.40166 0 0.72766 0.326 0.72766 0.72766 0 0.40167-0.326 0.72766-0.72766 0.72766zm-5.8213 0h-2.183c-0.40167 0-0.72766-0.32599-0.72766-0.72766 0-0.40166 0.32599-0.72766 0.72766-0.72766h2.183c0.40166 0 0.72766 0.326 0.72766 0.72766 0 0.40167-0.326 0.72766-0.72766 0.72766zm-5.8213 0h-2.183c-0.40167 0-0.72766-0.32599-0.72766-0.72766 0-0.40166 0.32599-0.72766 0.72766-0.72766h2.183c0.40166 0 0.72766 0.326 0.72766 0.72766 0 0.40167-0.326 0.72766-0.72766 0.72766zm-5.8213 0h-2.183c-0.40167 0-0.72766-0.32599-0.72766-0.72766 0-0.40166 0.32599-0.72766 0.72766-0.72766h2.183c0.40166 0 0.72766 0.326 0.72766 0.72766 0 0.40167-0.326 0.72766-0.72766 0.72766zm-5.8213 0h-2.183c-0.40167 0-0.72766-0.32599-0.72766-0.72766 0-0.40166 0.32599-0.72766 0.72766-0.72766h2.183c0.40166 0 0.72766 0.326 0.72766 0.72766 0 0.40167-0.326 0.72766-0.72766 0.72766z" fill="#3e3442"/>
    <rect x="682.97" y="103.43" width="48.026" height="27.893" fill="#bf616a"/>
    <path d="m731 133.5h-48.026c-1.2057 0-2.183-0.97725-2.183-2.183v-27.894c0-1.2057 0.97725-2.183 2.183-2.183h48.026c1.2057 0 2.183 0.97725 2.183 2.183v27.894c0 1.2057-0.97725 2.183-2.183 2.183zm-45.843-4.366h43.66v-23.528h-43.66z" fill="#3e3442"/>
    <path d="m674 222.27h64.185c3.289 0 5.9559 2.6669 5.9559 5.9559v7.3e-4c0 3.289-2.6669 5.9559-5.9559 5.9559h-64.185c-3.289 0-5.9559-2.6669-5.9559-5.9559v-7.3e-4c0-3.289 2.6669-5.9559 5.9559-5.9559z" fill="#725865"/>
   </g>
   <g transform="matrix(.72766 0 0 .72766 343.69 -154.8)" fill="#3e3442">
    <path d="m542.15 536.56h-88.206c-5.626 0-10.186-4.56-10.186-10.186s4.56-10.186 10.186-10.186h88.206c5.626 0 10.186 4.56 10.186 10.186s-4.56 10.186-10.186 10.186zm-88.206-16.372c-3.416 0-6.186 2.77-6.186 6.186s2.77 6.186 6.186 6.186h88.206c3.416 0 6.186-2.77 6.186-6.186s-2.77-6.186-6.186-6.186z"/>
    <rect x="507.5" y="523.38" width="29.626" height="6"/>
    <rect x="483.17" y="523.38" width="14.877" height="6"/>
    <rect x="458.96" y="523.38" width="16.371" height="6"/>
   </g>
   <g stroke-width=".72766">
    <rect x="699.17" y="99.97" width="15.622" height="47.116" fill="#e5e9f0"/>
    <path d="m714.79 148.54h-15.622c-0.80407 0-1.4553-0.65125-1.4553-1.4553v-47.116c0-0.80406 0.65125-1.4553 1.4553-1.4553h15.622c0.80406 0 1.4553 0.65126 1.4553 1.4553v47.116c0 0.80407-0.65126 1.4553-1.4553 1.4553zm-14.167-2.9106h12.711v-44.205h-12.711z" fill="#3e3442"/>
    <path d="m707.37 141.88c-2.311 0-4.184-1.873-4.184-4.184 0-2.311 1.873-4.184 4.184-4.184s4.184 1.873 4.184 4.184c-3e-3 2.3096-1.8744 4.1811-4.184 4.184zm0-5.4574c-0.70292 0-1.2734 0.57048-1.2734 1.2734s0.57049 1.2734 1.2734 1.2734 1.2734-0.57049 1.2734-1.2734c-7.2e-4 -0.70292-0.57048-1.2727-1.2734-1.2734z" fill="#3e3442"/>
    <circle cx="761.2" cy="139.84" r="10.707" fill="#826776"/>
    <path d="m761.19 151.28c-6.3154-7.3e-4 -11.434-5.1198-11.434-11.435 7.2e-4 -6.3154 5.1198-11.434 11.435-11.434 6.3146 7.2e-4 11.434 5.1198 11.434 11.434-7e-3 6.3124-5.1227 11.428-11.435 11.434zm0-21.414c-5.5113 7.2e-4 -9.9791 4.4686-9.9784 9.9798 7.2e-4 5.5113 4.4686 9.9791 9.9798 9.9784 5.5113-7.3e-4 9.9784-4.4678 9.9784-9.9791-6e-3 -5.5091-4.4708-9.9733-9.9799-9.9791z" fill="#3e3442"/>
   </g>
   <polygon transform="matrix(.72766 0 0 .72766 343.69 -154.8)" points="567.8 411.03 573.78 395.93 579.75 411.03" fill="#a3be8c"/>
   <path d="m765.55 145.02h-8.6955c-0.40167 0-0.72766-0.32599-0.72766-0.72766 0-0.0917 0.0175-0.18192 0.0509-0.26705l4.3485-10.988c0.14844-0.37329 0.57121-0.55593 0.9445-0.40821 0.18628 0.0742 0.334 0.22193 0.40822 0.40821l4.3485 10.988c0.14771 0.37402-0.0357 0.79679-0.40968 0.94377-0.0851 0.0335-0.17536 0.0509-0.26705 0.0509zm-7.6259-1.4553h6.5555l-3.2745-8.2837z" fill="#3e3442" stroke-width=".72766"/>
  </g>
 </g>
</svg>
