<?xml version="1.0" encoding="UTF-8"?><svg version="1.1" id="Layer_1" xmlns="http://www.w3.org/2000/svg" xmlns:xlink="http://www.w3.org/1999/xlink" x="0px" y="0px" viewBox="0 0 1000 1000" enable-background="new 0 0 1000 1000" xml:space="preserve" width="250px" height="250px">
<g>
	<g id="Layer_1_1_">
		<g>
			<path fill="#00233A" d="M755.688,609.071c-30.452,0-57.421-12.03-82.432-36.761c-4.701-5.056-8.779-10.656-12.15-16.681
				c-18.396-31.543-23.837-68.993-15.179-104.467c13.206-54.734,43.177-157.752,95.534-232.738
				c6.15-8.284,17.852-10.014,26.136-3.864c1.47,1.092,2.772,2.393,3.864,3.864c52.36,74.991,82.329,178.006,95.533,232.738
				c8.659,35.474,3.218,72.924-15.178,104.467c-3.355,6.001-7.414,11.58-12.091,16.62c-25.068,24.79-52.041,36.821-82.491,36.822
				h-0.77C756.2,609.07,755.943,609.071,755.688,609.071z M756.458,601.071h0.028c0.258,0,0.517,0,0.775,0
				c28.605,0,53.021-10.961,76.775-34.451c4.199-4.559,7.845-9.599,10.86-15.015c17.356-29.762,22.488-65.097,14.316-98.567
				C846.141,398.854,816.505,296.918,764.9,223c-3.633-4.66-10.357-5.493-15.017-1.86c-0.694,0.541-1.319,1.166-1.86,1.86
				c-51.606,73.909-81.243,175.848-94.316,230.034c-8.171,33.47-3.039,68.805,14.317,98.567c3.03,5.439,6.695,10.5,10.918,15.075
				c23.7,23.429,48.114,34.39,76.717,34.391c0.26,0,0.515,0,0.775,0L756.458,601.071z"/>
			<path fill="#00233A" d="M756.462,536.923c-2.209,0.002-4.001-1.788-4.003-3.997c-0.001-1.287,0.617-2.496,1.661-3.248
				l53.422-38.506c1.792-1.292,4.292-0.886,5.584,0.906s0.886,4.292-0.906,5.584l-53.42,38.506
				C758.12,536.66,757.301,536.924,756.462,536.923z"/>
			<path fill="#00233A" d="M756.455,483.6c-0.886,0.001-1.747-0.294-2.447-0.838L706.5,445.946c-1.763-1.332-2.112-3.84-0.78-5.603
				c1.332-1.762,3.84-2.112,5.603-0.78c0.026,0.02,0.051,0.039,0.077,0.06l47.509,36.82c1.746,1.354,2.064,3.866,0.71,5.612
				c-0.758,0.978-1.926,1.549-3.163,1.549L756.455,483.6z"/>
			<path fill="#00233A" d="M756.459,751.5c-2.209,0-4-1.791-4-4V389.459c0-2.209,1.791-4,4-4s4,1.791,4,4V747.5
				C760.459,749.709,758.668,751.5,756.459,751.5z"/>
		</g>
		<g>
			<path fill="#00233A" d="M260.233,650.048h-1.1c-22.085,0-41.6-9.579-59.658-29.272c-3.432-4.074-6.38-8.533-8.784-13.287
				c-13.231-25.352-17.082-54.563-10.875-82.478c9.416-43.044,30.787-124.065,68.142-183.076c4.115-6.477,12.702-8.391,19.178-4.276
				c1.722,1.094,3.182,2.554,4.276,4.276c37.355,59.011,58.727,140.032,68.142,183.076c6.207,27.915,2.356,57.126-10.874,82.478
				c-2.392,4.73-5.321,9.168-8.73,13.227C301.838,640.468,282.316,650.048,260.233,650.048z M259.681,642.048h0.03
				c0.18,0,0.36,0,0.539,0c19.978,0,37.067-8.487,53.744-26.677c2.968-3.57,5.52-7.467,7.607-11.615
				c12.35-23.682,15.938-50.966,10.133-77.036c-9.3-42.529-30.387-122.532-67.086-180.506c-1.751-2.743-5.395-3.547-8.138-1.796
				c-0.722,0.461-1.335,1.074-1.796,1.796c-36.7,57.974-57.784,137.977-67.086,180.506c-5.806,26.071-2.217,53.354,10.134,77.037
				c2.099,4.172,4.669,8.089,7.661,11.675c16.621,18.129,33.713,26.616,53.69,26.616c0.179,0,0.358,0,0.538,0H259.681z"/>
			<path fill="#00233A" d="M259.678,598.657c-0.839,0-1.656-0.264-2.336-0.755l-38.052-27.427c-1.792-1.292-2.199-3.792-0.907-5.584
				c1.292-1.792,3.792-2.199,5.584-0.907l38.053,27.428c1.792,1.292,2.198,3.792,0.906,5.584
				C262.174,598.04,260.965,598.658,259.678,598.657L259.678,598.657z"/>
			<path fill="#00233A" d="M259.684,560.679c-2.209,0.002-4.001-1.788-4.003-3.997c-0.001-1.238,0.571-2.407,1.55-3.165
				l33.841-26.227c1.746-1.353,4.259-1.034,5.612,0.712c1.353,1.746,1.034,4.259-0.712,5.612l-33.841,26.227
				C261.431,560.385,260.57,560.679,259.684,560.679z"/>
			<path fill="#00233A" d="M398.323,675.316h-51.192c-21.028-0.023-38.069-17.064-38.092-38.092v-15.075c0-2.209,1.791-4,4-4
				s4,1.791,4,4v15.075c0.019,16.612,13.48,30.073,30.092,30.092h51.192c16.612-0.019,30.074-13.48,30.093-30.092v-102
				c-0.019-16.612-13.481-30.074-30.093-30.093h-51.192c-5.013-0.001-9.948,1.25-14.356,3.638c-1.941,1.055-4.37,0.338-5.425-1.603
				s-0.338-4.37,1.603-5.425c5.581-3.025,11.829-4.61,18.178-4.61h51.192c21.028,0.024,38.069,17.065,38.093,38.093v102
				C436.392,658.252,419.351,675.293,398.323,675.316z"/>
			<path fill="#00233A" d="M372.726,650.048c-1.005,0.001-1.973-0.378-2.71-1.06l-25.323-23.349
				c-1.637-1.483-1.762-4.013-0.279-5.65c1.483-1.637,4.013-1.762,5.65-0.279c0.018,0.016,0.035,0.032,0.052,0.048l25.322,23.349
				c1.624,1.497,1.727,4.028,0.23,5.652C374.91,649.581,373.844,650.048,372.726,650.048z"/>
			<path fill="#00233A" d="M372.729,611.324c-2.209,0.002-4.002-1.787-4.004-3.996c-0.001-1.574,0.92-3.002,2.355-3.65
				l28.036-12.666c2.013-0.91,4.383-0.015,5.293,1.999c0.91,2.013,0.015,4.383-1.999,5.292l-28.036,12.666
				C373.857,611.203,373.296,611.324,372.729,611.324z"/>
			<path fill="#00233A" d="M259.681,751.5c-2.209,0-4-1.791-4-4V492.469c0-2.209,1.791-4,4-4s4,1.791,4,4V747.5
				C263.681,749.709,261.89,751.5,259.681,751.5z"/>
			<path fill="#00233A" d="M372.727,751.5c-2.209,0-4-1.791-4-4V567.531c0-2.209,1.791-4,4-4s4,1.791,4,4V747.5
				C376.727,749.709,374.936,751.5,372.727,751.5z"/>
			<path fill="#00233A" d="M270.676,228.328c-0.297,0-0.593-0.034-0.882-0.1l-21.7-4.882c-2.155-0.485-3.509-2.626-3.024-4.781
				c0.485-2.155,2.626-3.509,4.781-3.024l0,0l18.065,4.065l4.853-16.081c0.638-2.115,2.871-3.312,4.986-2.673
				c2.115,0.638,3.312,2.871,2.673,4.985l0,0l-5.928,19.646C273.991,227.17,272.438,228.326,270.676,228.328z"/>
			<path fill="#00233A" d="M356.254,197.4c-1.23,0.002-2.392-0.564-3.15-1.532l-9.743-12.429c-1.363-1.74-1.057-4.255,0.682-5.617
				s4.255-1.057,5.617,0.682L357.1,188l9-6.063c1.832-1.235,4.318-0.751,5.553,1.081s0.751,4.318-1.081,5.553l0,0l-12.082,8.144
				C357.83,197.162,357.051,197.4,356.254,197.4z"/>
			<path fill="#00233A" d="M454.045,196.022c-0.448,0-0.892-0.076-1.315-0.223l-14.914-5.192c-2.086-0.727-3.189-3.007-2.462-5.093
				c0.727-2.086,3.007-3.189,5.093-2.462l0,0l11.4,3.968l4.291-9.962c0.874-2.029,3.227-2.965,5.257-2.091
				c2.029,0.874,2.965,3.227,2.091,5.256l0,0l-5.767,13.377C457.088,195.069,455.644,196.021,454.045,196.022z"/>
		</g>
		<path fill="#9BA589" d="M656.024,327.779H648.8c-5.005-0.144-9.186-3.856-9.924-8.808c-1.745-16.649-1.745-33.435,0-50.084
			c0.738-4.952,4.919-8.664,9.924-8.808h7.225c5.005,0.144,9.187,3.856,9.925,8.808c1.745,16.649,1.745,33.435,0,50.084
			C665.212,323.924,661.029,327.635,656.024,327.779z"/>
		<path fill="#3E3442" d="M656.024,332.779H648.8c-7.523-0.173-13.819-5.758-14.889-13.206c-1.785-17.022-1.789-34.184-0.009-51.207
			c1.042-7.48,7.349-13.105,14.9-13.287h7.225c7.523,0.173,13.819,5.758,14.889,13.207c1.784,17.022,1.787,34.184,0.009,51.206
			C669.882,326.973,663.575,332.597,656.024,332.779z M648.8,265.079c-2.476,0.141-4.53,1.967-4.961,4.41
			c-1.698,16.276-1.695,32.685,0.009,48.961c0.459,2.41,2.503,4.196,4.952,4.329h7.224c2.477-0.142,4.53-1.968,4.961-4.411
			c1.697-16.276,1.695-32.685-0.008-48.96c-0.46-2.41-2.503-4.196-4.953-4.329H648.8z"/>
		<path fill="#9BA589" d="M347.419,327.779H340.2c-5.005-0.144-9.187-3.856-9.925-8.808c-1.745-16.649-1.745-33.435,0-50.084
			c0.738-4.952,4.92-8.664,9.925-8.808h7.224c5.005,0.144,9.187,3.856,9.925,8.808c1.745,16.649,1.745,33.435,0,50.084
			C356.611,323.925,352.426,327.637,347.419,327.779z"/>
		<path fill="#3E3442" d="M347.419,332.779h-7.225c-7.522-0.174-13.818-5.758-14.888-13.206
			c-1.785-17.022-1.789-34.184-0.009-51.207c1.042-7.48,7.349-13.105,14.9-13.287h7.225c7.523,0.173,13.819,5.758,14.889,13.206
			c1.785,17.022,1.789,34.184,0.009,51.207C361.278,326.973,354.97,332.598,347.419,332.779z M340.194,265.079
			c-2.476,0.142-4.529,1.968-4.96,4.41c-1.699,16.276-1.695,32.685,0.009,48.961c0.459,2.409,2.502,4.195,4.951,4.329h7.225
			c2.476-0.142,4.531-1.967,4.962-4.41c1.698-16.276,1.694-32.685-0.009-48.961c-0.46-2.41-2.503-4.196-4.953-4.329H340.194z"/>
		<path fill="#3E3442" d="M359.469,694.866c-0.575,0-1.147-0.099-1.688-0.294l-23.775-8.532
			c-36.485-13.094-59.218-57.459-52.878-103.2l8.279-59.715c3.023-21.806,18.572-37.632,36.973-37.632h33.09c2.761,0,5,2.239,5,5
			v199.37c0,2.761-2.239,5-5,5L359.469,694.866z M326.38,495.5c-13.354,0-24.738,12.2-27.068,29l-8.278,59.715
			c-5.7,41.153,14.221,80.882,46.35,92.412l17.086,6.132V495.5H326.38z"/>
		<path fill="#3E3442" d="M291.47,599.617c-5.753,0.005-11.499-0.378-17.2-1.144c-2.553-0.346-4.425-2.575-4.325-5.149
			c0.168-4.34,0.536-8.583,1.095-12.61L279.315,521c3.868-27.89,23.662-48.133,47.066-48.133h43.327c2.761,0,5,2.239,5,5v93.251
			c0,1.783-0.95,3.431-2.492,4.325c-7.973,4.523-16.192,8.596-24.62,12.2l0,0C329.916,595.471,310.805,599.548,291.47,599.617z
			 M280.2,589.09c15.611,1.48,38.092,0.423,63.4-10.616l0,0c8.086-3.527,15.171-6.974,21.11-10.269v-85.339h-38.329
			c-18.358,0-33.986,16.615-37.16,39.506l-8.279,59.715C280.628,584.352,280.379,586.694,280.2,589.09z"/>
		<path fill="#3E3442" d="M359.469,694.866c-0.575,0-1.147-0.099-1.688-0.294l-23.775-8.532
			c-36.485-13.094-59.218-57.459-52.878-103.2l8.279-59.715c3.023-21.806,18.572-37.632,36.973-37.632h33.09c2.761,0,5,2.239,5,5
			v199.37c0,2.761-2.239,5-5,5L359.469,694.866z M326.38,495.5c-13.354,0-24.738,12.2-27.068,29l-8.278,59.715
			c-5.7,41.153,14.221,80.882,46.35,92.412l17.086,6.132V495.5H326.38z"/>
		<path fill="#F26161" d="M359.47,689.866l-23.77-8.532c-34.287-12.3-55.633-54.385-49.614-97.8l8.279-59.715
			c2.668-19.247,16.192-33.319,32.02-33.319h33.09L359.47,689.866z"/>
		<path opacity="0.3" fill="#994A4A" enable-background="new    " d="M294.36,527.815l-8.279,59.715
			c-0.864,6.266-1.169,12.596-0.912,18.916c2.064,0.1,4.136,0.161,6.217,0.161l0,0c19.777-0.056,39.327-4.216,57.414-12.217
			c3.763-1.641,7.321-3.269,10.675-4.882V494.5H326.38C310.552,494.5,297.028,508.568,294.36,527.815z"/>
		<path fill="#3E3442" d="M359.469,694.866c-0.575,0-1.147-0.099-1.688-0.294l-23.775-8.532
			c-36.485-13.094-59.218-57.459-52.878-103.2l8.279-59.715c3.023-21.806,18.572-37.632,36.973-37.632h33.09c2.761,0,5,2.239,5,5
			v199.37c0,2.761-2.239,5-5,5L359.469,694.866z M326.38,495.5c-13.354,0-24.738,12.2-27.068,29l-8.278,59.715
			c-5.7,41.153,14.221,80.882,46.35,92.412l17.086,6.132V495.5H326.38z"/>
		<path fill="#604957" d="M345.6,583.057c8.255-3.523,16.305-7.509,24.111-11.939v-93.252h-43.33
			c-20.882,0-38.593,18.429-42.113,43.82l-8.279,59.714c-0.562,4.056-0.895,8.1-1.05,12.116
			C290.422,595.616,316.191,595.883,345.6,583.057z"/>
		<path opacity="0.26" fill="#725865" enable-background="new    " d="M282.4,586.975l8.278-59.715
			c3.521-25.391,21.232-43.82,42.113-43.82h36.917v-5.574h-43.327c-20.882,0-38.593,18.429-42.113,43.82l-8.279,59.714
			c-0.562,4.056-0.895,8.1-1.05,12.116c2.054,0.279,4.295,0.523,6.7,0.711C281.818,591.816,282.064,589.4,282.4,586.975z"/>
		<path fill="#3E3442" d="M291.47,599.617c-5.753,0.005-11.499-0.378-17.2-1.144c-2.553-0.346-4.425-2.575-4.325-5.149
			c0.168-4.34,0.536-8.583,1.095-12.61L279.315,521c3.868-27.89,23.662-48.133,47.066-48.133h43.327c2.761,0,5,2.239,5,5v93.251
			c0,1.783-0.95,3.431-2.492,4.325c-7.973,4.523-16.192,8.596-24.62,12.2l0,0C329.916,595.471,310.805,599.548,291.47,599.617z
			 M280.2,589.09c15.611,1.48,38.092,0.423,63.4-10.616l0,0c8.086-3.527,15.171-6.974,21.11-10.269v-85.339h-38.329
			c-18.358,0-33.986,16.615-37.16,39.506l-8.279,59.715C280.628,584.352,280.379,586.694,280.2,589.09z"/>
		<path fill="#3E3442" d="M291.386,586.107c-1.673,0-3.376-0.036-5.062-0.107c-0.828-0.035-1.472-0.735-1.436-1.563
			c0.035-0.828,0.735-1.472,1.564-1.437c2.359,0.1,4.721,0.127,7.058,0.086c0.821,0.003,1.494,0.653,1.526,1.474
			c0.014,0.828-0.645,1.511-1.473,1.526C292.836,586.101,292.111,586.108,291.386,586.107z M300.525,585.76
			c-0.828,0.031-1.525-0.616-1.556-1.444c-0.031-0.828,0.616-1.525,1.444-1.556c1.625-0.123,3.278-0.284,4.914-0.476
			c0.821-0.108,1.575,0.47,1.683,1.291c0.108,0.821-0.47,1.575-1.291,1.683c-0.013,0.002-0.027,0.003-0.04,0.005
			c-1.678,0.2-3.373,0.362-5.039,0.489C300.6,585.759,300.563,585.76,300.525,585.76z M312.425,584.26
			c-0.828-0.002-1.499-0.674-1.497-1.503c0.001-0.726,0.523-1.348,1.238-1.474c1.627-0.288,3.258-0.61,4.847-0.958
			c0.81-0.177,1.609,0.336,1.786,1.146s-0.336,1.609-1.146,1.786l0,0c-1.628,0.355-3.3,0.684-4.965,0.979
			C312.601,584.253,312.513,584.261,312.425,584.26L312.425,584.26z M324.125,581.608c-0.828-0.001-1.499-0.674-1.498-1.502
			c0.001-0.673,0.45-1.262,1.098-1.443c1.593-0.443,3.187-0.919,4.737-1.415c0.785-0.265,1.636,0.157,1.901,0.942
			c0.265,0.785-0.157,1.636-0.942,1.901c-0.015,0.005-0.03,0.01-0.044,0.014c-1.586,0.508-3.217,1-4.847,1.449
			c-0.131,0.036-0.267,0.055-0.403,0.055L324.125,581.608z M286.525,579.738c-0.07,0-0.139-0.005-0.208-0.014
			c-0.821-0.114-1.394-0.871-1.28-1.692c0,0,0,0,0,0l0.687-4.953c0.114-0.821,0.871-1.394,1.692-1.28
			c0.821,0.114,1.394,0.871,1.28,1.692l0,0l-0.687,4.953C287.907,579.185,287.273,579.738,286.525,579.738L286.525,579.738z
			 M335.525,577.866c-0.828-0.004-1.497-0.678-1.494-1.506c0.003-0.618,0.384-1.172,0.962-1.394c1.52-0.577,3.064-1.2,4.589-1.842
			c0.763-0.323,1.644,0.034,1.966,0.797s-0.034,1.644-0.797,1.966c-1.56,0.659-3.139,1.293-4.694,1.883
			c-0.169,0.064-0.349,0.096-0.53,0.096L335.525,577.866z M346.572,573.171c-0.828,0.001-1.5-0.671-1.501-1.499
			c0-0.588,0.343-1.122,0.878-1.366c1.547-0.705,3.049-1.405,4.507-2.1c0.741-0.371,1.642-0.07,2.013,0.671
			c0.371,0.741,0.07,1.642-0.671,2.013c-0.017,0.008-0.033,0.016-0.05,0.024c-1.473,0.703-2.992,1.411-4.555,2.125
			c-0.194,0.089-0.405,0.134-0.619,0.134L346.572,573.171z M357.372,567.951c-0.828,0.001-1.501-0.67-1.501-1.499
			c0-0.562,0.313-1.077,0.812-1.334c0.513-0.267,1.019-0.53,1.519-0.791v-1.465c0-0.828,0.672-1.5,1.5-1.5s1.5,0.672,1.5,1.5v2.368
			c-0.001,0.556-0.308,1.066-0.8,1.325c-0.765,0.407-1.547,0.816-2.348,1.229c-0.209,0.109-0.441,0.166-0.676,0.168L357.372,567.951
			z M288.172,567.851c-0.07,0-0.139-0.005-0.208-0.015c-0.821-0.114-1.394-0.871-1.28-1.692c0,0,0,0,0,0l0.687-4.952
			c0.114-0.821,0.871-1.394,1.692-1.28c0.821,0.114,1.394,0.871,1.28,1.692l-0.687,4.953c-0.102,0.741-0.735,1.294-1.483,1.296
			L288.172,567.851z M359.707,557.361c-0.828,0-1.5-0.672-1.5-1.5v-5c0-0.828,0.672-1.5,1.5-1.5s1.5,0.672,1.5,1.5v5
			c0.001,0.828-0.67,1.501-1.498,1.502c0,0-0.001,0-0.001,0L359.707,557.361z M289.82,555.961c-0.07,0-0.139-0.005-0.208-0.015
			c-0.82-0.114-1.393-0.871-1.28-1.691l0.687-4.953c0.098-0.823,0.844-1.41,1.667-1.312c0.823,0.098,1.41,0.844,1.312,1.667
			c-0.002,0.019-0.005,0.038-0.008,0.058l-0.686,4.953c-0.1,0.743-0.733,1.298-1.483,1.3L289.82,555.961z M359.707,545.361
			c-0.828,0-1.5-0.672-1.5-1.5v-5c0-0.828,0.672-1.5,1.5-1.5s1.5,0.672,1.5,1.5v5c0.001,0.828-0.67,1.501-1.498,1.502
			c0,0-0.001,0-0.001,0L359.707,545.361z M291.468,544.078c-0.07,0-0.139-0.005-0.208-0.015c-0.82-0.114-1.393-0.871-1.28-1.691
			l0.686-4.952c0.114-0.821,0.871-1.394,1.692-1.28c0.821,0.114,1.394,0.871,1.28,1.692l-0.686,4.952
			c-0.102,0.741-0.735,1.294-1.483,1.296L291.468,544.078z M359.707,533.361c-0.828,0-1.5-0.672-1.5-1.5v-5
			c0-0.828,0.672-1.5,1.5-1.5s1.5,0.672,1.5,1.5v5c0.001,0.828-0.67,1.501-1.498,1.502c0,0-0.001,0-0.001,0L359.707,533.361z
			 M293.116,532.192c-0.07,0-0.139-0.005-0.208-0.014c-0.821-0.114-1.394-0.871-1.28-1.692c0,0,0,0,0,0l0.686-4.953
			c0.114-0.821,0.871-1.394,1.692-1.28c0.821,0.114,1.394,0.871,1.28,1.692L294.6,530.9c-0.103,0.741-0.735,1.293-1.483,1.294
			L293.116,532.192z M359.707,521.361c-0.828,0-1.5-0.672-1.5-1.5v-5c0-0.828,0.672-1.5,1.5-1.5s1.5,0.672,1.5,1.5v5
			c0.001,0.828-0.67,1.501-1.498,1.502c0,0-0.001,0-0.001,0L359.707,521.361z M294.928,520.333c-0.828,0.001-1.501-0.67-1.502-1.498
			c0-0.109,0.012-0.217,0.035-0.323c0.37-1.684,0.821-3.354,1.341-4.965c0.255-0.788,1.1-1.221,1.888-0.966
			c0.788,0.255,1.221,1.1,0.967,1.888c-0.491,1.519-0.916,3.1-1.265,4.685c-0.15,0.688-0.759,1.18-1.463,1.181L294.928,520.333z
			 M359.707,509.361c-0.828,0-1.5-0.672-1.5-1.5v-5c0-0.828,0.672-1.5,1.5-1.5s1.5,0.672,1.5,1.5v5
			c0.001,0.828-0.67,1.501-1.498,1.502c0,0-0.001,0-0.001,0L359.707,509.361z M298.844,509.022
			c-0.229,0.001-0.456-0.052-0.661-0.154c-0.743-0.366-1.05-1.265-0.684-2.008c0.759-1.547,1.606-3.049,2.535-4.5
			c0.434-0.706,1.358-0.926,2.063-0.493c0.706,0.434,0.926,1.358,0.493,2.063c-0.01,0.016-0.02,0.032-0.031,0.048
			c-0.868,1.357-1.658,2.762-2.368,4.208c-0.253,0.513-0.775,0.837-1.346,0.837L298.844,509.022z M305.565,499.132
			c-0.828,0-1.5-0.671-1.5-1.5c0-0.378,0.143-0.743,0.4-1.02c1.18-1.276,2.45-2.466,3.8-3.56c0.645-0.52,1.589-0.419,2.109,0.225
			s0.419,1.589-0.225,2.109c-1.24,1.004-2.406,2.095-3.489,3.265c-0.282,0.306-0.678,0.481-1.094,0.482L305.565,499.132z
			 M359.707,497.361c-0.828,0-1.5-0.672-1.5-1.5v-5c0-0.828,0.672-1.5,1.5-1.5s1.5,0.672,1.5,1.5l0,0v5
			c0.001,0.828-0.67,1.501-1.498,1.502c0,0-0.001,0-0.001,0L359.707,497.361z M315.107,491.976
			c-0.828,0.001-1.501-0.669-1.502-1.498c-0.001-0.578,0.331-1.106,0.852-1.355c1.586-0.763,3.24-1.377,4.939-1.835
			c0.801-0.214,1.624,0.261,1.838,1.062c0.214,0.801-0.261,1.624-1.062,1.838l0,0c-1.52,0.41-2.999,0.959-4.417,1.642
			c-0.202,0.097-0.423,0.148-0.647,0.148L315.107,491.976z M355.707,489.364h-5c-0.828,0-1.5-0.672-1.5-1.5s0.672-1.5,1.5-1.5h5
			c0.828,0,1.5,0.672,1.5,1.5S356.535,489.364,355.707,489.364z M343.707,489.364h-5c-0.828,0-1.5-0.672-1.5-1.5s0.672-1.5,1.5-1.5
			h5c0.828,0,1.5,0.672,1.5,1.5S344.535,489.364,343.707,489.364z M331.707,489.364h-5c-0.828,0-1.5-0.672-1.5-1.5
			s0.672-1.5,1.5-1.5h5c0.828,0,1.5,0.672,1.5,1.5S332.535,489.364,331.707,489.364z"/>
		<path fill="#3E3442" d="M638.424,694.866c-2.761,0-5-2.239-5-5V490.5c0-2.761,2.239-5,5-5h33.09
			c18.4,0,33.95,15.826,36.972,37.632l8.279,59.715c6.341,45.738-16.391,90.1-52.877,103.2l-23.776,8.532
			C639.57,694.772,638.999,694.869,638.424,694.866z M643.424,495.496V682.76l17.087-6.132
			c32.128-11.53,52.054-51.259,46.348-92.412l-8.277-59.716c-2.33-16.807-13.714-29-27.068-29L643.424,495.496z"/>
		<path fill="#3E3442" d="M706.423,599.617c-19.334-0.07-38.444-4.148-56.123-11.977c-8.428-3.604-16.647-7.677-24.619-12.2
			c-1.542-0.894-2.492-2.542-2.492-4.325v-93.249c0-2.761,2.239-5,5-5h43.326c23.4,0,43.2,20.243,47.065,48.133l8.279,59.715
			c0.558,4.027,0.926,8.27,1.094,12.61c0.1,2.574-1.772,4.803-4.324,5.149C717.926,599.24,712.177,599.622,706.423,599.617z
			 M633.187,568.205c5.936,3.294,13.022,6.742,21.109,10.269l0,0c25.308,11.038,47.788,12.095,63.4,10.616
			c-0.18-2.4-0.429-4.738-0.743-7l-8.279-59.715c-3.174-22.891-18.8-39.506-37.16-39.506h-38.327L633.187,568.205z"/>
		<path fill="#3E3442" d="M638.424,694.866c-2.761,0-5-2.239-5-5V490.5c0-2.761,2.239-5,5-5h33.09
			c18.4,0,33.95,15.826,36.972,37.632l8.279,59.715c6.341,45.738-16.391,90.1-52.877,103.2l-23.776,8.532
			C639.57,694.772,638.999,694.869,638.424,694.866z M643.424,495.496V682.76l17.087-6.132
			c32.128-11.53,52.054-51.259,46.348-92.412l-8.277-59.716c-2.33-16.807-13.714-29-27.068-29L643.424,495.496z"/>
		<path fill="#F26161" d="M638.424,689.866l23.775-8.532c34.287-12.3,55.633-54.385,49.614-97.8l-8.279-59.715
			c-2.668-19.247-16.192-33.319-32.021-33.319h-33.089V689.866z"/>
		<path opacity="0.3" fill="#994A4A" enable-background="new    " d="M711.813,587.53l-8.279-59.715
			c-2.668-19.247-16.192-33.319-32.021-33.319h-33.089v95.012c3.353,1.612,6.912,3.239,10.675,4.882
			c18.085,8,37.634,12.16,57.409,12.217c2.081,0,4.153-0.065,6.217-0.161C712.982,600.126,712.677,593.796,711.813,587.53z"/>
		<path fill="#3E3442" d="M638.424,694.866c-2.761,0-5-2.239-5-5V490.5c0-2.761,2.239-5,5-5h33.09
			c18.4,0,33.95,15.826,36.972,37.632l8.279,59.715c6.341,45.738-16.391,90.1-52.877,103.2l-23.776,8.532
			C639.57,694.772,638.999,694.869,638.424,694.866z M643.424,495.496V682.76l17.087-6.132
			c32.128-11.53,52.054-51.259,46.348-92.412l-8.277-59.716c-2.33-16.807-13.714-29-27.068-29L643.424,495.496z"/>
		<path fill="#604957" d="M652.3,583.057c-8.255-3.523-16.305-7.509-24.111-11.939v-93.252h43.327
			c20.882,0,38.592,18.429,42.113,43.82L721.9,581.4c0.563,4.056,0.9,8.1,1.051,12.116C707.472,595.616,681.7,595.883,652.3,583.057
			z"/>
		<path opacity="0.26" fill="#725865" enable-background="new    " d="M664.513,483.289c20.882,0,38.592,18.112,42.113,43.066
			l8.278,58.689c0.388,2.749,0.66,5.49,0.847,8.222c2.594-0.189,5.006-0.443,7.2-0.736c-0.149-3.984-0.5-7.959-1.051-11.908
			l-8.278-58.689c-3.521-24.955-21.231-43.067-42.113-43.067h-43.323v4.423L664.513,483.289z"/>
		<path fill="#3E3442" d="M706.644,586.107c-1.737-0.006-3.481-0.033-5.2-0.1c-0.828-0.035-1.471-0.734-1.436-1.561c0,0,0,0,0-0.001
			c0.018-0.812,0.691-1.456,1.503-1.438c0.019,0,0.039,0.001,0.058,0.002c1.673,0.07,3.369,0.1,5.07,0.1
			c0.671,0,1.34-0.006,2.007-0.019c0.821,0.003,1.495,0.651,1.529,1.472c0.016,0.828-0.643,1.512-1.471,1.528c0,0,0,0-0.001,0
			C708.021,586.1,707.332,586.107,706.644,586.107z M694.53,585.507c-0.05,0-0.1-0.002-0.15-0.008
			c-1.677-0.167-3.367-0.37-5.026-0.606c-0.821-0.107-1.401-0.86-1.294-1.681c0.107-0.821,0.86-1.401,1.681-1.294
			c0.011,0.002,0.023,0.003,0.034,0.005c1.617,0.229,3.265,0.428,4.9,0.592c0.824,0.085,1.423,0.823,1.338,1.646
			C695.935,584.923,695.295,585.503,694.53,585.507L694.53,585.507z M682.67,583.73c-0.101,0.001-0.201-0.009-0.3-0.029
			c-1.635-0.327-3.3-0.694-4.94-1.093c-0.805-0.195-1.3-1.006-1.105-1.812c0.195-0.805,1.006-1.3,1.812-1.104
			c1.6,0.389,3.226,0.748,4.821,1.068c0.812,0.165,1.336,0.957,1.171,1.769c-0.141,0.697-0.753,1.198-1.463,1.201L682.67,583.73z
			 M711.757,582.54c-0.748-0.001-1.381-0.553-1.484-1.294l-0.686-4.952c-0.13-0.818,0.429-1.587,1.247-1.716
			c0.818-0.13,1.587,0.429,1.716,1.247c0.003,0.019,0.006,0.038,0.008,0.058l0.686,4.952c0.113,0.82-0.459,1.577-1.279,1.691
			c-0.069,0.011-0.138,0.017-0.208,0.018L711.757,582.54z M671.035,580.814c-0.147,0-0.293-0.021-0.434-0.063
			c-1.6-0.483-3.216-1-4.811-1.554c-0.788-0.256-1.218-1.103-0.962-1.891s1.103-1.218,1.891-0.962
			c0.016,0.005,0.032,0.011,0.048,0.017c1.557,0.535,3.139,1.046,4.7,1.517c0.793,0.239,1.242,1.076,1.002,1.87
			C672.278,580.381,671.695,580.814,671.035,580.814L671.035,580.814z M659.722,576.828c-0.192,0-0.383-0.037-0.561-0.109
			c-1.158-0.467-2.313-0.952-3.466-1.456l-1.176-0.516c-0.759-0.333-1.103-1.218-0.77-1.977c0.333-0.759,1.218-1.103,1.977-0.77l0,0
			l1.17,0.512c1.125,0.491,2.255,0.965,3.388,1.424c0.768,0.31,1.14,1.184,0.83,1.952
			C660.885,576.456,660.334,576.827,659.722,576.828L659.722,576.828z M648.746,571.982c-0.219,0-0.436-0.048-0.635-0.141
			c-1.56-0.733-3.072-1.457-4.535-2.172c-0.743-0.367-1.048-1.266-0.681-2.009c0.366-0.74,1.261-1.046,2.003-0.684
			c1.446,0.709,2.941,1.425,4.485,2.148c0.75,0.352,1.073,1.245,0.721,1.995C649.857,571.646,649.328,571.982,648.746,571.982z
			 M710.109,570.654c-0.748-0.001-1.38-0.553-1.483-1.294l-0.687-4.953c-0.089-0.824,0.507-1.563,1.331-1.652
			c0.79-0.085,1.51,0.461,1.64,1.245l0.687,4.953c0.114,0.821-0.459,1.578-1.28,1.692c0,0,0,0,0,0
			c-0.069,0.008-0.138,0.012-0.208,0.012L710.109,570.654z M638.187,566.525c-0.828,0-1.5-0.672-1.5-1.5v-5
			c0-0.828,0.672-1.5,1.5-1.5s1.5,0.672,1.5,1.5v5c0.002,0.828-0.669,1.501-1.497,1.503c-0.001,0-0.002,0-0.003,0L638.187,566.525z
			 M708.462,558.768c-0.748-0.001-1.38-0.553-1.483-1.294l-0.687-4.953c-0.098-0.823,0.49-1.569,1.312-1.667
			c0.8-0.095,1.533,0.459,1.659,1.255l0.686,4.952c0.114,0.82-0.459,1.578-1.279,1.692c-0.069,0.011-0.138,0.017-0.208,0.018
			V558.768z M638.187,554.525c-0.828,0-1.5-0.672-1.5-1.5v-5c0-0.828,0.672-1.5,1.5-1.5s1.5,0.672,1.5,1.5v5
			c0.002,0.828-0.669,1.501-1.497,1.503c-0.001,0-0.002,0-0.003,0L638.187,554.525z M706.813,546.882
			c-0.748-0.001-1.38-0.553-1.483-1.294l-0.686-4.953c-0.141-0.816,0.407-1.592,1.224-1.733c0.816-0.14,1.592,0.407,1.733,1.224
			c0.006,0.032,0.01,0.064,0.013,0.097l0.687,4.953c0.113,0.82-0.46,1.577-1.28,1.691c-0.069,0.011-0.138,0.017-0.208,0.018
			L706.813,546.882z M638.187,542.525c-0.828,0-1.5-0.672-1.5-1.5v-5c0-0.828,0.672-1.5,1.5-1.5s1.5,0.672,1.5,1.5v5
			c0.002,0.828-0.669,1.501-1.497,1.503c-0.001,0-0.002,0-0.003,0L638.187,542.525z M705.166,535
			c-0.748-0.001-1.38-0.553-1.483-1.294L703,528.751c-0.098-0.823,0.49-1.569,1.312-1.667c0.8-0.095,1.533,0.459,1.659,1.255
			l0.686,4.953c0.113,0.82-0.459,1.577-1.279,1.691C705.308,534.994,705.237,534.999,705.166,535z M638.187,530.53
			c-0.828,0-1.5-0.672-1.5-1.5v-5c0-0.828,0.672-1.5,1.5-1.5s1.5,0.672,1.5,1.5v5c-0.001,0.828-0.672,1.498-1.5,1.498V530.53z
			 M703.499,523.116c-0.733-0.001-1.358-0.532-1.478-1.255c-0.265-1.6-0.606-3.2-1.014-4.751c-0.234-0.795,0.22-1.629,1.015-1.863
			c0.795-0.234,1.629,0.22,1.863,1.015c0.008,0.028,0.016,0.056,0.022,0.085c0.431,1.64,0.792,3.331,1.071,5.024
			c0.135,0.817-0.417,1.589-1.234,1.725c-0.081,0.012-0.162,0.018-0.244,0.018L703.499,523.116z M638.187,518.53
			c-0.828,0-1.5-0.672-1.5-1.5v-5c0-0.828,0.672-1.5,1.5-1.5s1.5,0.672,1.5,1.5v5c-0.001,0.828-0.672,1.498-1.5,1.498V518.53z
			 M700.221,511.602c-0.605,0-1.15-0.362-1.384-0.92c-0.624-1.488-1.326-2.941-2.105-4.354c-0.385-0.733-0.103-1.64,0.63-2.026
			c0.712-0.374,1.591-0.121,1.995,0.575c0.832,1.507,1.581,3.057,2.246,4.645c0.32,0.764-0.039,1.643-0.803,1.963
			C700.616,511.562,700.42,511.602,700.221,511.602L700.221,511.602z M638.187,506.53c-0.828,0-1.5-0.672-1.5-1.5v-5
			c0-0.828,0.672-1.5,1.5-1.5s1.5,0.672,1.5,1.5l0,0v5c-0.001,0.828-0.672,1.498-1.5,1.498V506.53z M694.175,501.282
			c-0.457,0-0.889-0.208-1.174-0.565c-0.996-1.251-2.075-2.434-3.23-3.541c-0.599-0.572-0.621-1.522-0.049-2.121
			c0.572-0.599,1.522-0.621,2.121-0.049c1.251,1.201,2.42,2.484,3.5,3.84c0.517,0.647,0.411,1.591-0.236,2.108
			c-0.266,0.212-0.596,0.328-0.936,0.328H694.175z M638.187,494.53c-0.828,0-1.5-0.672-1.5-1.5v-5c0-0.828,0.672-1.5,1.5-1.5
			s1.5,0.672,1.5,1.5v5c-0.001,0.828-0.672,1.498-1.5,1.498V494.53z M685.273,493.33c-0.274,0-0.542-0.075-0.776-0.218
			c-1.349-0.82-2.768-1.52-4.24-2.092c-0.773-0.299-1.158-1.168-0.859-1.941s1.168-1.158,1.941-0.859
			c1.636,0.635,3.213,1.413,4.713,2.325c0.709,0.429,0.935,1.352,0.506,2.06c-0.272,0.449-0.76,0.724-1.285,0.723V493.33z
			 M674.021,489.494c-0.05,0-0.1,0-0.15-0.007c-0.782-0.078-1.575-0.117-2.358-0.117h-2.489c-0.828,0-1.5-0.672-1.5-1.5
			s0.672-1.5,1.5-1.5h2.489c0.881,0,1.774,0.044,2.653,0.132c0.824,0.085,1.423,0.822,1.338,1.646
			C675.425,488.909,674.786,489.489,674.021,489.494z M662.021,489.37h-5c-0.828,0-1.5-0.672-1.5-1.5s0.672-1.5,1.5-1.5h5
			c0.828,0,1.5,0.672,1.5,1.5S662.849,489.37,662.021,489.37z M650.021,489.37h-5c-0.828,0-1.5-0.672-1.5-1.5s0.672-1.5,1.5-1.5h5
			c0.828,0,1.5,0.672,1.5,1.5S650.849,489.37,650.021,489.37z"/>
		<path fill="#3E3442" d="M706.423,599.617c-19.334-0.07-38.444-4.148-56.123-11.977c-8.428-3.604-16.647-7.677-24.619-12.2
			c-1.542-0.894-2.492-2.542-2.492-4.325v-93.249c0-2.761,2.239-5,5-5h43.326c23.4,0,43.2,20.243,47.065,48.133l8.279,59.715
			c0.558,4.027,0.926,8.27,1.094,12.61c0.1,2.574-1.772,4.803-4.324,5.149C717.926,599.24,712.177,599.622,706.423,599.617z
			 M633.187,568.205c5.936,3.294,13.022,6.742,21.109,10.269l0,0c25.308,11.038,47.788,12.095,63.4,10.616
			c-0.18-2.4-0.429-4.738-0.743-7l-8.279-59.715c-3.174-22.891-18.8-39.506-37.16-39.506h-38.327L633.187,568.205z"/>
		<path fill="#9BA589" d="M629.549,341.677H366.54c-26.769,0.189-28.383-19.209-28.108-46.076l0,0
			c-0.275-26.866,1.339-46.265,28.108-46.076h263.009c26.769-0.189,28.382,19.209,28.107,46.076l0,0
			C657.932,322.468,656.318,341.866,629.549,341.677z"/>
		<path opacity="0.25" fill="#9BA589" enable-background="new    " d="M657.656,295.6c0.022-2.097,0.027-4.145,0.016-6.144
			c-0.149,23.621-3.448,40.1-28.123,39.923H366.54c-24.679,0.175-27.975-16.306-28.124-39.932c-0.013,2.004-0.007,4.055,0.016,6.153
			l0,0c-0.275,26.867,1.339,46.265,28.108,46.076h263.009C656.318,341.865,657.932,322.467,657.656,295.6L657.656,295.6z"/>
		<path opacity="0.31" fill="#9BA589" enable-background="new    " d="M338.432,295.6c-0.022,2.103-0.027,4.156-0.016,6.159
			c0.151-23.612,3.454-40.081,28.124-39.907h263.009c24.673-0.174,27.973,16.3,28.123,39.917c0.013-2.009,0.007-4.065-0.016-6.169
			l0,0c0.275-26.867-1.338-46.265-28.107-46.076H366.54C339.771,249.335,338.157,268.734,338.432,295.6L338.432,295.6z"/>
		<path fill="#3E3442" d="M366.118,346.679c-10.117,0-17.649-2.6-22.985-7.958c-9.275-9.3-9.885-25.031-9.7-43.12
			c-0.183-18.088,0.426-33.815,9.7-43.119c5.41-5.427,13.083-8.039,23.443-7.957h262.973c10.312-0.1,18,2.53,23.408,7.957
			c9.274,9.3,9.884,25.031,9.7,43.119c0.185,18.088-0.425,33.815-9.7,43.12c-5.407,5.424-13.083,8.043-23.427,7.956H366.54
			L366.118,346.679z M366.185,254.523c-7.391,0-12.606,1.644-15.971,5.019c-6.537,6.558-6.939,20.774-6.783,36.008
			c0,0.034,0,0.067,0,0.1c-0.155,15.234,0.246,29.451,6.784,36.009c3.418,3.429,8.734,5.084,16.289,5.016h263.045h0.389
			c7.357,0,12.572-1.643,15.936-5.018c6.537-6.558,6.938-20.775,6.782-36.009v-0.1c0.156-15.234-0.245-29.45-6.782-36.008
			c-3.418-3.43-8.756-5.093-16.29-5.017H366.54H366.185z"/>
		<path fill="#3E3442" d="M584.936,320.866c-3.866,0-7-3.134-7-7v-67.75c0-3.866,3.134-7,7-7s7,3.134,7,7v67.75
			C591.936,317.732,588.802,320.866,584.936,320.866z"/>
		<path fill="#3E3442" d="M414.659,320.866c-3.866,0-7-3.134-7-7v-67.75c0-3.866,3.134-7,7-7s7,3.134,7,7v67.75
			C421.659,317.732,418.525,320.866,414.659,320.866z"/>
		<path fill="#F26161" d="M658.341,440.784c-2.179-11.472-5.337-22.736-9.44-33.669c-23.928-63.836-83.5-105.249-149.072-105.249
			h-0.063c-65.571,0-125.145,41.413-149.072,105.25c-4.104,10.932-7.262,22.196-9.44,33.668
			c-11.4,71.624-15.5,143.574-10.286,214.94c4.652,51.407,48.552,95.167,88.018,95.16h161.623
			c39.466,0.007,83.365-43.754,88.018-95.16C673.837,584.357,669.743,512.408,658.341,440.784z"/>
		<path opacity="0.3" fill="#994A4A" enable-background="new    " d="M668.627,643.523c-4.653,50.358-48.552,93.225-88.018,93.218
			H418.986c-39.466,0.007-83.366-42.86-88.018-93.218c-1.28-17.172-2.006-34.374-2.178-51.606
			c-0.217,22.957,0.509,45.873,2.178,68.749c4.652,50.358,48.552,93.225,88.018,93.218h161.623
			c39.466,0.007,83.365-42.861,88.018-93.218c1.704-22.867,2.43-45.783,2.178-68.749
			C670.618,609.145,669.892,626.347,668.627,643.523z"/>
		<path opacity="0.39" fill="#F26161" enable-background="new    " d="M658.341,440.784c-2.179-11.472-5.337-22.736-9.44-33.669
			c-23.928-63.836-83.5-105.249-149.073-105.249h-0.062c-65.571,0-125.145,41.413-149.072,105.249
			c-4.104,10.932-7.262,22.197-9.44,33.669c-11.4,71.624-15.5,143.574-10.286,214.94c2.4,26.546,15.271,51.052,32.59,68.546
			c-13.1-16.334-22.462-37.265-24.432-59.685c-4.958-69.957-1.062-140.485,9.789-210.7c2.07-11.231,5.075-22.27,8.984-33
			c22.771-62.575,79.466-103.171,141.869-103.171h0.059c62.4,0,119.1,40.6,141.868,103.171c3.91,10.73,6.915,21.769,8.984,33
			c10.852,70.21,14.747,140.738,9.789,210.7c-1.97,22.42-11.336,43.351-24.432,59.685c17.319-17.494,30.188-42,32.591-68.546
			C673.837,584.357,669.743,512.408,658.341,440.784z"/>
		<path fill="#EAE6E5" d="M444.657,444.965c-11.543,0-20.9,9.357-20.9,20.9s9.357,20.9,20.9,20.9c11.543,0,20.9-9.357,20.9-20.9l0,0
			C465.557,454.322,456.2,444.965,444.657,444.965z M444.657,477.796c-6.589,0-11.93-5.341-11.93-11.93
			c0-6.589,5.341-11.93,11.93-11.93c6.589,0,11.93,5.341,11.93,11.93l0,0c0.002,6.589-5.337,11.932-11.926,11.934
			c-0.001,0-0.003,0-0.004,0V477.796z"/>
		<path fill="#3E3442" d="M444.657,487.768c-12.095,0-21.9-9.805-21.9-21.9s9.805-21.9,21.9-21.9c12.095,0,21.9,9.805,21.9,21.9l0,0
			C466.542,477.957,456.746,487.753,444.657,487.768z M444.657,445.968c-10.99,0-19.9,8.91-19.9,19.9s8.91,19.9,19.9,19.9
			c10.99,0,19.9-8.91,19.9-19.9l0,0c-0.012-10.986-8.914-19.89-19.9-19.903V445.968z M444.657,478.799
			c-7.141,0.001-12.93-5.788-12.931-12.929c-0.001-7.141,5.788-12.93,12.929-12.931c7.141-0.001,12.93,5.788,12.931,12.929
			c0,0,0,0.001,0,0.001C457.579,473.007,451.795,478.792,444.657,478.799L444.657,478.799z M444.657,454.94
			c-6.036-0.001-10.93,4.893-10.931,10.929c-0.001,6.036,4.892,10.93,10.929,10.931c6.036,0.001,10.93-4.892,10.931-10.929
			c0-0.001,0-0.001,0-0.002c-0.005-6.034-4.895-10.925-10.929-10.932V454.94z"/>
		<path fill="#EAE6E5" d="M565.99,444.965c-11.543,0-20.9,9.357-20.9,20.9s9.357,20.9,20.9,20.9c11.543,0,20.9-9.357,20.9-20.9
			S577.533,444.965,565.99,444.965L565.99,444.965z M565.99,477.796c-6.589,0-11.93-5.341-11.93-11.93s5.341-11.93,11.93-11.93
			c6.589,0,11.93,5.341,11.93,11.93l0,0c0.002,6.589-5.337,11.932-11.926,11.934c-0.001,0-0.003,0-0.004,0V477.796z"/>
		<path opacity="0.3" fill="#994A4A" enable-background="new    " d="M656.266,438.011c0.125-0.107,0.237-0.226,0.36-0.335
			c-2.017-8.679-4.597-17.218-7.725-25.561c-23.928-63.836-83.5-105.249-149.073-105.249h-0.062
			c-65.571,0-125.145,41.413-149.072,105.249c-3.128,8.344-5.708,16.882-7.726,25.561c0.123,0.109,0.236,0.228,0.361,0.335
			C387.708,476,450.26,482.866,499.8,482.866S611.888,476,656.266,438.011z"/>
		
			<path opacity="0.3" fill="#994A4A" stroke="#994A4A" stroke-width="10" stroke-linecap="round" stroke-linejoin="round" enable-background="new    " d="
			M412.509,583.455h181.722c12.021,0,21.766,9.745,21.766,21.766v80.962c0,12.021-9.745,21.766-21.766,21.766H412.509
			c-12.021,0-21.766-9.745-21.766-21.766v-80.962C390.743,593.2,400.488,583.455,412.509,583.455z"/>
		<path fill="#3E3442" d="M565.99,487.768c-12.095,0-21.9-9.805-21.9-21.9s9.805-21.9,21.9-21.9c12.095,0,21.9,9.805,21.9,21.9
			C587.876,477.957,578.079,487.754,565.99,487.768z M565.99,445.968c-10.99,0-19.9,8.91-19.9,19.9s8.91,19.9,19.9,19.9
			c10.99,0,19.9-8.91,19.9-19.9c-0.012-10.986-8.914-19.89-19.9-19.903V445.968z M565.99,478.799c-7.141,0-12.93-5.789-12.93-12.93
			s5.789-12.93,12.93-12.93c7.141,0,12.93,5.789,12.93,12.93l0,0C578.913,473.007,573.128,478.793,565.99,478.799L565.99,478.799z
			 M565.99,454.94c-6.036,0-10.93,4.894-10.93,10.93s4.893,10.93,10.93,10.93c6.036,0,10.93-4.893,10.93-10.93c0,0,0-0.001,0-0.001
			c-0.005-6.035-4.895-10.926-10.93-10.932V454.94z"/>
		<path fill="#725865" d="M412.509,573.455h181.722c12.021,0,21.766,9.745,21.766,21.766v80.962
			c0,12.021-9.745,21.766-21.766,21.766H412.509c-12.021,0-21.766-9.745-21.766-21.766v-80.962
			C390.743,583.2,400.488,573.455,412.509,573.455z"/>
		<g opacity="0.4">
			<path fill="#3E3442" d="M510.1,643.542l-6,6.155c-2.387,2.353-6.221,2.353-8.608,0l-6-6.155c-0.444-0.447-0.696-1.051-0.7-1.681
				v-75.2c0.069-1.462,1.307-2.593,2.77-2.53h16.461c1.462-0.063,2.7,1.068,2.769,2.53v75.2
				C510.79,642.49,510.541,643.094,510.1,643.542z"/>
			<path fill="#3E3442" d="M499.8,654.462L499.8,654.462c-2.422,0.01-4.747-0.952-6.453-2.672l-6-6.155
				c-0.993-1.006-1.55-2.362-1.552-3.775v-75.2c0.071-3.118,2.651-5.591,5.77-5.53h16.46c3.119-0.062,5.7,2.411,5.77,5.53v75.2
				c-0.002,1.414-0.559,2.77-1.552,3.776l-5.994,6.154C504.544,653.508,502.221,654.471,499.8,654.462z M491.8,641.604l5.845,6
				c1.23,1.091,3.081,1.091,4.311,0l5.844-6v-74.477h-16V641.604z"/>
		</g>
		<path fill="#3E3442" d="M594.23,702.949H412.508c-14.774-0.019-26.746-11.991-26.765-26.765v-80.963
			c0.019-14.774,11.991-26.747,26.765-26.766H594.23c14.776,0.017,26.751,11.99,26.77,26.766v80.963
			C620.981,690.96,609.006,702.932,594.23,702.949z M412.508,578.455c-9.255,0.011-16.755,7.511-16.765,16.766v80.963
			c0.01,9.255,7.51,16.755,16.765,16.765H594.23c9.256-0.008,16.759-7.509,16.77-16.765v-80.963
			c-0.01-9.255-7.511-16.755-16.766-16.766H412.508z"/>
		<path fill="#3E3442" d="M592.151,687.449h-4.989c-0.828,0-1.5-0.672-1.5-1.5s0.672-1.5,1.5-1.5h4.989c0.828,0,1.5,0.672,1.5,1.5
			S592.979,687.449,592.151,687.449z M580.178,687.449h-4.989c-0.828,0-1.5-0.672-1.5-1.5s0.672-1.5,1.5-1.5h4.989
			c0.828,0,1.5,0.672,1.5,1.5S581.006,687.449,580.178,687.449z M568.205,687.449h-4.989c-0.828,0-1.5-0.672-1.5-1.5
			s0.672-1.5,1.5-1.5h4.989c0.828,0,1.5,0.672,1.5,1.5S569.033,687.449,568.205,687.449z M556.231,687.449h-4.989
			c-0.828,0-1.5-0.672-1.5-1.5s0.672-1.5,1.5-1.5h4.989c0.828,0,1.5,0.672,1.5,1.5S557.059,687.449,556.231,687.449z
			 M544.258,687.449h-4.989c-0.828,0-1.5-0.672-1.5-1.5s0.672-1.5,1.5-1.5h4.989c0.828,0,1.5,0.672,1.5,1.5
			S545.086,687.449,544.258,687.449z M532.284,687.449h-4.989c-0.828,0-1.5-0.672-1.5-1.5s0.672-1.5,1.5-1.5h4.989
			c0.828,0,1.5,0.672,1.5,1.5S533.112,687.449,532.284,687.449z M520.311,687.449h-4.989c-0.828,0-1.5-0.672-1.5-1.5
			s0.672-1.5,1.5-1.5h4.989c0.828,0,1.5,0.672,1.5,1.5S521.139,687.449,520.311,687.449z M508.338,687.449h-4.989
			c-0.828,0-1.5-0.672-1.5-1.5s0.672-1.5,1.5-1.5h4.989c0.828,0,1.5,0.672,1.5,1.5S509.166,687.449,508.338,687.449z
			 M496.364,687.449h-4.989c-0.828,0-1.5-0.672-1.5-1.5s0.672-1.5,1.5-1.5h4.989c0.828,0,1.5,0.672,1.5,1.5
			S497.192,687.449,496.364,687.449z M484.391,687.449H479.4c-0.828,0-1.5-0.672-1.5-1.5s0.672-1.5,1.5-1.5h4.989
			c0.828,0,1.5,0.672,1.5,1.5s-0.672,1.5-1.5,1.5H484.391z M472.417,687.449h-4.989c-0.828,0-1.5-0.672-1.5-1.5s0.672-1.5,1.5-1.5
			h4.989c0.828,0,1.5,0.672,1.5,1.5S473.245,687.449,472.417,687.449z M460.444,687.449h-4.989c-0.828,0-1.5-0.672-1.5-1.5
			s0.672-1.5,1.5-1.5h4.989c0.828,0,1.5,0.672,1.5,1.5S461.272,687.449,460.444,687.449z M448.47,687.449h-4.989
			c-0.828,0-1.5-0.672-1.5-1.5s0.672-1.5,1.5-1.5h4.989c0.828,0,1.5,0.672,1.5,1.5S449.298,687.449,448.47,687.449z
			 M436.497,687.449h-4.989c-0.828,0-1.5-0.672-1.5-1.5s0.672-1.5,1.5-1.5h4.992c0.828,0,1.5,0.672,1.5,1.5s-0.672,1.5-1.5,1.5l0,0
			H436.497z M424.523,687.449h-4.988c-0.828,0-1.5-0.672-1.5-1.5s0.672-1.5,1.5-1.5h4.988c0.828,0,1.5,0.672,1.5,1.5
			S425.351,687.449,424.523,687.449z M412.55,687.449h-0.042c-1.929,0-3.826-0.496-5.508-1.44c-0.729-0.393-1.002-1.303-0.609-2.032
			c0.393-0.729,1.303-1.002,2.032-0.609c0.016,0.009,0.032,0.018,0.048,0.027c1.233,0.691,2.623,1.054,4.037,1.054
			c0.833-0.002,1.511,0.667,1.521,1.5c0.009,0.819-0.647,1.491-1.466,1.5C412.559,687.449,412.554,687.449,412.55,687.449
			L412.55,687.449z M598.932,686.242c-0.828,0-1.5-0.672-1.5-1.5c0-0.546,0.297-1.049,0.775-1.313
			c1.239-0.685,2.284-1.674,3.036-2.874c0.43-0.708,1.352-0.934,2.06-0.505c0.708,0.43,0.934,1.352,0.504,2.06
			c-0.007,0.012-0.014,0.023-0.022,0.035c-1.023,1.633-2.445,2.978-4.132,3.91C599.433,686.178,599.185,686.242,598.932,686.242
			L598.932,686.242z M403.317,680.985c-0.632,0-1.197-0.397-1.411-0.992c-0.44-1.221-0.664-2.51-0.663-3.808v-1.621
			c0-0.828,0.672-1.5,1.5-1.5s1.5,0.672,1.5,1.5v1.62c-0.001,0.952,0.164,1.898,0.486,2.794c0.28,0.778-0.123,1.636-0.9,1.918
			C403.665,680.956,403.492,680.986,403.317,680.985L403.317,680.985z M604,676.146c-0.828,0-1.5-0.672-1.5-1.5v-4.988
			c0-0.828,0.672-1.5,1.5-1.5s1.5,0.672,1.5,1.5v4.988C605.5,675.474,604.828,676.146,604,676.146z M402.747,669.079
			c-0.828,0-1.5-0.672-1.5-1.5v-4.988c0-0.828,0.672-1.5,1.5-1.5s1.5,0.672,1.5,1.5v4.988
			C404.247,668.407,403.575,669.079,402.747,669.079c-0.001,0-0.003,0-0.004,0H402.747z M604,664.174c-0.828,0-1.5-0.672-1.5-1.5
			v-4.989c0-0.828,0.672-1.5,1.5-1.5s1.5,0.672,1.5,1.5v4.989C605.5,663.502,604.828,664.174,604,664.174z M402.747,657.106
			c-0.828,0-1.5-0.672-1.5-1.5v-4.989c0-0.828,0.672-1.5,1.5-1.5s1.5,0.672,1.5,1.5v4.989
			C404.247,656.434,403.575,657.106,402.747,657.106c-0.001,0-0.003,0-0.004,0H402.747z M604,652.2c-0.828,0-1.5-0.672-1.5-1.5
			v-4.989c0-0.828,0.672-1.5,1.5-1.5s1.5,0.672,1.5,1.5v4.989C605.5,651.528,604.828,652.2,604,652.2z M402.747,645.133
			c-0.828,0-1.5-0.672-1.5-1.5v-4.989c0-0.828,0.672-1.5,1.5-1.5s1.5,0.672,1.5,1.5v4.989
			C404.247,644.461,403.575,645.133,402.747,645.133c-0.001,0-0.003,0-0.004,0H402.747z M604,640.227c-0.828,0-1.5-0.672-1.5-1.5
			v-4.99c0-0.828,0.672-1.5,1.5-1.5s1.5,0.672,1.5,1.5v4.99C605.5,639.555,604.828,640.227,604,640.227z M402.747,633.159
			c-0.828,0-1.5-0.672-1.5-1.5v-4.989c0-0.828,0.672-1.5,1.5-1.5s1.5,0.672,1.5,1.5v4.989
			C404.247,632.487,403.575,633.159,402.747,633.159c-0.001,0-0.003,0-0.004,0H402.747z M604,628.253c-0.828,0-1.5-0.672-1.5-1.5
			v-4.989c0-0.828,0.672-1.5,1.5-1.5s1.5,0.672,1.5,1.5v4.989C605.5,627.581,604.828,628.253,604,628.253z M402.747,621.186
			c-0.828,0-1.5-0.672-1.5-1.5V614.7c0-0.828,0.672-1.5,1.5-1.5s1.5,0.672,1.5,1.5v4.989c-0.002,0.828-0.675,1.499-1.503,1.497
			c0,0-0.001,0-0.001,0H402.747z M604,616.279c-0.828,0-1.5-0.672-1.5-1.5v-4.988c0-0.828,0.672-1.5,1.5-1.5s1.5,0.672,1.5,1.5
			v4.988C605.5,615.607,604.828,616.279,604,616.279z M402.747,609.212c-0.828,0-1.5-0.672-1.5-1.5v-4.988
			c0-0.828,0.672-1.5,1.5-1.5s1.5,0.672,1.5,1.5v4.988C404.247,608.54,403.575,609.212,402.747,609.212c-0.001,0-0.003,0-0.004,0
			H402.747z M604,604.307c-0.828,0-1.5-0.672-1.5-1.5v-4.99c0-0.828,0.672-1.5,1.5-1.5s1.5,0.672,1.5,1.5v4.99
			C605.5,603.635,604.828,604.307,604,604.307z M402.747,597.239c-0.828,0-1.5-0.672-1.5-1.5v-0.518
			c-0.005-1.728,0.393-3.433,1.161-4.981c0.372-0.74,1.274-1.039,2.014-0.667c0.734,0.369,1.035,1.259,0.675,1.997
			c-0.562,1.135-0.853,2.385-0.85,3.651v0.518C404.247,596.567,403.575,597.239,402.747,597.239c-0.001,0-0.003,0-0.004,0H402.747z
			 M603.03,592.48c-0.575,0-1.1-0.328-1.351-0.846c-0.617-1.275-1.55-2.37-2.709-3.184c-0.645-0.52-0.747-1.464-0.227-2.109
			c0.472-0.586,1.304-0.732,1.947-0.341c1.576,1.108,2.845,2.599,3.686,4.332c0.361,0.746,0.048,1.643-0.697,2.003
			c-0.203,0.098-0.427,0.15-0.653,0.15L603.03,592.48z M408.73,587.718c-0.828,0-1.5-0.672-1.5-1.5c0-0.603,0.361-1.147,0.917-1.382
			c1.381-0.584,2.866-0.884,4.366-0.881h1.1c0.828,0,1.5,0.672,1.5,1.5s-0.672,1.5-1.5,1.5h-1.1c-1.099-0.002-2.188,0.217-3.2,0.645
			c-0.186,0.078-0.386,0.119-0.588,0.118H408.73z M593.217,586.955h-4.989c-0.828,0-1.5-0.672-1.5-1.5s0.672-1.5,1.5-1.5h4.989
			c0.828,0,1.5,0.672,1.5,1.5S594.045,586.955,593.217,586.955z M581.243,586.955h-4.989c-0.828,0-1.5-0.672-1.5-1.5
			s0.672-1.5,1.5-1.5h4.989c0.828,0,1.5,0.672,1.5,1.5S582.071,586.955,581.243,586.955z M569.27,586.955h-4.99
			c-0.828,0-1.5-0.672-1.5-1.5s0.672-1.5,1.5-1.5h4.99c0.828,0,1.5,0.672,1.5,1.5S570.098,586.955,569.27,586.955z M557.296,586.955
			H552.3c-0.828,0-1.5-0.672-1.5-1.5s0.672-1.5,1.5-1.5h4.988c0.828,0,1.5,0.672,1.5,1.5s-0.672,1.5-1.5,1.5H557.296z
			 M545.323,586.955h-4.989c-0.828,0-1.5-0.672-1.5-1.5s0.672-1.5,1.5-1.5h4.989c0.828,0,1.5,0.672,1.5,1.5
			S546.151,586.955,545.323,586.955z M533.35,586.955h-4.99c-0.828,0-1.5-0.672-1.5-1.5s0.672-1.5,1.5-1.5h4.99
			c0.828,0,1.5,0.672,1.5,1.5S534.178,586.955,533.35,586.955z M521.376,586.955h-4.989c-0.828,0-1.5-0.672-1.5-1.5
			s0.672-1.5,1.5-1.5h4.989c0.828,0,1.5,0.672,1.5,1.5S522.204,586.955,521.376,586.955z M509.402,586.955h-4.989
			c-0.828,0-1.5-0.672-1.5-1.5s0.672-1.5,1.5-1.5h4.987c0.828,0,1.5,0.672,1.5,1.5s-0.672,1.5-1.5,1.5H509.402z M497.429,586.955
			h-4.989c-0.828,0-1.5-0.672-1.5-1.5s0.672-1.5,1.5-1.5h4.989c0.828,0,1.5,0.672,1.5,1.5S498.257,586.955,497.429,586.955z
			 M485.456,586.955h-4.989c-0.828,0-1.5-0.672-1.5-1.5s0.672-1.5,1.5-1.5l0,0h4.989c0.828,0,1.5,0.672,1.5,1.5
			S486.284,586.955,485.456,586.955z M473.482,586.955h-4.989c-0.828,0-1.5-0.672-1.5-1.5s0.672-1.5,1.5-1.5l0,0h4.989
			c0.828,0,1.5,0.672,1.5,1.5S474.31,586.955,473.482,586.955z M461.509,586.955h-4.989c-0.828,0-1.5-0.672-1.5-1.5
			s0.672-1.5,1.5-1.5h4.98c0.828,0,1.5,0.672,1.5,1.5s-0.672,1.5-1.5,1.5H461.509z M449.535,586.955h-4.988
			c-0.828,0-1.5-0.672-1.5-1.5s0.672-1.5,1.5-1.5h4.988c0.828,0,1.5,0.672,1.5,1.5S450.363,586.955,449.535,586.955z
			 M437.562,586.955h-4.989c-0.828,0-1.5-0.672-1.5-1.5s0.672-1.5,1.5-1.5h4.989c0.828,0,1.5,0.672,1.5,1.5
			S438.39,586.955,437.562,586.955z M425.588,586.955H420.6c-0.828,0-1.5-0.672-1.5-1.5s0.672-1.5,1.5-1.5h4.988
			c0.828,0,1.5,0.672,1.5,1.5S426.416,586.955,425.588,586.955z"/>
		<path fill="#3E3442" d="M580.619,755.884H418.976c-20.546,0-42.661-10.881-60.68-29.857
			c-18.254-19.223-30.03-44.683-32.308-69.853c-5.028-68.861-1.55-141.564,10.328-216.174c0.008-0.049,0.016-0.1,0.025-0.144
			c2.234-11.752,5.47-23.292,9.671-34.493c11.8-31.834,32.973-59.344,60.726-78.9c55.764-39.462,130.354-39.462,186.118,0
			c27.753,19.557,48.925,47.066,60.726,78.9c4.201,11.201,7.437,22.741,9.672,34.494c0.009,0.047,0.017,0.095,0.024,0.144
			c11.879,74.614,15.356,147.317,10.335,216.09c-2.285,25.256-14.06,50.716-32.314,69.939
			C623.281,745,601.163,755.884,580.619,755.884z M418.985,745.884h161.633c17.818,0,37.289-9.746,53.429-26.743
			c16.732-17.62,27.521-40.9,29.6-63.869c4.957-67.9,1.516-139.8-10.232-213.629c-2.129-11.166-5.207-22.13-9.2-32.773
			c-11.097-29.947-31.01-55.827-57.114-74.227c-52.314-37.036-122.302-37.036-174.616,0c-26.104,18.4-46.017,44.281-57.113,74.228
			c-3.994,10.642-7.072,21.606-9.2,32.772c-11.749,73.83-15.189,145.73-10.225,213.716c2.071,22.882,12.86,46.162,29.592,63.782
			c16.139,17,35.613,26.743,53.43,26.743H418.985z"/>
		<path fill="#725865" d="M499.8,465.866c58.986,0,112.211-8.137,149.966-40.452c7.039-6.025,9.8-16.412,6.68-25.616l-0.052-0.151
			c-12.268-36.094-33.642-66.712-61.809-88.545c-28.053-21.743-60.818-33.236-94.816-33.236c-33.936,0-66.7,11.493-94.753,33.236
			c-28.167,21.833-49.541,52.451-61.81,88.545l-0.052,0.151c-3.121,9.2-0.359,19.59,6.681,25.616
			C387.587,457.729,440.811,465.866,499.8,465.866z"/>
		<g opacity="0.4">
			<path fill="#3E3442" d="M453.133,362.771l-6,6.738c-2.116,2.377-5.758,2.589-8.135,0.473c-0.167-0.148-0.325-0.306-0.473-0.473
				l-6-6.738c-0.451-0.507-0.7-1.162-0.7-1.841V278.6c0-1.53,1.24-2.77,2.77-2.77h16.461c1.529,0.001,2.769,1.241,2.769,2.77v82.33
				C453.827,361.608,453.581,362.263,453.133,362.771z"/>
			<path fill="#3E3442" d="M442.833,374.44c-2.501-0.001-4.882-1.069-6.545-2.937l-6-6.738c-0.94-1.056-1.459-2.421-1.459-3.835
				V278.6c0.004-3.185,2.585-5.766,5.77-5.77h16.46c3.185,0.003,5.767,2.585,5.77,5.77v82.33c0.001,1.414-0.518,2.779-1.459,3.835
				l-6,6.738C447.709,373.369,445.331,374.437,442.833,374.44z M434.833,360.84l5.938,6.673c1.066,1.139,2.854,1.198,3.993,0.132
				c0.045-0.043,0.089-0.087,0.132-0.132l5.937-6.673v-82.011h-16V360.84z M450.892,360.774L450.892,360.774z"/>
		</g>
		<g opacity="0.4">
			<path fill="#3E3442" d="M565.466,362.771l-6,6.738c-2.116,2.377-5.758,2.589-8.135,0.473c-0.167-0.148-0.325-0.306-0.473-0.473
				l-6-6.738c-0.451-0.507-0.7-1.162-0.7-1.841V278.6c0-1.529,1.24-2.769,2.769-2.77H563.4c1.53,0,2.77,1.24,2.77,2.77l0,0v82.33
				C566.169,361.609,565.918,362.264,565.466,362.771z"/>
			<path fill="#3E3442" d="M555.167,374.44c-2.501-0.001-4.883-1.069-6.546-2.937l-6-6.738c-0.94-1.056-1.459-2.421-1.459-3.835
				V278.6c0.003-3.185,2.585-5.767,5.77-5.77H563.4c3.185,0.003,5.767,2.585,5.771,5.77v82.33c0,1.414-0.52,2.779-1.46,3.835
				l-6,6.738C560.048,373.37,557.667,374.439,555.167,374.44z M547.167,360.84l5.937,6.673c1.065,1.139,2.851,1.2,3.99,0.135
				c0.047-0.043,0.091-0.088,0.135-0.135l5.938-6.673v-82.011h-16V360.84z M563.225,360.774L563.225,360.774z"/>
		</g>
		<path opacity="0.32" fill="#725865" enable-background="new    " d="M649.763,416.435c-37.755,32.315-90.98,40.452-149.966,40.452
			s-112.21-8.137-149.965-40.452c-3.954-3.459-6.611-8.163-7.532-13.335c-1.597,8.247,1.266,16.726,7.536,22.316
			c37.755,32.315,90.979,40.452,149.965,40.452s112.211-8.137,149.966-40.452c6.269-5.591,9.131-14.07,7.533-22.316
			C656.377,408.273,653.719,412.977,649.763,416.435z"/>
		<path opacity="0.58" fill="#725865" enable-background="new    " d="M656.443,399.8l-0.052-0.151
			c-12.268-36.094-33.642-66.712-61.809-88.545c-28.053-21.743-60.818-33.236-94.816-33.236c-33.936,0-66.7,11.493-94.753,33.236
			c-28.167,21.833-49.541,52.451-61.81,88.545l-0.052,0.151c-2.968,8.711-0.703,18.353,5.835,24.83
			c-3.297-5.859-3.957-12.84-1.817-19.213l0.05-0.147c11.955-35.169,32.78-65,60.225-86.274
			c27.333-21.186,59.257-32.384,92.323-32.384c33.126,0,65.051,11.2,92.384,32.384c27.445,21.272,48.27,51.106,60.224,86.274
			l0.05,0.147c2.14,6.373,1.48,13.354-1.817,19.213C657.147,418.153,659.413,408.511,656.443,399.8z"/>
		<path fill="#3E3442" d="M499.8,470.866c-72.306,0-119.56-12.846-153.217-41.654c-8.747-7.736-11.969-19.981-8.163-31.02
			l0.066-0.195c12.572-36.984,34.523-68.412,63.467-90.847s62.762-34.284,97.817-34.284c35.094,0,68.94,11.855,97.879,34.284
			s50.9,53.864,63.48,90.889l0.064,0.192c3.79,11.03,0.563,23.257-8.176,30.981C619.358,458.02,572.1,470.866,499.8,470.866z
			 M343.165,399.766l4.735,1.606c-2.45,7.223-0.313,15.534,5.186,20.241c31.715,27.146,76.963,39.251,146.714,39.251
			s115-12.1,146.715-39.251c5.5-4.707,7.635-13.018,5.2-20.211l-0.063-0.189c-11.939-35.122-32.734-64.93-60.125-86.161
			c-27.168-21.057-58.9-32.188-91.752-32.188c-32.817,0-64.523,11.131-91.691,32.188c-27.39,21.23-48.186,51.039-60.139,86.2
			L343.165,399.766z"/>
		<path fill="#3E3442" d="M500.079,455.366c-1.767,0.006-3.545-0.006-5.293-0.021c-0.828-0.003-1.497-0.678-1.494-1.506
			c0.003-0.828,0.678-1.497,1.506-1.494h0.014c1.741,0.015,3.5,0.025,5.272,0.021c0.638,0,1.274,0,1.909,0H502
			c0.828-0.002,1.501,0.669,1.503,1.497c0.002,0.828-0.669,1.501-1.497,1.503C501.365,455.367,500.722,455.367,500.079,455.366z
			 M508.998,455.292c-0.828,0.007-1.505-0.66-1.512-1.488s0.66-1.505,1.488-1.512c1.676-0.026,3.337-0.059,4.983-0.1
			c0.828-0.022,1.517,0.633,1.539,1.461s-0.633,1.517-1.461,1.539l0,0c-1.655,0.042-3.326,0.075-5.013,0.1H508.998z M487.798,455.24
			h-0.033c-1.686-0.036-3.357-0.08-5.013-0.133c-0.827-0.027-1.477-0.719-1.451-1.546c0.036-0.823,0.722-1.468,1.546-1.452
			c1.645,0.052,3.306,0.096,4.983,0.132c0.828,0.009,1.493,0.688,1.484,1.516c-0.009,0.828-0.688,1.493-1.516,1.484V455.24z
			 M520.987,454.957c-0.828,0.016-1.513-0.642-1.53-1.47c-0.016-0.828,0.642-1.513,1.471-1.53l0,0
			c1.675-0.067,3.334-0.143,4.977-0.228c0.814-0.054,1.519,0.562,1.573,1.377c0.001,0.015,0.002,0.029,0.002,0.044
			c0.043,0.827-0.593,1.533-1.42,1.576c0,0-0.001,0-0.001,0c-1.654,0.085-3.324,0.162-5.01,0.229L520.987,454.957z M475.808,454.835
			h-0.071c-1.686-0.079-3.356-0.166-5.009-0.262c-0.828-0.048-1.461-0.759-1.413-1.587s0.759-1.461,1.587-1.413l0,0
			c1.641,0.095,3.3,0.182,4.975,0.26c0.828,0.019,1.485,0.706,1.466,1.535c-0.019,0.828-0.706,1.485-1.535,1.465V454.835z
			 M532.967,454.311c-0.828,0.028-1.522-0.622-1.55-1.45s0.622-1.522,1.45-1.55l0,0c1.673-0.114,3.329-0.238,4.966-0.371
			c0.826-0.067,1.55,0.548,1.617,1.374c0.067,0.826-0.548,1.55-1.373,1.617c-1.651,0.133-3.317,0.258-5,0.374
			c-0.038,0.005-0.072,0.006-0.107,0.006H532.967z M463.833,454.111c-0.038,0-0.076,0-0.115,0c-1.685-0.127-3.352-0.264-5-0.411
			c-0.826-0.067-1.44-0.791-1.373-1.617c0.067-0.826,0.791-1.44,1.617-1.373c0.008,0.001,0.015,0.001,0.023,0.002
			c1.636,0.146,3.29,0.282,4.962,0.408c0.828,0.031,1.475,0.728,1.444,1.556s-0.728,1.475-1.556,1.444l0,0L463.833,454.111z
			 M544.923,453.304c-0.828-0.003-1.498-0.676-1.495-1.505c0.002-0.767,0.583-1.408,1.345-1.487
			c1.667-0.169,3.316-0.348,4.948-0.537c0.82-0.117,1.58,0.452,1.697,1.272c0.117,0.82-0.452,1.58-1.272,1.697
			c-0.027,0.004-0.053,0.007-0.08,0.009c-1.644,0.192-3.307,0.373-4.99,0.542c-0.05,0.004-0.1,0.006-0.15,0.004L544.923,453.304z
			 M451.887,453.012c-0.055,0-0.11-0.003-0.165-0.009c-1.682-0.184-3.345-0.379-4.989-0.585c-0.822-0.103-1.405-0.853-1.302-1.675
			s0.853-1.405,1.675-1.302c1.629,0.204,3.277,0.397,4.942,0.58c0.823,0.091,1.418,0.832,1.327,1.655
			C453.291,452.435,452.651,453.01,451.887,453.012L451.887,453.012z M556.833,451.877c-0.828-0.003-1.497-0.677-1.494-1.506
			c0.003-0.745,0.551-1.374,1.288-1.479c1.658-0.232,3.298-0.476,4.919-0.731c0.818-0.129,1.587,0.43,1.715,1.249
			c0.129,0.818-0.43,1.587-1.248,1.715c-1.638,0.258-3.295,0.504-4.97,0.738c-0.069,0.009-0.138,0.013-0.207,0.013L556.833,451.877z
			 M439.989,451.477c-0.075,0-0.15-0.006-0.224-0.017c-1.675-0.251-3.329-0.514-4.964-0.789c-0.817-0.134-1.371-0.906-1.237-1.723
			c0.134-0.817,0.906-1.371,1.723-1.237c0.005,0.001,0.009,0.001,0.014,0.002c1.617,0.273,3.253,0.533,4.909,0.78
			c0.82,0.121,1.386,0.883,1.266,1.702c-0.108,0.736-0.74,1.282-1.485,1.282H439.989z M568.674,449.961
			c-0.828,0-1.5-0.672-1.499-1.501c0-0.723,0.516-1.343,1.227-1.474c1.646-0.305,3.271-0.623,4.875-0.955
			c0.807-0.186,1.612,0.318,1.798,1.126c0.186,0.807-0.318,1.612-1.126,1.798c-0.021,0.005-0.043,0.009-0.064,0.013
			c-1.624,0.337-3.269,0.659-4.936,0.968c-0.09,0.016-0.181,0.025-0.272,0.025H568.674z M428.167,449.436
			c-0.098,0-0.195-0.01-0.291-0.029c-1.663-0.327-3.305-0.668-4.925-1.025c-0.809-0.178-1.322-0.978-1.144-1.787
			c0.178-0.809,0.978-1.322,1.787-1.144l0,0c1.6,0.352,3.221,0.69,4.862,1.013c0.813,0.159,1.343,0.948,1.183,1.761
			C429.501,448.928,428.884,449.436,428.167,449.436L428.167,449.436z M580.41,447.477c-0.828,0-1.5-0.671-1.501-1.499
			c0-0.695,0.476-1.299,1.152-1.46c1.625-0.391,3.229-0.796,4.81-1.216c0.801-0.213,1.623,0.263,1.836,1.064
			c0.213,0.801-0.263,1.623-1.064,1.836c-1.605,0.426-3.232,0.837-4.882,1.234c-0.114,0.027-0.231,0.041-0.348,0.041H580.41z
			 M416.464,446.805c-0.125,0-0.249-0.016-0.37-0.047c-1.645-0.418-3.266-0.851-4.865-1.3c-0.798-0.224-1.263-1.052-1.039-1.85
			s1.052-1.263,1.85-1.039c1.576,0.443,3.174,0.87,4.793,1.282c0.803,0.204,1.289,1.02,1.085,1.823
			C417.75,446.339,417.151,446.805,416.464,446.805L416.464,446.805z M591.984,444.333c-0.828,0.001-1.501-0.669-1.503-1.497
			c-0.001-0.662,0.432-1.247,1.067-1.439c1.578-0.481,3.165-0.991,4.719-1.514c0.789-0.254,1.634,0.18,1.887,0.969
			c0.249,0.774-0.164,1.605-0.93,1.874c-1.581,0.532-3.2,1.051-4.8,1.541c-0.142,0.043-0.289,0.065-0.437,0.066H591.984z
			 M404.936,443.494c-0.157,0-0.312-0.025-0.461-0.073c-1.6-0.517-3.207-1.061-4.774-1.617c-0.789-0.253-1.224-1.097-0.971-1.886
			s1.097-1.224,1.886-0.971c0.029,0.009,0.057,0.019,0.085,0.03c1.54,0.546,3.118,1.081,4.692,1.589
			c0.789,0.254,1.222,1.098,0.969,1.887c-0.2,0.621-0.778,1.042-1.43,1.041H404.936z M603.326,440.433c-0.828,0-1.5-0.672-1.5-1.501
			c0-0.62,0.382-1.177,0.961-1.399c1.547-0.6,3.091-1.218,4.589-1.851c0.759-0.333,1.643,0.013,1.976,0.772
			c0.332,0.759-0.013,1.643-0.772,1.976c-0.012,0.005-0.024,0.01-0.036,0.015c-1.528,0.646-3.1,1.281-4.681,1.888
			c-0.171,0.066-0.352,0.1-0.535,0.1H603.326z M393.662,439.406c-0.193,0-0.384-0.037-0.563-0.11
			c-1.573-0.638-3.136-1.3-4.646-1.975c-0.749-0.353-1.071-1.247-0.718-1.996c0.342-0.727,1.197-1.055,1.938-0.744
			c1.48,0.659,3.012,1.31,4.553,1.935c0.768,0.311,1.138,1.186,0.826,1.954C394.823,439.036,394.273,439.406,393.662,439.406
			L393.662,439.406z M614.34,435.688c-0.828,0.002-1.502-0.668-1.503-1.497c-0.001-0.579,0.33-1.107,0.852-1.356
			c1.491-0.715,2.976-1.462,4.416-2.22c0.733-0.387,1.64-0.106,2.027,0.627c0.387,0.733,0.106,1.64-0.627,2.027
			c-1.472,0.775-2.99,1.539-4.514,2.271c-0.202,0.097-0.424,0.148-0.648,0.148L614.34,435.688z M382.74,434.452
			c-0.235,0-0.466-0.056-0.676-0.162c-1.51-0.764-3.013-1.559-4.466-2.363c-0.725-0.401-0.987-1.314-0.586-2.039
			s1.314-0.987,2.039-0.586c1.421,0.786,2.89,1.564,4.367,2.311c0.74,0.373,1.036,1.276,0.663,2.015
			C383.825,434.134,383.307,434.453,382.74,434.452z M624.907,430.021c-0.828,0-1.5-0.671-1.501-1.499
			c0-0.529,0.278-1.019,0.733-1.29c1.408-0.838,2.817-1.717,4.19-2.61c0.705-0.436,1.629-0.218,2.065,0.487
			c0.421,0.681,0.233,1.573-0.428,2.026c-1.406,0.916-2.85,1.816-4.292,2.675c-0.231,0.138-0.494,0.211-0.763,0.211L624.907,430.021
			z M372.3,428.564c-0.281,0-0.557-0.079-0.795-0.229c-1.427-0.894-2.851-1.825-4.232-2.769c-0.684-0.468-0.859-1.401-0.391-2.085
			c0.468-0.684,1.401-0.859,2.085-0.392c1.347,0.921,2.737,1.831,4.131,2.7c0.703,0.439,0.916,1.364,0.477,2.067
			c-0.275,0.44-0.758,0.707-1.277,0.705L372.3,428.564z M634.9,423.4c-0.828,0.001-1.5-0.67-1.501-1.499
			c0-0.478,0.227-0.927,0.612-1.21c1.317-0.968,2.632-1.977,3.911-3c0.655-0.507,1.597-0.386,2.104,0.269
			c0.495,0.64,0.393,1.558-0.231,2.074c-1.309,1.047-2.657,2.081-4.007,3.073C635.531,423.297,635.22,423.4,634.9,423.4z
			 M362.453,421.718c-0.331,0-0.652-0.109-0.914-0.312c-1.328-1.023-2.655-2.09-3.945-3.172c-0.635-0.532-0.719-1.478-0.186-2.113
			s1.478-0.719,2.113-0.186c1.26,1.056,2.555,2.1,3.849,3.1c0.656,0.506,0.778,1.448,0.272,2.104
			c-0.284,0.369-0.724,0.585-1.189,0.584V421.718z M643.9,415.558c-0.828,0-1.5-0.672-1.499-1.501c0-0.286,0.082-0.566,0.236-0.807
			c0.777-1.235,1.282-2.621,1.483-4.066c0.101-0.822,0.85-1.407,1.672-1.305c0.822,0.101,1.407,0.85,1.305,1.672
			c-0.002,0.02-0.005,0.04-0.009,0.059c-0.263,1.868-0.919,3.66-1.925,5.256C644.888,415.297,644.412,415.558,643.9,415.558z
			 M354.5,413.021c-0.646,0.002-1.221-0.409-1.427-1.021c-0.467-1.414-0.704-2.894-0.7-4.383c0-0.382,0.015-0.764,0.047-1.147
			c0.087-0.824,0.825-1.422,1.648-1.335c0.799,0.084,1.389,0.782,1.341,1.583c-0.024,0.3-0.036,0.6-0.036,0.9
			c-0.002,1.167,0.184,2.327,0.551,3.435c0.263,0.785-0.16,1.636-0.946,1.899c-0.001,0-0.002,0.001-0.003,0.001
			C354.821,413.001,354.661,413.024,354.5,413.021L354.5,413.021z M644.7,404.037c-0.64,0-1.209-0.405-1.418-1.01
			c-0.541-1.566-1.1-3.121-1.679-4.666c-0.29-0.776,0.104-1.64,0.88-1.931c0.776-0.29,1.64,0.104,1.93,0.88
			c0.586,1.567,1.154,3.146,1.705,4.736c0.271,0.783-0.144,1.637-0.926,1.908C645.034,404.009,644.867,404.037,644.7,404.037
			L644.7,404.037z M355.841,401.378c-0.828,0-1.5-0.672-1.5-1.5c0-0.174,0.03-0.347,0.09-0.511c0.573-1.584,1.165-3.157,1.777-4.719
			c0.328-0.761,1.211-1.111,1.972-0.783c0.724,0.312,1.082,1.132,0.82,1.876c-0.6,1.538-1.183,3.087-1.75,4.648
			c-0.215,0.594-0.78,0.99-1.412,0.989L355.841,401.378z M640.441,392.827c-0.606,0-1.153-0.364-1.386-0.924
			c-0.637-1.529-1.292-3.045-1.965-4.55c-0.343-0.754-0.011-1.643,0.743-1.987c0.754-0.343,1.643-0.011,1.987,0.743
			c0.003,0.006,0.005,0.012,0.008,0.018c0.681,1.521,1.353,3.077,2,4.623c0.319,0.765-0.043,1.643-0.808,1.962
			c-0.182,0.076-0.378,0.115-0.575,0.115L640.441,392.827z M360.277,390.227c-0.828,0.001-1.501-0.67-1.501-1.499
			c0-0.207,0.042-0.412,0.125-0.601c0.668-1.539,1.363-3.086,2.068-4.6c0.35-0.751,1.242-1.076,1.993-0.727s1.076,1.242,0.727,1.993
			l0,0c-0.697,1.496-1.376,3.005-2.036,4.527c-0.239,0.55-0.783,0.905-1.383,0.902L360.277,390.227z M635.484,381.912
			c-0.572,0-1.095-0.325-1.347-0.838c-0.72-1.462-1.477-2.947-2.25-4.415c-0.387-0.733-0.106-1.64,0.627-2.027
			c0.733-0.387,1.64-0.106,2.027,0.627c0.786,1.491,1.556,3,2.287,4.488c0.366,0.743,0.061,1.642-0.683,2.009
			c-0.206,0.101-0.432,0.154-0.661,0.154V381.912z M365.401,379.373c-0.828-0.001-1.5-0.673-1.499-1.501
			c0-0.238,0.057-0.472,0.165-0.683c0.769-1.5,1.563-3,2.36-4.458c0.398-0.727,1.309-0.994,2.036-0.596
			c0.727,0.398,0.994,1.309,0.596,2.036c-0.784,1.434-1.566,2.91-2.322,4.386c-0.259,0.502-0.778,0.816-1.343,0.812L365.401,379.373
			z M629.835,371.333c-0.536,0-1.032-0.286-1.3-0.751c-0.819-1.421-1.672-2.853-2.535-4.257c-0.434-0.706-0.213-1.63,0.493-2.064
			c0.706-0.434,1.63-0.213,2.064,0.493c0.877,1.428,1.744,2.884,2.578,4.329c0.414,0.717,0.168,1.635-0.549,2.049
			C630.358,371.264,630.099,371.333,629.835,371.333L629.835,371.333z M371.218,368.875c-0.828-0.001-1.499-0.674-1.498-1.502
			c0-0.27,0.074-0.536,0.213-0.768c0.86-1.438,1.751-2.882,2.649-4.292c0.43-0.708,1.353-0.933,2.061-0.502s0.933,1.353,0.502,2.061
			c-0.011,0.018-0.022,0.035-0.033,0.052c-0.882,1.387-1.759,2.807-2.605,4.221c-0.273,0.454-0.766,0.73-1.296,0.726
			L371.218,368.875z M623.498,361.15c-0.501,0-0.968-0.249-1.247-0.665c-0.915-1.365-1.862-2.736-2.816-4.075
			c-0.487-0.67-0.338-1.608,0.332-2.095c0.67-0.487,1.608-0.338,2.095,0.332c0.005,0.007,0.01,0.014,0.016,0.022
			c0.971,1.362,1.935,2.757,2.865,4.147c0.461,0.689,0.276,1.62-0.413,2.081C624.084,361.062,623.794,361.15,623.498,361.15z
			 M377.722,358.788c-0.828-0.001-1.499-0.673-1.499-1.501c0-0.305,0.094-0.603,0.268-0.854c0.957-1.378,1.945-2.759,2.936-4.1
			c0.477-0.677,1.413-0.839,2.09-0.362c0.677,0.477,0.839,1.413,0.362,2.09c-0.012,0.018-0.025,0.035-0.038,0.052
			c-0.974,1.322-1.945,2.679-2.885,4.034c-0.284,0.403-0.748,0.642-1.241,0.637L377.722,358.788z M616.484,351.423
			c-0.464,0-0.903-0.214-1.187-0.581c-1.013-1.306-2.054-2.608-3.093-3.87c-0.527-0.64-0.435-1.585,0.205-2.112
			c0.64-0.527,1.585-0.435,2.112,0.205c1.057,1.284,2.116,2.609,3.147,3.939c0.508,0.655,0.388,1.597-0.266,2.105
			C617.139,351.312,616.816,351.423,616.484,351.423L616.484,351.423z M384.9,349.168c-0.828,0-1.5-0.672-1.499-1.501
			c0-0.341,0.117-0.672,0.33-0.938c1.053-1.312,2.135-2.621,3.215-3.888c0.537-0.631,1.484-0.706,2.115-0.169
			c0.631,0.537,0.706,1.484,0.169,2.115c-1.061,1.245-2.124,2.53-3.159,3.82C385.786,348.962,385.355,349.168,384.9,349.168z
			 M608.8,342.205c-0.427,0-0.833-0.182-1.118-0.5c-1.1-1.231-2.234-2.456-3.36-3.64c-0.597-0.574-0.616-1.524-0.042-2.121
			c0.574-0.597,1.524-0.616,2.121-0.042c0.033,0.031,0.064,0.064,0.093,0.098c1.147,1.206,2.3,2.452,3.42,3.7
			c0.552,0.617,0.499,1.566-0.118,2.118c-0.274,0.246-0.63,0.381-0.998,0.382L608.8,342.205z M392.735,340.082
			c-0.828,0-1.5-0.671-1.5-1.5c0-0.378,0.143-0.743,0.4-1.02c1.144-1.235,2.317-2.463,3.486-3.649
			c0.582-0.59,1.531-0.597,2.121-0.016s0.597,1.531,0.016,2.121l0,0c-1.147,1.164-2.3,2.369-3.423,3.582
			c-0.284,0.308-0.684,0.482-1.102,0.481H392.735z M600.481,333.564c-0.388,0.001-0.762-0.15-1.041-0.42
			c-1.2-1.155-2.415-2.3-3.617-3.386c-0.613-0.557-0.659-1.506-0.102-2.12s1.506-0.659,2.12-0.102
			c1.223,1.112,2.462,2.272,3.682,3.448c0.596,0.575,0.612,1.525,0.037,2.121C601.277,333.399,600.888,333.564,600.481,333.564z
			 M401.207,331.583c-0.828,0.002-1.502-0.667-1.504-1.496c-0.001-0.419,0.173-0.819,0.48-1.104c1.225-1.142,2.485-2.28,3.743-3.383
			c0.614-0.557,1.562-0.51,2.119,0.103c0.557,0.614,0.51,1.562-0.103,2.119c-0.012,0.011-0.025,0.022-0.037,0.033
			c-1.236,1.083-2.472,2.2-3.675,3.323c-0.278,0.26-0.644,0.405-1.024,0.405H401.207z M591.55,325.555
			c-0.35,0-0.689-0.123-0.958-0.347c-1.265-1.052-2.563-2.1-3.857-3.107c-0.653-0.51-0.77-1.453-0.26-2.106
			c0.51-0.653,1.453-0.77,2.106-0.26c1.318,1.029,2.641,2.095,3.929,3.166c0.637,0.529,0.725,1.475,0.196,2.112
			C592.42,325.357,591.997,325.556,591.55,325.555z M410.279,323.733c-0.828,0-1.5-0.671-1.5-1.5c0-0.455,0.206-0.886,0.561-1.17
			c0.698-0.56,1.401-1.114,2.108-1.662c0.625-0.484,1.253-0.963,1.882-1.437c0.661-0.499,1.602-0.367,2.101,0.294
			c0.499,0.661,0.367,1.602-0.294,2.101c-0.002,0.002-0.005,0.003-0.007,0.005c-0.618,0.467-1.234,0.937-1.849,1.412
			c-0.694,0.538-1.383,1.082-2.068,1.631c-0.266,0.212-0.596,0.327-0.936,0.326H410.279z M582.047,318.233
			c-0.311,0.001-0.615-0.096-0.868-0.277c-1.345-0.957-2.716-1.9-4.078-2.8c-0.69-0.458-0.878-1.39-0.42-2.08
			c0.458-0.69,1.39-0.878,2.08-0.42c1.387,0.922,2.786,1.883,4.156,2.858c0.675,0.48,0.833,1.417,0.352,2.092
			c-0.281,0.395-0.737,0.63-1.222,0.63V318.233z M419.923,316.579c-0.828,0.001-1.501-0.669-1.503-1.497
			c-0.001-0.497,0.244-0.962,0.655-1.242c1.388-0.949,2.806-1.885,4.215-2.783c0.695-0.451,1.624-0.253,2.075,0.443
			c0.451,0.695,0.253,1.624-0.443,2.075c-0.007,0.004-0.013,0.009-0.02,0.013c-1.381,0.88-2.773,1.8-4.134,2.73
			c-0.249,0.172-0.544,0.264-0.847,0.264L419.923,316.579z M572.017,311.668c-0.271,0.001-0.538-0.073-0.77-0.213
			c-1.422-0.852-2.864-1.684-4.287-2.473c-0.724-0.402-0.985-1.316-0.583-2.04s1.316-0.985,2.04-0.583
			c1.45,0.805,2.921,1.654,4.371,2.522c0.711,0.426,0.942,1.347,0.516,2.057C573.033,311.391,572.544,311.668,572.017,311.668
			L572.017,311.668z M430.087,310.2c-0.828,0-1.5-0.672-1.5-1.5c0-0.536,0.287-1.032,0.752-1.3c1.454-0.834,2.943-1.655,4.424-2.44
			c0.718-0.414,1.635-0.167,2.049,0.551s0.167,1.635-0.551,2.049c-0.032,0.018-0.065,0.036-0.098,0.052
			c-1.451,0.769-2.91,1.574-4.335,2.392C430.602,310.132,430.347,310.2,430.087,310.2z M561.487,305.925
			c-0.23,0-0.458-0.053-0.664-0.156c-1.474-0.729-2.978-1.441-4.471-2.115c-0.755-0.342-1.09-1.231-0.748-1.986
			c0.342-0.755,1.23-1.09,1.985-0.749c1.522,0.689,3.058,1.415,4.564,2.16c0.743,0.367,1.048,1.266,0.681,2.009
			C562.581,305.602,562.059,305.926,561.487,305.925z M440.73,304.656c-0.828,0.001-1.501-0.67-1.502-1.498
			c-0.001-0.582,0.336-1.113,0.863-1.36c1.525-0.716,3.076-1.412,4.611-2.069c0.765-0.318,1.643,0.045,1.96,0.811
			c0.313,0.753-0.034,1.618-0.78,1.947c-1.5,0.643-3.022,1.325-4.515,2.026C441.168,304.607,440.95,304.656,440.73,304.656z
			 M550.53,301.062c-0.188,0-0.375-0.036-0.55-0.106c-1.526-0.6-3.083-1.185-4.63-1.732c-0.776-0.289-1.172-1.152-0.883-1.929
			c0.282-0.759,1.115-1.156,1.883-0.899c1.58,0.559,3.171,1.154,4.729,1.77c0.773,0.297,1.159,1.165,0.862,1.938
			c-0.224,0.584-0.787,0.967-1.413,0.962L550.53,301.062z M451.795,300.014c-0.828,0.001-1.501-0.669-1.502-1.498
			c-0.001-0.629,0.39-1.191,0.98-1.409c1.566-0.581,3.17-1.144,4.769-1.673c0.793-0.241,1.631,0.206,1.872,0.999
			c0.233,0.765-0.176,1.578-0.929,1.848c-1.565,0.519-3.135,1.07-4.669,1.638c-0.167,0.063-0.344,0.095-0.523,0.095H451.795z
			 M539.195,297.14c-0.146,0-0.291-0.022-0.43-0.064c-1.574-0.47-3.175-0.917-4.762-1.33c-0.81-0.172-1.327-0.969-1.155-1.779
			s0.969-1.327,1.779-1.155c0.044,0.009,0.088,0.021,0.132,0.034c1.621,0.421,3.258,0.879,4.865,1.359
			c0.794,0.236,1.247,1.071,1.011,1.865c-0.189,0.637-0.775,1.074-1.44,1.073L539.195,297.14z M463.208,296.326
			c-0.828,0.003-1.502-0.667-1.505-1.495c-0.002-0.678,0.451-1.273,1.105-1.452c1.617-0.446,3.264-0.869,4.895-1.257
			c0.806-0.192,1.615,0.306,1.807,1.112c0.192,0.806-0.306,1.615-1.113,1.807c-1.6,0.379-3.208,0.793-4.791,1.23
			C463.476,296.307,463.343,296.326,463.208,296.326L463.208,296.326z M527.567,294.206c-0.103,0-0.205-0.011-0.305-0.032
			c-1.611-0.333-3.245-0.639-4.86-0.912c-0.816-0.142-1.363-0.918-1.221-1.735c0.141-0.811,0.909-1.357,1.721-1.223
			c1.65,0.279,3.321,0.592,4.967,0.933c0.811,0.168,1.333,0.961,1.166,1.772c-0.144,0.696-0.755,1.195-1.466,1.197H527.567z
			 M474.898,293.638c-0.828-0.001-1.499-0.674-1.497-1.503c0.001-0.722,0.517-1.341,1.227-1.472c1.653-0.306,3.33-0.583,4.986-0.826
			c0.818-0.129,1.586,0.43,1.715,1.248c0.129,0.818-0.43,1.586-1.248,1.715c-0.01,0.002-0.02,0.003-0.031,0.004
			c-1.619,0.237-3.26,0.509-4.878,0.808c-0.09,0.017-0.181,0.025-0.272,0.025L474.898,293.638z M515.726,292.294
			c-0.059,0-0.118-0.003-0.177-0.01c-1.619-0.19-3.276-0.353-4.92-0.485c-0.825-0.08-1.428-0.813-1.349-1.637
			c0.078-0.806,0.781-1.404,1.589-1.353c1.681,0.135,3.373,0.3,5.029,0.495c0.823,0.096,1.413,0.84,1.317,1.663
			C517.127,291.723,516.487,292.294,515.726,292.294z M486.777,291.981c-0.828-0.003-1.498-0.676-1.495-1.505
			c0.002-0.771,0.588-1.414,1.355-1.488c1.667-0.159,3.363-0.289,5.039-0.387c0.828-0.048,1.539,0.584,1.587,1.413
			s-0.584,1.539-1.413,1.587c-1.641,0.1-3.3,0.223-4.93,0.378C486.873,291.982,486.825,291.983,486.777,291.981L486.777,291.981z
			 M503.76,291.424h-0.045c-1.314-0.038-2.63-0.057-3.948-0.057h-1h-0.011c-0.828,0.003-1.502-0.666-1.505-1.495
			s0.666-1.502,1.495-1.505h1.022c1.345,0,2.689,0.019,4.034,0.058c0.828,0.012,1.49,0.693,1.478,1.521
			c-0.012,0.828-0.693,1.49-1.521,1.479L503.76,291.424z"/>
		<path fill="#EDAB7A" d="M510.1,634.068l-6.658,7.483c-1.79,2.011-4.871,2.191-6.883,0.401c-0.141-0.126-0.276-0.26-0.401-0.401
			l-6.657-7.483c-0.451-0.507-0.7-1.162-0.7-1.841V566.9c0-1.53,1.24-2.77,2.77-2.77l0,0h16.461c1.529,0.001,2.769,1.241,2.769,2.77
			v65.33C510.8,632.908,510.551,633.562,510.1,634.068z"/>
		<path fill="#3E3442" d="M499.8,645.738L499.8,645.738c-2.501-0.001-4.882-1.07-6.545-2.937l-6-6.739
			c-0.941-1.055-1.461-2.42-1.46-3.834V566.9c0.004-3.185,2.585-5.766,5.77-5.769h16.46c3.185,0.003,5.766,2.584,5.77,5.769v65.332
			c0,1.414-0.519,2.778-1.459,3.834l-5.995,6.739C504.678,644.67,502.299,645.737,499.8,645.738z M491.8,632.138l5.937,6.672
			c0.521,0.592,1.274,0.93,2.063,0.926l0,0c0.789,0.004,1.542-0.333,2.063-0.926l5.937-6.672v-65.011h-16V632.138z M507.858,632.071
			L507.858,632.071L507.858,632.071z"/>
		<path fill="#3E3442" d="M510.8,618.1h-22c-1.657,0-3-1.343-3-3v-13.5c0-1.657,1.343-3,3-3h22c1.657,0,3,1.343,3,3v13.5
			C513.8,616.757,512.457,618.1,510.8,618.1z M491.8,612.1h16v-7.5h-16V612.1z"/>
		<path fill="#3E3442" d="M499.8,618.1c-1.657,0-3-1.343-3-3v-12.333c0-1.657,1.343-3,3-3s3,1.343,3,3V615.1
			C502.8,616.757,501.457,618.1,499.8,618.1z"/>
		<circle fill="#3E3442" cx="499.797" cy="577.602" r="3.375"/>
		<circle fill="#3E3442" cx="499.797" cy="591.602" r="3.375"/>
		<circle fill="#3E3442" cx="499.797" cy="624.977" r="3.375"/>
		<path fill="#EDAB7A" d="M453.133,353.771l-6.658,7.482c-1.789,2.011-4.87,2.191-6.881,0.402c-0.142-0.126-0.276-0.26-0.402-0.402
			l-6.658-7.482c-0.451-0.507-0.7-1.162-0.7-1.841V269.6c0-1.53,1.24-2.77,2.77-2.77h16.461c1.529,0.001,2.769,1.241,2.769,2.77
			v82.33C453.834,352.609,453.584,353.264,453.133,353.771z"/>
		<path fill="#3E3442" d="M442.833,365.44c-2.501-0.001-4.882-1.069-6.545-2.937l-6-6.738c-0.94-1.056-1.459-2.421-1.459-3.835
			V269.6c0.004-3.185,2.585-5.766,5.77-5.77h16.46c3.185,0.003,5.767,2.585,5.77,5.77v82.33c0.001,1.414-0.518,2.779-1.459,3.835
			l-6,6.738C447.709,364.369,445.331,365.437,442.833,365.44z M434.833,351.84l5.938,6.673c1.066,1.139,2.854,1.198,3.993,0.132
			c0.045-0.043,0.089-0.087,0.132-0.132l5.937-6.673v-82.011h-16V351.84z M450.892,351.774L450.892,351.774z"/>
		<rect x="431.833" y="321.304" opacity="0.6" fill="#EDAB7A" enable-background="new    " width="22" height="13.5"/>
		<path fill="#3E3442" d="M453.833,337.8h-22c-1.657,0-3-1.343-3-3v-13.5c0-1.657,1.343-3,3-3h22c1.657,0,3,1.343,3,3v13.5
			C456.833,336.457,455.49,337.8,453.833,337.8z M434.833,331.8h16v-7.5h-16V331.8z"/>
		<path fill="#3E3442" d="M442.833,337.8c-1.657,0-3-1.343-3-3v-12.331c0-1.657,1.343-3,3-3s3,1.343,3,3V334.8
			C445.833,336.457,444.49,337.8,442.833,337.8z"/>
		<circle fill="#3E3442" cx="442.833" cy="297.304" r="3.375"/>
		<circle fill="#3E3442" cx="442.833" cy="311.304" r="3.375"/>
		<circle fill="#3E3442" cx="442.833" cy="344.679" r="3.375"/>
		<path fill="#EDAB7A" d="M565.466,353.771l-6.658,7.482c-1.789,2.011-4.87,2.191-6.881,0.402c-0.142-0.126-0.276-0.26-0.402-0.402
			l-6.658-7.482c-0.451-0.507-0.7-1.162-0.7-1.841V269.6c0-1.529,1.24-2.769,2.769-2.77H563.4c1.53,0,2.77,1.24,2.77,2.77l0,0v82.33
			C566.169,352.609,565.918,353.264,565.466,353.771z"/>
		<rect x="544.167" y="321.304" opacity="0.6" fill="#EDAB7A" enable-background="new    " width="22" height="13.5"/>
		<path fill="#3E3442" d="M555.167,365.44c-2.501-0.001-4.883-1.069-6.546-2.937l-6-6.738c-0.94-1.056-1.459-2.421-1.459-3.835
			V269.6c0.003-3.185,2.585-5.767,5.77-5.77H563.4c3.185,0.003,5.767,2.585,5.771,5.77v82.33c0,1.414-0.52,2.779-1.46,3.835
			l-6,6.738C560.048,364.37,557.667,365.439,555.167,365.44z M547.167,351.84l5.937,6.673c1.065,1.139,2.851,1.2,3.99,0.135
			c0.047-0.043,0.091-0.088,0.135-0.135l5.938-6.673v-82.011h-16V351.84z M563.225,351.774L563.225,351.774z"/>
		<circle fill="#3E3442" cx="442.833" cy="283.304" r="3.375"/>
		<circle fill="#3E3442" cx="555.167" cy="283.304" r="3.375"/>
		<circle fill="#3E3442" cx="442.833" cy="270.204" r="3.375"/>
		<circle fill="#3E3442" cx="555.167" cy="270.204" r="3.375"/>
		<rect x="544.167" y="321.304" opacity="0.6" fill="#EDAB7A" enable-background="new    " width="22" height="13.5"/>
		<path fill="#3E3442" d="M566.167,337.8h-22c-1.657,0-3-1.343-3-3v-13.5c0-1.657,1.343-3,3-3h22c1.657,0,3,1.343,3,3v13.5
			C569.167,336.457,567.824,337.8,566.167,337.8z M547.167,331.8h16v-7.5h-16V331.8z"/>
		<path fill="#3E3442" d="M555.167,337.8c-1.657,0-3-1.343-3-3v-12.331c0-1.657,1.343-3,3-3s3,1.343,3,3V334.8
			C558.167,336.457,556.824,337.8,555.167,337.8z"/>
		<circle fill="#3E3442" cx="555.167" cy="297.304" r="3.375"/>
		<circle fill="#3E3442" cx="555.167" cy="311.304" r="3.375"/>
		<circle fill="#3E3442" cx="555.167" cy="344.679" r="3.375"/>
		<path fill="#826776" d="M478.514,375.866h41.504c4.003,0,7.248,3.245,7.248,7.248v49.004c0,4.003-3.245,7.248-7.248,7.248h-41.504
			c-4.003,0-7.248-3.245-7.248-7.248v-49.004C471.266,379.111,474.511,375.866,478.514,375.866z"/>
		<rect x="471.266" y="375.866" opacity="0.32" fill="#725865" enable-background="new    " width="56" height="27.611"/>
		<path fill="#3E3442" d="M520.018,442.366h-41.5c-5.657-0.006-10.242-4.591-10.248-10.248v-49
			c0.006-5.657,4.591-10.242,10.248-10.249h41.5c5.657,0.007,10.241,4.592,10.248,10.249v49
			C530.259,437.775,525.675,442.359,520.018,442.366z M478.518,378.866c-2.345,0.003-4.246,1.904-4.248,4.249v49
			c0.003,2.345,1.903,4.245,4.248,4.248h41.5c2.345-0.003,4.245-1.903,4.248-4.248v-49c-0.002-2.345-1.903-4.246-4.248-4.249
			H478.518z"/>
		<path fill="#3E3442" d="M515.372,434.366h-3c-0.552,0-1-0.448-1-1s0.448-1,1-1h3c0.552,0,1,0.448,1,1
			S515.924,434.366,515.372,434.366z M507.372,434.366h-3c-0.552,0-1-0.448-1-1s0.448-1,1-1h3c0.552,0,1,0.448,1,1
			S507.924,434.366,507.372,434.366z M499.372,434.366h-3c-0.552,0-1-0.448-1-1s0.448-1,1-1h3c0.552,0,1,0.448,1,1
			S499.924,434.366,499.372,434.366z M491.372,434.366h-3c-0.552,0-1-0.448-1-1s0.448-1,1-1h3c0.552,0,1,0.448,1,1
			S491.924,434.366,491.372,434.366z M483.372,434.366h-3c-0.204-0.513-0.786-0.763-1.299-0.559
			c-0.255,0.102-0.457,0.304-0.559,0.559c-1.241-0.002-2.246-1.007-2.248-2.248v-1.039c0-0.552,0.448-1,1-1s1,0.448,1,1v1.039
			c0,0.137,0.111,0.248,0.248,0.248c0.204,0.513,0.786,0.763,1.299,0.559c0.255-0.102,0.457-0.304,0.559-0.559h3
			c0.552,0,1,0.448,1,1S483.924,434.366,483.372,434.366z M520.367,434.317c-0.552,0.001-1-0.447-1.001-0.999
			c0-0.445,0.293-0.836,0.72-0.961c0.106-0.031,0.179-0.128,0.18-0.239v-1.394c0-0.552,0.448-1,1-1s1,0.448,1,1v1.394
			c-0.004,0.997-0.662,1.874-1.618,2.158C520.557,434.303,520.462,434.317,520.367,434.317z M477.267,427.079c-0.552,0-1-0.448-1-1
			v-3c0-0.552,0.448-1,1-1s1,0.448,1,1v3C478.267,426.631,477.819,427.079,477.267,427.079c0,0-0.001,0-0.001,0L477.267,427.079z
			 M521.267,426.724c-0.552,0-1-0.448-1-1v-3c0-0.552,0.448-1,1-1s1,0.448,1,1v3C522.267,426.276,521.819,426.724,521.267,426.724
			C521.267,426.724,521.266,426.724,521.267,426.724L521.267,426.724z M477.267,419.079c-0.552,0-1-0.448-1-1v-3
			c0-0.552,0.448-1,1-1s1,0.448,1,1v3C478.267,418.631,477.819,419.079,477.267,419.079
			C477.267,419.079,477.266,419.079,477.267,419.079L477.267,419.079z M521.267,418.724c-0.552,0-1-0.448-1-1v-3
			c0-0.552,0.448-1,1-1s1,0.448,1,1v3C522.267,418.276,521.819,418.724,521.267,418.724
			C521.267,418.724,521.266,418.724,521.267,418.724L521.267,418.724z M477.267,411.079c-0.552,0-1-0.448-1-1v-3
			c0-0.552,0.448-1,1-1s1,0.448,1,1v3C478.267,410.631,477.819,411.079,477.267,411.079
			C477.267,411.079,477.266,411.079,477.267,411.079L477.267,411.079z M521.267,410.724c-0.552,0-1-0.448-1-1v-3
			c0-0.552,0.448-1,1-1s1,0.448,1,1v3C522.267,410.276,521.819,410.724,521.267,410.724
			C521.267,410.724,521.266,410.724,521.267,410.724L521.267,410.724z M477.267,403.079c-0.552,0-1-0.448-1-1v-3
			c0-0.552,0.448-1,1-1s1,0.448,1,1v3C478.267,402.631,477.819,403.079,477.267,403.079
			C477.267,403.079,477.266,403.079,477.267,403.079L477.267,403.079z M521.267,402.724c-0.552,0-1-0.448-1-1v-3
			c0-0.552,0.448-1,1-1s1,0.448,1,1v3C522.267,402.276,521.819,402.724,521.267,402.724
			C521.267,402.724,521.266,402.724,521.267,402.724L521.267,402.724z M477.267,395.079c-0.552,0-1-0.448-1-1v-3
			c0-0.552,0.448-1,1-1s1,0.448,1,1v3C478.267,394.631,477.819,395.079,477.267,395.079
			C477.267,395.079,477.266,395.079,477.267,395.079L477.267,395.079z M521.267,394.724c-0.552,0-1-0.448-1-1v-3
			c0-0.552,0.448-1,1-1s1,0.448,1,1v3C522.267,394.276,521.819,394.724,521.267,394.724
			C521.267,394.724,521.266,394.724,521.267,394.724L521.267,394.724z M477.267,387.079c-0.552,0-1-0.448-1-1v-2.964l1-0.036l1,0.04
			v2.96C478.267,386.631,477.819,387.079,477.267,387.079C477.267,387.079,477.266,387.079,477.267,387.079L477.267,387.079z
			 M521.267,386.724c-0.552,0-1-0.448-1-1v-2.609c-0.174-0.535,0.109-1.111,0.638-1.3c0.505-0.182,1.063,0.079,1.246,0.585
			c0.003,0.007,0.005,0.014,0.007,0.021c0.072,0.224,0.109,0.457,0.109,0.692v2.609c0.001,0.552-0.446,1.001-0.998,1.002
			C521.268,386.724,521.267,386.724,521.267,386.724L521.267,386.724z M516.589,382.866h-3c-0.552,0-1-0.448-1-1s0.448-1,1-1h3
			c0.552,0,1,0.448,1,1S517.141,382.866,516.589,382.866z M508.589,382.866h-3c-0.552,0-1-0.448-1-1s0.448-1,1-1h3
			c0.552,0,1,0.448,1,1S509.141,382.866,508.589,382.866z M500.589,382.866h-3c-0.552,0-1-0.448-1-1s0.448-1,1-1h3
			c0.552,0,1,0.448,1,1S501.141,382.866,500.589,382.866z M492.589,382.866h-3c-0.552,0-1-0.448-1-1s0.448-1,1-1h3
			c0.552,0,1,0.448,1,1S493.141,382.866,492.589,382.866z M484.589,382.866h-3c-0.552,0-1-0.448-1-1s0.448-1,1-1h3
			c0.552,0,1,0.448,1,1S485.141,382.866,484.589,382.866z"/>
		<rect x="466.266" y="354.866" fill="#F26161" width="66" height="38.333"/>
		<path fill="#3E3442" d="M532.266,396.2h-66c-1.657,0-3-1.343-3-3v-38.334c0-1.657,1.343-3,3-3h66c1.657,0,3,1.343,3,3V393.2
			C535.266,394.857,533.923,396.2,532.266,396.2z M469.266,390.2h60v-32.334h-60V390.2z"/>
		<path fill="#725865" d="M453.941,518.19h88.208c4.52,0,8.185,3.665,8.185,8.185v0.001c0,4.52-3.665,8.185-8.185,8.185h-88.208
			c-4.52,0-8.185-3.665-8.185-8.185v-0.001C445.756,521.855,449.421,518.19,453.941,518.19z"/>
		<path fill="#3E3442" d="M542.147,536.561h-88.206c-5.626,0-10.186-4.56-10.186-10.186c0-5.626,4.56-10.186,10.186-10.186h88.206
			c5.626,0,10.186,4.56,10.186,10.186C552.333,532.001,547.773,536.561,542.147,536.561L542.147,536.561z M453.941,520.189
			c-3.416,0-6.186,2.77-6.186,6.186c0,3.416,2.77,6.186,6.186,6.186h88.206c3.416,0,6.186-2.77,6.186-6.186
			c0-3.416-2.77-6.186-6.186-6.186H453.941z"/>
		<rect x="507.5" y="523.375" fill="#3E3442" width="29.626" height="6"/>
		<rect x="483.167" y="523.375" fill="#3E3442" width="14.877" height="6"/>
		<rect x="458.963" y="523.375" fill="#3E3442" width="16.371" height="6"/>
		<rect x="488.531" y="350.116" fill="#D35050" width="21.469" height="64.75"/>
		<path fill="#3E3442" d="M510,416.866h-21.469c-1.105,0-2-0.895-2-2v-64.75c0-1.105,0.895-2,2-2H510c1.105,0,2,0.895,2,2v64.75
			C512,415.971,511.105,416.866,510,416.866z M490.531,412.866H508v-60.75h-17.469V412.866z"/>
		<path fill="#3E3442" d="M499.8,407.712c-3.176,0-5.75-2.574-5.75-5.75s2.574-5.75,5.75-5.75s5.75,2.574,5.75,5.75
			C505.546,405.136,502.974,407.708,499.8,407.712z M499.8,400.212c-0.966,0-1.75,0.784-1.75,1.75s0.784,1.75,1.75,1.75
			s1.75-0.784,1.75-1.75C501.549,400.996,500.766,400.213,499.8,400.212z"/>
		<circle fill="#826776" cx="573.775" cy="404.914" r="14.714"/>
		<path fill="#3E3442" d="M573.774,420.628c-8.679-0.001-15.714-7.036-15.713-15.715c0.001-8.679,7.036-15.714,15.715-15.713
			c8.678,0.001,15.713,7.036,15.713,15.714C589.48,413.589,582.449,420.619,573.774,420.628z M573.774,391.2
			c-7.574,0.001-13.714,6.141-13.713,13.715c0.001,7.574,6.141,13.714,13.715,13.713c7.574-0.001,13.713-6.14,13.713-13.714
			C587.481,397.343,581.345,391.208,573.774,391.2L573.774,391.2z"/>
		<polygon fill="#8CA85E" points="567.799,411.029 573.775,395.926 579.75,411.029 		"/>
		<path fill="#3E3442" d="M579.75,412.028H567.8c-0.552,0-1-0.448-1-1c0-0.126,0.024-0.25,0.07-0.367l5.976-15.1
			c0.204-0.513,0.785-0.764,1.298-0.561c0.256,0.102,0.459,0.305,0.561,0.561l5.976,15.1c0.203,0.514-0.049,1.095-0.563,1.297
			c-0.117,0.046-0.241,0.07-0.367,0.07H579.75z M569.27,410.028h9.009l-4.5-11.384L569.27,410.028z"/>
		<path fill="#3E3442" d="M774,755.884h-25.333c-2.761,0-5-2.239-5-5s2.239-5,5-5H774c2.761,0,5,2.239,5,5
			S776.761,755.884,774,755.884z"/>
		<path fill="#3E3442" d="M804.25,755.884H794c-2.761,0-5-2.239-5-5s2.239-5,5-5h10.25c2.761,0,5,2.239,5,5
			S807.011,755.884,804.25,755.884z"/>
		<path fill="#3E3442" d="M712.22,755.884H322.269c-2.761,0-5-2.239-5-5s2.239-5,5-5H712.22c2.761,0,5,2.239,5,5
			S714.981,755.884,712.22,755.884z"/>
		<path fill="#3E3442" d="M297.333,755.884h-56.678c-2.761,0-5-2.239-5-5s2.239-5,5-5h56.678c2.761,0,5,2.239,5,5
			S300.094,755.884,297.333,755.884z"/>
	</g>
</g>
</svg>