<svg xmlns="http://www.w3.org/2000/svg" viewBox="0 0 500 500"><g id="freepik--background-complete--inject-85"><path d="M102.13,358.45c5.5-2.84,12-3.21,18.1-2.2,3.28.55,6.71,1.53,8.94,4s2.66,6.81.09,8.92c-1.52,1.27-3.65,1.46-5.63,1.44-4.79-.06-10.1-.9-13.92,2-2.18,1.64-3.64,4.37-6.24,5.18s-5.43-.72-6.79-3a10.51,10.51,0,0,1-.76-7.78A11.87,11.87,0,0,1,102.13,358.45Z" style="fill:#ebebeb"></path><path d="M89.51,334.1c3.37,4.81,9.91,3.22,12.95.28s4.31-7.19,5.48-11.24c2.67-9.27,5.36-19,3.37-28.44a15.83,15.83,0,0,0-3.63-7.73,8.27,8.27,0,0,0-7.82-2.6c-3.3.87-5.35,4.11-6.83,7.18a67.82,67.82,0,0,0-6.7,29.09c0,4.68.54,9.59,3.18,13.46" style="fill:#ebebeb"></path><path d="M80.26,341c3.66-4.34,4.35-10.67,2.73-16.1s-5.3-10.06-9.54-13.83A51.35,51.35,0,0,0,56.37,301a18.31,18.31,0,0,0-7.68-1.31,8.05,8.05,0,0,0-6.44,3.9c-1.8,3.43-.08,7.59,1.79,11a129.49,129.49,0,0,0,11.21,17.08c3.36,4.34,7.22,8.61,12.34,10.57s10.45,1.73,13.16-1.82" style="fill:#ebebeb"></path><path d="M89.28,406.64a9.54,9.54,0,0,0,.31-2.18c.15-1.59.35-3.59.58-6a85.68,85.68,0,0,1,1.34-8.74,66.66,66.66,0,0,1,3.18-10.33,38,38,0,0,1,5.27-9.34,19.68,19.68,0,0,1,6.67-5.54,18.75,18.75,0,0,1,5.61-1.75,10.61,10.61,0,0,0,2.17-.31,10.79,10.79,0,0,0-2.21,0,17.12,17.12,0,0,0-5.85,1.53,19.53,19.53,0,0,0-7,5.59,36.92,36.92,0,0,0-5.47,9.53,62.37,62.37,0,0,0-3.15,10.49,72.88,72.88,0,0,0-1.17,8.86c-.19,2.53-.26,4.58-.29,6A10.78,10.78,0,0,0,89.28,406.64Z" style="fill:#e0e0e0"></path><path d="M89.69,402.05a4.42,4.42,0,0,0,.06-1c0-.76,0-1.72,0-2.9,0-2.52,0-6.16.13-10.65.23-9,1-18.68,2.5-32.32,1.41-12.83,3.31-27.76,5.32-37.47.43-2.21.86-4.2,1.27-5.94s.72-3.24,1-4.46.5-2.08.68-2.82a4.13,4.13,0,0,0,.18-1,4.5,4.5,0,0,0-.36.95c-.22.73-.49,1.65-.84,2.78s-.75,2.7-1.19,4.44-.93,3.71-1.4,5.92a327.41,327.41,0,0,0-5.6,34.76C90,366,89.3,378.46,89.24,387.47c-.06,4.51,0,8.16.15,10.68.08,1.18.13,2.14.18,2.9A4.26,4.26,0,0,0,89.69,402.05Z" style="fill:#e0e0e0"></path><path d="M89.75,378a17.16,17.16,0,0,0,0-3c-.11-1.94-.38-4.76-.92-8.2a111.84,111.84,0,0,0-2.67-12,99.83,99.83,0,0,0-5-14.15,75.32,75.32,0,0,0-14.69-22.86A37.6,37.6,0,0,0,63,314.63c-.53-.45-1-.89-1.47-1.25l-1.34-.92a19.28,19.28,0,0,0-2.55-1.63c-.15.19,3.61,2.4,8.35,7.45a79.36,79.36,0,0,1,14.32,22.78,113.13,113.13,0,0,1,5,14c1.31,4.39,2.18,8.43,2.84,11.84s1,6.19,1.2,8.12A20.07,20.07,0,0,0,89.75,378Z" style="fill:#e0e0e0"></path><polygon points="66.54 420.4 68.95 453.37 111.3 453.37 113.7 420.4 66.54 420.4" style="fill:#e0e0e0"></polygon><rect x="62.45" y="407.41" width="56.3" height="12.99" style="fill:#e0e0e0"></rect><polygon points="62.45 452.1 62.45 455.7 65.1 455.7 117.83 455.7 117.83 452.1 62.45 452.1" style="fill:#ebebeb"></polygon><polygon points="67.69 462.04 65.1 455.7 115.81 455.7 112.79 462.04 67.69 462.04" style="fill:#e0e0e0"></polygon><path d="M112.92,431.17a1.5,1.5,0,0,1-.2.31l-.63.84-2.47,3.15-.11.14-.1-.14-6.07-8.39h.35l-6,8.45-.19.27-.21-.25c-2.2-2.62-4.59-5.47-7.08-8.42h.41c-.12.16-.25.33-.39.49l-6.33,7.94-.21.26-.19-.27-6-8.45h.35l-7.36,8.38-.13.15-.1-.17L68,431.6l-.59-1a2,2,0,0,1-.18-.37,1.76,1.76,0,0,1,.25.32l.65,1,2.42,3.79-.23,0,7.23-8.47.18-.22.17.23,6,8.41h-.4l6.31-8,.39-.48.2-.26.21.25,7,8.44h-.39c2.18-3,4.2-5.86,6-8.4l.18-.25.17.25,5.94,8.47h-.22l2.57-3.07.68-.8A1.65,1.65,0,0,1,112.92,431.17Z" style="fill:#f5f5f5"></path><path d="M114.29,420.18c0,.15-10.61.27-23.69.27s-23.7-.12-23.7-.27,10.61-.26,23.7-.26S114.29,420,114.29,420.18Z" style="fill:#f5f5f5"></path><path d="M116.43,456.06c0,.15-11.53.26-25.75.26s-25.76-.11-25.76-.26,11.53-.26,25.76-.26S116.43,455.91,116.43,456.06Z" style="fill:#f5f5f5"></path><rect x="242.79" y="50.5" width="194.34" height="349.11" style="fill:#ebebeb"></rect><rect x="250.55" y="60.62" width="176.8" height="328.59" style="fill:#fafafa"></rect><polygon points="445.34 402.76 437.12 399.61 437.12 44.58 445.34 44.58 445.34 402.76" style="fill:#e0e0e0"></polygon><rect x="250.55" y="155.15" width="180.64" height="3.5" style="fill:#e0e0e0"></rect><rect x="250.55" y="233.4" width="180.64" height="3.5" style="fill:#e0e0e0"></rect><rect x="250.55" y="311.65" width="180.64" height="3.5" style="fill:#e0e0e0"></rect><rect x="218.14" y="273.24" width="241.63" height="8.93" transform="translate(61.24 616.67) rotate(-90)" style="fill:#e0e0e0"></rect><rect x="284.6" y="60.62" width="4.05" height="96.27" style="fill:#e0e0e0"></rect><rect x="319.5" y="60.62" width="4.05" height="96.27" style="fill:#e0e0e0"></rect><rect x="354.4" y="60.62" width="4.05" height="96.27" style="fill:#e0e0e0"></rect><rect x="389.31" y="60.62" width="4.05" height="96.27" style="fill:#e0e0e0"></rect><rect x="234.57" y="44.58" width="8.22" height="357.19" style="fill:#e0e0e0"></rect><rect x="234.57" y="40.97" width="210.78" height="9.53" style="fill:#e0e0e0"></rect><rect x="228.74" y="403.93" width="222.17" height="8.87" style="fill:#e0e0e0"></rect><polygon points="437.12 399.61 450.91 403.93 228.74 403.93 242.79 399.61 437.12 399.61" style="fill:#ebebeb"></polygon></g><g id="freepik--Desk--inject-85"><path d="M464.63,462c0,.15-96.1.26-214.62.26S35.37,462.19,35.37,462s96.08-.26,214.64-.26S464.63,461.9,464.63,462Z" style="fill:#263238"></path></g><g id="freepik--speech-bubble--inject-85"><path d="M58.77,185.59a34.37,34.37,0,0,1,3.82-35.86c-18.44-7.58-28.37-30.29-21.12-48.3S72,73.11,90.89,79.5c3.26-17.23,19-31.55,37.1-33.67S164.93,54,172.38,70c10.4-2.41,22.13,2.12,27.91,10.79a24.93,24.93,0,0,1,.51,26.09c8.43,5.65,13.35,15.93,12.13,25.77-1.3,10.53-9.55,19.95-20.11,23a37.5,37.5,0,0,1,1,38.24c-6.7,11.71-20.22,19.5-34.1,19.64s-27.56-7.36-34.52-18.92A44.38,44.38,0,0,1,89.4,206.79C76.38,205.2,64.32,197,58.77,185.59Z" style="fill:#fff"></path><path d="M58.77,185.59s.23.4.65,1.19a35.07,35.07,0,0,0,2.09,3.38,39.82,39.82,0,0,0,4.16,5,41.29,41.29,0,0,0,6.93,5.5,40.51,40.51,0,0,0,10.1,4.62,40.07,40.07,0,0,0,13.11,1.68,44.52,44.52,0,0,0,29.26-12.5l.16-.16.11.19a38.76,38.76,0,0,0,8.25,9.48,42,42,0,0,0,11.61,6.7,44,44,0,0,0,6.75,1.93,41.48,41.48,0,0,0,7.17.69,37.55,37.55,0,0,0,7.36-.68,38.81,38.81,0,0,0,7.27-2.1,39.29,39.29,0,0,0,6.91-3.49,38.59,38.59,0,0,0,6.26-4.83,39.07,39.07,0,0,0,5.24-6.13,36.75,36.75,0,0,0,3.78-7.29,37.83,37.83,0,0,0,2.23-16.62,37.3,37.3,0,0,0-5.55-16.39l-.18-.28.32-.09a28.49,28.49,0,0,0,12.5-7.64,27.31,27.31,0,0,0,7.11-13.26c2.11-10.14-2.8-21.42-11.71-27.38l-.2-.14.12-.21A24.79,24.79,0,0,0,203.93,93a23.4,23.4,0,0,0-5.08-13.71A26.18,26.18,0,0,0,186.79,71a26.78,26.78,0,0,0-14.35-.82l-.2,0-.09-.19a42.46,42.46,0,0,0-19.74-19.55,43.6,43.6,0,0,0-26.53-4.11C108.22,49.5,94.12,63.73,91.12,79.55l-.05.25-.25-.08A39.46,39.46,0,0,0,72.93,78.3a43.3,43.3,0,0,0-16.07,5.9A39,39,0,0,0,45,95.21a32.82,32.82,0,0,0-5.42,14.1,36.81,36.81,0,0,0,.88,14.07,39,39,0,0,0,5.23,11.91,40.88,40.88,0,0,0,7.85,8.84,38.84,38.84,0,0,0,9.06,5.48l.15.07-.1.13a33.44,33.44,0,0,0-6.61,14.67,35.72,35.72,0,0,0-.15,11.82,36.23,36.23,0,0,0,1.88,7q.48,1.13.72,1.71l.24.57s-.37-.75-1-2.25a34.68,34.68,0,0,1-1.85-18.89,33.6,33.6,0,0,1,6.6-14.8l0,.19a39,39,0,0,1-9.14-5.49,41.27,41.27,0,0,1-7.94-8.89,39.75,39.75,0,0,1-5.3-12,37.31,37.31,0,0,1-.91-14.21A33.3,33.3,0,0,1,44.71,95,39.38,39.38,0,0,1,56.64,83.84a43.71,43.71,0,0,1,16.22-6A39.87,39.87,0,0,1,91,79.28l-.3.18c3-16,17.25-30.39,35.13-33.53a44.12,44.12,0,0,1,26.84,4.14,43.06,43.06,0,0,1,20,19.79l-.29-.14a27.21,27.21,0,0,1,14.63.83,26.66,26.66,0,0,1,12.29,8.37,24,24,0,0,1,5.2,14A25.37,25.37,0,0,1,201,107l-.08-.34c9.08,6.08,14.07,17.55,11.92,27.91a27.75,27.75,0,0,1-7.25,13.5,28.81,28.81,0,0,1-12.73,7.77l.14-.37a37.74,37.74,0,0,1,5.62,16.61,38.22,38.22,0,0,1-2.27,16.84,37.18,37.18,0,0,1-3.84,7.38,39,39,0,0,1-5.31,6.2A41.77,41.77,0,0,1,166.56,213a38.36,38.36,0,0,1-7.44.68,42.32,42.32,0,0,1-7.25-.71,43.73,43.73,0,0,1-6.81-2,42.34,42.34,0,0,1-11.71-6.78,39.24,39.24,0,0,1-8.31-9.58l.27,0a44.72,44.72,0,0,1-29.49,12.52,40.24,40.24,0,0,1-13.19-1.72,41.15,41.15,0,0,1-17.06-10.25,37.82,37.82,0,0,1-4.14-5,29.26,29.26,0,0,1-2-3.41C59,186,58.77,185.59,58.77,185.59Z" style="fill:#263238"></path><rect x="127.06" y="98.17" width="18.93" height="40.09" style="fill:#D08770"></rect><g style="opacity:0.6000000000000001"><rect x="127.06" y="98.17" width="18.93" height="40.09" style="fill:#fff"></rect></g><path d="M144.12,236a3.84,3.84,0,1,1-.45-.06" style="fill:#fff"></path><path d="M143.67,236c0,.06-.34,0-.89.18a4.1,4.1,0,0,0-2,1.33,4,4,0,0,0-.86,3.28,3.72,3.72,0,0,0,6.67.79,4.11,4.11,0,0,0-1.68-5.14c-.5-.28-.83-.33-.82-.38s.09,0,.24,0a2.17,2.17,0,0,1,.67.19,4,4,0,0,1,1.84,1.77,4.27,4.27,0,0,1,.18,3.76,3.46,3.46,0,0,1-1.64,1.63,4.58,4.58,0,0,1-4.72-.56,3.39,3.39,0,0,1-1.21-2,4.29,4.29,0,0,1,1.05-3.62,3.94,3.94,0,0,1,2.2-1.29,2.61,2.61,0,0,1,.7,0A.68.68,0,0,1,143.67,236Z" style="fill:#263238"></path><path d="M135.47,219.44a6.65,6.65,0,1,1-.45-.3" style="fill:#fff"></path><path d="M135,219.14c0,.05-.52-.27-1.51-.53a7.06,7.06,0,0,0-4.23.27,6.83,6.83,0,0,0-2.44,1.6,5.77,5.77,0,0,0-1.49,3,6.36,6.36,0,0,0,10,6.59,5.78,5.78,0,0,0,2.13-2.53,6.66,6.66,0,0,0,.52-2.87,7,7,0,0,0-1.4-4c-.63-.81-1.12-1.14-1.08-1.18s.13.06.36.22a5.18,5.18,0,0,1,.88.83,7.15,7.15,0,0,1,1.12,7.17,6.2,6.2,0,0,1-2.26,2.75,7.17,7.17,0,0,1-3.73,1.26,6.44,6.44,0,0,1-6.66-4.41,7.25,7.25,0,0,1-.3-3.92,6.18,6.18,0,0,1,1.65-3.16,7.17,7.17,0,0,1,7-1.77,4.62,4.62,0,0,1,1.11.49C134.91,219,135,219.12,135,219.14Z" style="fill:#263238"></path><path d="M164,99.41c.06,0,.11,2.74.11,6.11s-.05,6.1-.11,6.1-.1-2.73-.1-6.1S164,99.41,164,99.41Z" style="fill:#263238"></path><polygon points="119.69 155.51 119.69 159.21 123.68 159.21 123.68 155.51 129.89 155.51 129.89 159.21 133.99 159.21 133.99 155.51 136.81 155.51 136.82 155.51 139.63 155.51 139.63 159.21 143.74 159.21 143.74 155.51 149.95 155.51 149.95 159.21 153.94 159.21 153.94 155.51 160.15 155.51 157.06 168.2 157.06 186.79 136.82 186.79 136.81 186.79 116.56 186.79 116.56 168.2 113.48 155.51 119.69 155.51" style="fill:#D08770"></polygon><g style="opacity:0.6000000000000001"><polygon points="119.69 155.51 119.69 159.21 123.68 159.21 123.68 155.51 129.89 155.51 129.89 159.21 133.99 159.21 133.99 155.51 136.81 155.51 136.82 155.51 139.63 155.51 139.63 159.21 143.74 159.21 143.74 155.51 149.95 155.51 149.95 159.21 153.94 159.21 153.94 155.51 160.15 155.51 157.06 168.2 157.06 186.79 136.82 186.79 136.81 186.79 116.56 186.79 116.56 168.2 113.48 155.51 119.69 155.51" style="fill:#fff"></polygon></g><path d="M178.57,102.93l.57.14a19.67,19.67,0,0,0,4.89.55c1,0,3.88.07,4.6-.67-2.25,2.32-5.9,2.58-9.09,2s-6.31-1.7-9.54-1.68a13.22,13.22,0,0,0-6,1.49c0-.92-.06-2-.06-2.87a.85.85,0,0,1,.09-.47.87.87,0,0,1,.37-.28,11.3,11.3,0,0,1,6.8-.68C173.77,101,176.06,102.25,178.57,102.93Z" style="fill:#455a64"></path><path d="M157.06,124.33v62.46h13.16V124.33Zm4,7.76a2.58,2.58,0,0,1,5.15,0v5h-5.15Z" style="fill:#D08770"></path><path d="M103.49,124.33v62.46h13.16V124.33Zm4,7.76a2.58,2.58,0,0,1,5.15,0v5h-5.15Z" style="fill:#D08770"></path><path d="M126.2,137.77v49h3.15V173.91c0-3.69,3.55-6.69,7.93-6.69s7.94,3,7.94,6.69v12.88h3.14v-49Zm7.59,7a3.45,3.45,0,1,1,6.89,0v6.64h-6.89Z" style="fill:#D08770"></path><g style="opacity:0.6000000000000001"><path d="M157.06,124.33v62.46h13.16V124.33Zm4,7.76a2.58,2.58,0,0,1,5.15,0v5h-5.15Z" style="fill:#fff"></path></g><g style="opacity:0.6000000000000001"><path d="M103.49,124.33v62.46h13.16V124.33Zm4,7.76a2.58,2.58,0,0,1,5.15,0v5h-5.15Z" style="fill:#fff"></path></g><g style="opacity:0.6000000000000001"><path d="M126.2,137.77v49h3.15V173.91c0-3.69,3.55-6.69,7.93-6.69s7.94,3,7.94,6.69v12.88h3.14v-49Zm7.59,7a3.45,3.45,0,1,1,6.89,0v6.64h-6.89Z" style="fill:#fff"></path></g><polygon points="125.45 130.93 125.45 133.36 128.06 133.36 128.06 130.93 132.11 130.93 132.11 133.36 134.79 133.36 134.79 130.93 136.81 130.93 138.83 130.93 138.83 133.36 141.51 133.36 141.51 130.93 145.57 130.93 145.57 133.36 148.18 133.36 148.18 130.93 152.24 130.93 150.06 139.86 148.76 139.86 148.18 139.86 145.57 139.86 144.7 139.86 141.88 139.86 141.51 139.86 138.83 139.86 137.82 139.86 137.17 139.86 136.83 139.86 136.46 139.86 135.81 139.86 134.79 139.86 132.11 139.86 131.75 139.86 128.92 139.86 128.06 139.86 125.45 139.86 124.87 139.86 123.56 139.86 121.39 130.93 125.45 130.93" style="fill:#D08770"></polygon><g style="opacity:0.6000000000000001"><polygon points="125.45 130.93 125.45 133.36 128.06 133.36 128.06 130.93 132.11 130.93 132.11 133.36 134.79 133.36 134.79 130.93 136.81 130.93 138.83 130.93 138.83 133.36 141.51 133.36 141.51 130.93 145.57 130.93 145.57 133.36 148.18 133.36 148.18 130.93 152.24 130.93 150.06 139.86 148.76 139.86 148.18 139.86 145.57 139.86 144.7 139.86 141.88 139.86 141.51 139.86 138.83 139.86 137.82 139.86 137.17 139.86 136.83 139.87 136.46 139.86 135.81 139.86 134.79 139.86 132.11 139.86 131.75 139.86 128.92 139.86 128.06 139.86 125.45 139.86 124.87 139.86 123.56 139.86 121.39 130.93 125.45 130.93" style="fill:#fafafa"></polygon></g><path d="M158.66,122.65l5.22-14,5.22,14a17.92,17.92,0,0,1,5.19,5.22,44.32,44.32,0,0,0-20.82,0A17.92,17.92,0,0,1,158.66,122.65Z" style="fill:#D08770"></path><path d="M150.06,139.86c0,.06-5.92.11-13.23.11s-13.23-.05-13.23-.1,5.92-.11,13.23-.11S150.06,139.81,150.06,139.86Z" style="fill:#263238"></path><path d="M150,155.51l-.43,0-1.24,0-4.54,0,.07-.07c0,1.18,0,2.49,0,3.9v.09h-4.29v-.1c0-1.25,0-2.55,0-3.9l.1.1H134l.1-.1v3.8H129.8v-.09c0-1.34,0-2.58,0-3.7l.08.07-4.55,0-1.23,0-.43,0a3.62,3.62,0,0,1,.43,0l1.23,0,4.55,0H130v.08c0,1.12,0,2.36,0,3.7l-.09-.09H134l-.1.1v-3.8h5.85v.11c0,1.35,0,2.65,0,3.9l-.1-.1h4.11l-.09.09c0-1.41,0-2.72,0-3.9v-.08h.08l4.54,0,1.24,0A3.62,3.62,0,0,1,150,155.51Z" style="fill:#263238"></path><path d="M129.31,186.45a4.34,4.34,0,0,1,0-.48c0-.38,0-.84,0-1.4,0-1.29,0-3,0-5.12,0-1.09,0-2.27,0-3.53a9.29,9.29,0,0,1,.62-4,8.11,8.11,0,0,1,2.81-3.48,8.08,8.08,0,0,1,7-1.07,8.47,8.47,0,0,1,2.15,1.07,8.21,8.21,0,0,1,2.82,3.48,9.42,9.42,0,0,1,.61,4c0,1.26,0,2.44,0,3.53,0,2.1,0,3.83,0,5.12,0,.56,0,1,0,1.4s0,.48,0,.48,0-.16,0-.48,0-.84,0-1.4c0-1.29,0-3,0-5.12,0-1.09,0-2.27,0-3.53a9.12,9.12,0,0,0-.62-3.94,8,8,0,0,0-2.76-3.4,8.66,8.66,0,0,0-2.09-1,7.81,7.81,0,0,0-4.75,0,8.68,8.68,0,0,0-2.09,1A8,8,0,0,0,130,172a9.43,9.43,0,0,0-.62,3.94c0,1.26,0,2.44,0,3.53,0,2.1,0,3.83,0,5.12,0,.56,0,1,0,1.4S129.31,186.45,129.31,186.45Z" style="fill:#263238"></path><path d="M116.44,186.73c-.06,0-.11-7-.11-15.74s0-15.74.11-15.74.1,7.05.1,15.74S116.49,186.73,116.44,186.73Z" style="fill:#263238"></path><path d="M157.14,186.57s-.1-7-.1-15.54.05-15.54.1-15.54.11,7,.11,15.54S157.2,186.57,157.14,186.57Z" style="fill:#263238"></path><path d="M109.54,146.34a6.47,6.47,0,0,1,0-.67c0-.54,0-1.13,0-1.77l.07.07-5.94,0,.1-.1h0v1.24c0,.4,0,.8,0,1.18l-.09-.09,4.23,0,1.25,0,.46,0a2.11,2.11,0,0,1-.42,0l-1.22,0-4.3,0h-.1v-.11c0-.38,0-.78,0-1.18v-1.24h0l.11-.11,5.94,0h.08v.07c0,.66,0,1.26,0,1.81A5.69,5.69,0,0,1,109.54,146.34Z" style="fill:#263238"></path><path d="M112.45,148.79s0-.25,0-.68,0-1.12,0-1.77l.08.08-6,0c-.09.09.13-.13.11-.1h0v2.43l-.1-.1,4.23.05,1.25,0a2.61,2.61,0,0,1,.47,0,2.11,2.11,0,0,1-.42,0l-1.23,0-4.3,0h-.1v-2.53h0s.19-.2.1-.11l6,0h.07v.07c0,.66,0,1.26,0,1.82A4.8,4.8,0,0,1,112.45,148.79Z" style="fill:#263238"></path><path d="M116.43,167.08s0-.25,0-.68,0-1.12,0-1.77l.08.08-6,0c-.09.09.13-.13.1-.11h0v2.43l-.1-.1,4.23.05,1.25,0,.47,0a2,2,0,0,1-.43,0l-1.22,0-4.3.05h-.1v-2.53h0l.1-.1,6,0h.07v.07c0,.66,0,1.26,0,1.82A4.8,4.8,0,0,1,116.43,167.08Z" style="fill:#263238"></path><path d="M166.64,173.76a6.56,6.56,0,0,1,0-.68c0-.54,0-1.13,0-1.77l.07.08-5.94,0c-.1.09.12-.13.1-.11h0v2.43l-.1-.1,4.23.05,1.25,0,.46,0a1.83,1.83,0,0,1-.42,0l-1.22,0-4.3.05h-.1v-.1c0-.39,0-.78,0-1.19v-1.24h0s.2-.19.11-.1l5.94,0h.08v.07c0,.66,0,1.26,0,1.82A5.69,5.69,0,0,1,166.64,173.76Z" style="fill:#263238"></path><path d="M129.36,180.37s0-.26,0-.68,0-1.13,0-1.77l.08.07-6,0c-.09.1.13-.12.11-.1h0v2.42l-.1-.09,4.23,0,1.25,0,.47,0-.42,0-1.23,0-4.3,0h-.1v-2.53h0l.1-.1,6,0h.07v.07c0,.66,0,1.26,0,1.81A5.08,5.08,0,0,1,129.36,180.37Z" style="fill:#263238"></path><path d="M126.4,177.89s0-.25,0-.68,0-1.13,0-1.77l.08.08-6,0,.11-.11h0v.62c0,.21,0,.42,0,.62v1.19l-.1-.1,4.23.05,1.25,0,.47,0a3.14,3.14,0,0,1-.42,0l-1.23,0-4.3.05h-.1v-2.53h0l.1-.1,6,0h.07v.07c0,.66,0,1.26,0,1.81A4.89,4.89,0,0,1,126.4,177.89Z" style="fill:#263238"></path><path d="M163,151.86s0-.25,0-.67,0-1.13,0-1.77l.08.07-5.95,0c-.09.1.13-.12.1-.1h0v2.42l-.1-.1,4.23.05,1.25,0,.47,0a2.11,2.11,0,0,1-.42,0l-1.23,0-4.3,0H157v-2.53h0s.19-.2.1-.11l5.95,0h.07v.07c0,.66,0,1.26,0,1.81A4.8,4.8,0,0,1,163,151.86Z" style="fill:#263238"></path><path d="M167.12,154.33s0-.26,0-.68,0-1.13,0-1.77l.07.08-6,0,.11-.11h0v1.24c0,.41,0,.8,0,1.19l-.1-.1,4.24.05,1.24,0,.47,0a3.14,3.14,0,0,1-.42,0l-1.23,0-4.3.05h-.1V151.9h0l.1-.1,6,0h.08v.07c0,.66,0,1.26,0,1.81A5.08,5.08,0,0,1,167.12,154.33Z" style="fill:#263238"></path><path d="M169.1,122.65a12.59,12.59,0,0,1-1.53,0l-3.68,0c-1.44,0-2.75,0-3.69,0-.48,0-.86,0-1.12-.07a1.51,1.51,0,0,1-.41-.06,14.55,14.55,0,0,1,1.53,0l3.68,0c1.44,0,2.75,0,3.7,0,.47,0,.85,0,1.11.07A1.91,1.91,0,0,1,169.1,122.65Z" style="fill:#263238"></path><path d="M183.38,186.79c0,.06-19.76.11-44.14.11s-44.15-.05-44.15-.11,19.76-.1,44.15-.1S183.38,186.74,183.38,186.79Z" style="fill:#263238"></path><path d="M147.18,175.64l4.14,2.32s-2,1-2.3,1-3.68-1.15-4.72-1.36l-4.39-.44-.26-1.9-1,.21-.32-1a3,3,0,0,0-2.78.06c-1.55.79-5.48,4.45-8.77,5.62a17.65,17.65,0,0,1-8.67,1.09c-3.59-.27-4.8-1.81-8.57-1.58s-7.78,1.49-11.9,1.57-6.94-.13-9.31-2.49-5.25-5.42-4.32-12.3,2.93-8.13,4.83-12.29,2.24-9.8-1.53-11.59-13.42-3.93-13.92,5.31c0,0-.37,4.23,1.69,6.33l1.57.27,3.49,5.08-5.4-3.25-.3-1.6s-2.53-2.73-2.89-5.35-.87-7.22,4.26-10.37,12.34-.82,15.22,1c3.08,2,5.27,5.95,3.78,11.85S90.32,162,89.93,164.62c-.46,3-.89,5.36,1.4,7.41s6.43,1.24,7.52.38,7.24-4.42,12.59-3.88c0,0,3,.09,6.14,3.68,3.36,3.81,7.45,3.43,8.56,2.55,2.22-1.73,6.19-4,9.46-3.77a30.2,30.2,0,0,1,5.66.88s-1.25-3.4-1.26-3.75,2.48,1.82,2.7,3.53c0,0-1.48-3.36-1.29-3.74s2.76,2.91,3,4.36.19,0,.19,0l2.95,2.8Z" style="fill:#455a64"></path><path d="M117.58,172.21a2.92,2.92,0,0,1,1.29-3c1.53-.8,15.85-5,15.23-10.56S126.61,131.52,94.94,130c0,0,14,10.67,5.24,26.57,0,0,5.66,4.34,4,9.61,0,0,11.3.73,10.84,1.58a7.64,7.64,0,0,1-1.17,1.57Z" style="fill:#455a64"></path><path d="M123.08,180.82a16.46,16.46,0,0,1-5.21,2.93,1.24,1.24,0,0,0-.79.51.88.88,0,0,0,.43,1.06,6.62,6.62,0,0,0,1.17.46,1.18,1.18,0,0,1,.82.87l-4,.09a7.69,7.69,0,0,0-.91-2.1,3.69,3.69,0,0,1-.46-.88.91.91,0,0,1,.21-.92,3.68,3.68,0,0,0,2.88-3.49" style="fill:#455a64"></path><path d="M106.74,179.51a6.76,6.76,0,0,1-4.09,4,3.77,3.77,0,0,0,1.74,2c.44.17.93.17,1.38.31a1.09,1.09,0,0,1,.85,1c-1.74.08-3.56-.11-5.3,0a8.71,8.71,0,0,0-4.82-5.49" style="fill:#455a64"></path><path d="M106,158.24l.39,0,1.12-.06c1,0,2.38-.1,4.13-.12a135.86,135.86,0,0,1,13.6.52c1.43.13,2.82.28,4.15.43l.17,0-.1.14a24.21,24.21,0,0,1-8.25,6.86,19.06,19.06,0,0,1-4,1.56,1.23,1.23,0,0,1,.28-.11c.18-.07.45-.15.8-.29a25.79,25.79,0,0,0,2.87-1.28,24.37,24.37,0,0,0,8.14-6.86l.07.16c-1.32-.15-2.71-.3-4.14-.42-5.29-.47-10.1-.59-13.58-.58-1.74,0-3.15,0-4.13.05l-1.12,0Z" style="fill:#263238"></path><path d="M100.14,132l.39.13,1.09.44c.95.38,2.32.95,4,1.67A70.86,70.86,0,0,1,118.18,141a33.82,33.82,0,0,1,9.76,10.34,23.65,23.65,0,0,1,1.83,3.92c.34,1,.48,1.52.48,1.52s-.06-.13-.15-.38-.2-.64-.4-1.11a25.31,25.31,0,0,0-1.89-3.88,34.31,34.31,0,0,0-9.75-10.24,73.07,73.07,0,0,0-12.5-6.81l-4-1.73-1.08-.48Z" style="fill:#263238"></path><path d="M110,147.16l.22.07.62.22,2.25.87a69.5,69.5,0,0,1,7.26,3.31c2.74,1.5,5,3.14,6.87,4a17.06,17.06,0,0,0,2.2,1,8.44,8.44,0,0,1,.83.3,7.08,7.08,0,0,1-.86-.22,16.73,16.73,0,0,1-2.24-.92c-1.86-.86-4.18-2.49-6.9-4s-5.34-2.57-7.21-3.36l-2.23-.93-.6-.26Z" style="fill:#263238"></path><path d="M126.45,174.87a2.68,2.68,0,0,1-.6.34,4.69,4.69,0,0,1-1.83.38,7,7,0,0,1-2.73-.57,12.14,12.14,0,0,1-2.87-1.81c-.94-.76-1.78-1.55-2.58-2.2a14.31,14.31,0,0,0-2.25-1.57,8.33,8.33,0,0,0-1.7-.72c-.42-.13-.66-.16-.66-.18a3.34,3.34,0,0,1,.68.1,7.41,7.41,0,0,1,1.75.67,13.66,13.66,0,0,1,2.3,1.55c.82.65,1.66,1.43,2.59,2.18a12.3,12.3,0,0,0,2.82,1.81,6.94,6.94,0,0,0,2.65.59A5.2,5.2,0,0,0,126.45,174.87Z" style="fill:#263238"></path><path d="M121,178.26s-.33-.07-.84,0a3.21,3.21,0,0,0-1.83.73,7.46,7.46,0,0,0-1.64,2.34,2.34,2.34,0,0,1,.26-.82,4.56,4.56,0,0,1,1.25-1.68,3.11,3.11,0,0,1,1.95-.72A1.65,1.65,0,0,1,121,178.26Z" style="fill:#263238"></path><path d="M103.5,175.08s.1,0,.28,0a2.82,2.82,0,0,1,.75.17,3.47,3.47,0,0,1,1.91,1.64,3.52,3.52,0,0,1,.29,2.5,2.91,2.91,0,0,1-.28.72.89.89,0,0,1-.17.23,9.86,9.86,0,0,0,.31-1,3.49,3.49,0,0,0-2.11-4A8.1,8.1,0,0,0,103.5,175.08Z" style="fill:#263238"></path><path d="M98.8,177a5.93,5.93,0,0,1-.16.73c-.16.44.07,1.07-.12,1.82a2.39,2.39,0,0,1-1.27,1.34,2.13,2.13,0,0,1-.71.27,3.61,3.61,0,0,1,.64-.4,2.44,2.44,0,0,0,1.14-1.27c.18-.64,0-1.33.18-1.79A1.74,1.74,0,0,1,98.8,177Z" style="fill:#263238"></path><path d="M113.89,174.41s-.24.18-.51-.11a.56.56,0,0,1,0-.61.81.81,0,0,1,.63-.38h0l0,.21a.59.59,0,0,1-.6-.44.52.52,0,0,1,.23-.56c.33-.18.55,0,.52,0a.68.68,0,0,0-.43.11.36.36,0,0,0-.14.39.41.41,0,0,0,.4.28l0,.21h0c-.45,0-.67.47-.51.7S113.89,174.38,113.89,174.41Z" style="fill:#263238"></path><path d="M113.47,173.72s-.12,0-.3,0a.67.67,0,0,1-.47-.59.45.45,0,0,1,.6-.41c.18.07.28.13.27.15s-.13,0-.29,0-.38,0-.37.26a.59.59,0,0,0,.32.46C113.38,173.64,113.48,173.69,113.47,173.72Z" style="fill:#263238"></path><path d="M111.19,177.05s-.17,0-.35-.13a.55.55,0,0,1,.18-.87v.19l-.1,0a.56.56,0,0,1-.11-.93c.22-.18.41-.11.4-.09s-.16,0-.3.19a.41.41,0,0,0,.11.64l.06,0,.25.08-.23.11a.41.41,0,0,0-.16.6C111.06,177,111.2,177,111.19,177.05Z" style="fill:#263238"></path><path d="M110.79,176.6s-.07.1-.24.1a.48.48,0,0,1-.06-.95c.17,0,.26.05.25.08s-.1,0-.21.07a.33.33,0,0,0-.21.34.32.32,0,0,0,.25.31C110.69,176.59,110.77,176.57,110.79,176.6Z" style="fill:#263238"></path><path d="M119.89,181.56s-.13.24-.51.19a.56.56,0,0,1-.47-.41.66.66,0,0,1,.26-.72l.09-.05.11.18a.49.49,0,0,1-.73-.16.6.6,0,0,1,0-.6c.19-.29.42-.32.42-.3s-.17.12-.3.37a.52.52,0,0,0,0,.44.3.3,0,0,0,.43.09l.11.18s0,0,0,0a.48.48,0,0,0-.2.5.45.45,0,0,0,.32.31A1,1,0,0,0,119.89,181.56Z" style="fill:#263238"></path><path d="M120.23,180.87s0,.13-.23.17a.56.56,0,0,1-.63-.27.58.58,0,0,1,.13-.68c.14-.12.26-.11.27-.09s-.09.08-.16.19a.48.48,0,0,0,0,.48.48.48,0,0,0,.42.23C120.12,180.9,120.21,180.85,120.23,180.87Z" style="fill:#263238"></path><path d="M127.06,178.15s-.17.23-.55.12a.67.67,0,0,1-.43-.49.78.78,0,0,1,.25-.75.8.8,0,0,1,.26-.16l.09.18a.44.44,0,0,1-.64-.27.56.56,0,0,1,.14-.54c.24-.22.44-.21.44-.19s-.17.08-.33.28a.43.43,0,0,0-.08.4.26.26,0,0,0,.36.15l.1.18a.82.82,0,0,0-.2.12.58.58,0,0,0,.09.95A.8.8,0,0,0,127.06,178.15Z" style="fill:#263238"></path><path d="M126,177.62s-.1.08-.26,0a.53.53,0,0,1-.34-.53.51.51,0,0,1,.45-.44c.16,0,.25.05.24.07s-.1,0-.21.07a.43.43,0,0,0-.27.32.44.44,0,0,0,.2.38C125.92,177.58,126,177.59,126,177.62Z" style="fill:#263238"></path><path d="M134,173.89s.14.17,0,.43a.46.46,0,0,1-.47.21.54.54,0,0,1-.45-.45l.2,0a.41.41,0,0,1-.07.11.6.6,0,0,1-.63.22.54.54,0,0,1-.38-.4c-.07-.32.11-.47.12-.45s-.07.18,0,.41a.38.38,0,0,0,.28.25.45.45,0,0,0,.43-.15.43.43,0,0,1,0-.07l.15-.33,0,.36a.39.39,0,0,0,.29.29.34.34,0,0,0,.32-.11C134.06,174.06,134,173.89,134,173.89Z" style="fill:#263238"></path><path d="M133.55,174.57s.07.09,0,.23a.5.5,0,0,1-.47.33.52.52,0,0,1-.45-.36c0-.15,0-.24,0-.23s.1.35.42.38S133.51,174.56,133.55,174.57Z" style="fill:#263238"></path><path d="M144.39,174.64s.1-.12.32-.16a1.13,1.13,0,0,1,1.32.94c0,.23,0,.37-.05.36a1.28,1.28,0,0,0-1.59-1.14Z" style="fill:#263238"></path><path d="M145.41,174.69s.22,0,.32.3a.56.56,0,0,1-.12.49,1,1,0,0,1-.43.45.49.49,0,0,1-.21,0h-.08v-.08a1.13,1.13,0,0,1,.53-1.18,2,2,0,0,0-.32,1.15l-.1-.09a.15.15,0,0,0,.11,0,.88.88,0,0,0,.34-.35.5.5,0,0,0,.15-.36A.7.7,0,0,0,145.41,174.69Z" style="fill:#263238"></path><path d="M150.33,178c0,.05-.06.16-.21.25s-.28.11-.31.06.06-.16.21-.24S150.3,177.92,150.33,178Z" style="fill:#263238"></path><path d="M140.68,169.3a3.45,3.45,0,0,1,1.07,1.38,3.39,3.39,0,0,1,.44,1.69c-.06,0-.21-.75-.63-1.6S140.63,169.34,140.68,169.3Z" style="fill:#263238"></path><path d="M143.28,171.68a17.19,17.19,0,0,1-.76-2.23l-.27-.87.46.8.3.55a5.94,5.94,0,0,1,.87,1.93,1,1,0,0,1-.25.84,1.75,1.75,0,0,0,.1-.83,7.1,7.1,0,0,0-.9-1.84l-.3-.55.19-.07A14.12,14.12,0,0,1,143.28,171.68Z" style="fill:#263238"></path><path d="M152.24,130.93l-1.06,0-3,0,.06-.06c0,.72,0,1.54,0,2.43v.07h-2.76v-.08c0-.77,0-1.59,0-2.43l.09.09h-4.06l.1-.1v2.53h-2.88v-2.53l.1.1h-4l.11-.1c0,.82,0,1.63,0,2.43v.1H132v-.1c0-.83,0-1.64,0-2.43l.09.1h-4.06l.09-.09c0,.86,0,1.66,0,2.43v.08h-2.75v-.07c0-.9,0-1.7,0-2.43l.06.06-3,0-1.06,0,1.06,0,3,0h0v.06c0,.73,0,1.53,0,2.43l-.07-.07h2.6l-.08.08v-2.52h4.24v2.52l-.1-.1h2.68l-.1.11v-2.53h4.25v2.53l-.11-.11h2.68l-.1.1c0-.84,0-1.66,0-2.43v-.1h4.24v.09c0,.84,0,1.66,0,2.43l-.08-.08h2.61l-.07.07c0-.89,0-1.71,0-2.43v-.06h.06l3,0Z" style="fill:#263238"></path><path d="M133.07,111a3.45,3.45,0,0,1,6.9,0v6.64h-6.9Z" style="fill:#fff"></path><path d="M133,103.46s0-.26,0-.68,0-1.13,0-1.77l.07.08-5.94,0c-.1.09.12-.13.1-.11h0v1.24c0,.41,0,.8,0,1.19l-.09-.1,4.23,0,1.25,0,.46,0a3.14,3.14,0,0,1-.42,0l-1.22,0-4.3,0H127v-.1c0-.39,0-.78,0-1.19V101h0l.11-.1,5.94,0h.08V101c0,.66,0,1.26,0,1.81A6.09,6.09,0,0,1,133,103.46Z" style="fill:#263238"></path><path d="M137.11,105.92a6.56,6.56,0,0,1,0-.68c0-.54,0-1.12,0-1.76l.07.07-5.94,0,.1-.1h0v2.42l-.1-.1,4.23.05,1.25,0a4.36,4.36,0,0,1,.46,0,2.11,2.11,0,0,1-.42,0l-1.22,0-4.3,0h-.1v-1.29c0-.2,0-.41,0-.62v-.61h0l.11-.11,5.94,0h.08v.08c0,.65,0,1.25,0,1.81A5.69,5.69,0,0,1,137.11,105.92Z" style="fill:#263238"></path><path d="M146,124.49a6.56,6.56,0,0,1,0-.68c0-.54,0-1.12,0-1.77l.07.08-5.94,0,.1-.11h0v2.43l-.1-.1,4.23,0,1.25,0a2.44,2.44,0,0,1,.46,0,2.11,2.11,0,0,1-.42,0l-1.22,0-4.3,0h-.1v-2.53h0s.2-.19.11-.1l5.94,0h.08V122c0,.66,0,1.26,0,1.82A5.69,5.69,0,0,1,146,124.49Z" style="fill:#263238"></path><path d="M95.32,102.93l-.58.14a19.59,19.59,0,0,1-4.88.55c-1,0-3.89.07-4.61-.67,2.25,2.32,5.9,2.58,9.1,2s6.3-1.7,9.53-1.68a13.19,13.19,0,0,1,6,1.49c0-.92.06-2,.06-2.87a.85.85,0,0,0-.09-.47c-.08-.13-.24-.19-.37-.28-1.55-.92-3.79-1-6.8-.68C100.09,100.8,97.82,102.25,95.32,102.93Z" style="fill:#455a64"></path><path d="M109.84,99.41c.06,0,.1,2.74.1,6.11s0,6.1-.1,6.1-.11-2.73-.11-6.1S109.78,99.41,109.84,99.41Z" style="fill:#263238"></path><path d="M115.05,122.65l-5.22-14-5.22,14a17.92,17.92,0,0,0-5.19,5.22,44.32,44.32,0,0,1,20.82,0A17.92,17.92,0,0,0,115.05,122.65Z" style="fill:#D08770"></path><path d="M115,122.66c0,.06-2.33.11-5.2.11s-5.21,0-5.21-.11,2.33-.1,5.21-.1S115,122.61,115,122.66Z" style="fill:#263238"></path><path d="M120.79,66l-.62.2A16.1,16.1,0,0,1,115,67c-1,0-4.16.1-4.93-1,2.41,3.34,6.32,3.71,9.73,2.95s6.74-2.44,10.2-2.41a11.22,11.22,0,0,1,6.41,2.14c0-1.33.07-2.8.07-4.12a1.63,1.63,0,0,0-.09-.67,1.09,1.09,0,0,0-.4-.4c-1.66-1.34-4.05-1.47-7.27-1C125.89,63,123.47,65,120.79,66Z" style="fill:#455a64"></path><path d="M136.28,61c.06,0,.11,3.92.11,8.76s0,8.77-.11,8.77-.1-3.93-.1-8.77S136.23,61,136.28,61Z" style="fill:#263238"></path><path d="M143.77,94.34l-7.5-20.15-7.49,20.15c-5.59,4-7.45,7.48-7.45,7.48a64,64,0,0,1,29.89,0S149.36,98.36,143.77,94.34Z" style="fill:#D08770"></path><path d="M143.74,94.35c0,.06-3.34.1-7.47.1s-7.48,0-7.48-.1,3.34-.1,7.48-.1S143.74,94.29,143.74,94.35Z" style="fill:#263238"></path></g><g id="freepik--Plant--inject-85"><path d="M416.49,375.28c-.09.11-.84-.34-1.68-1s-1.44-1.3-1.35-1.41.84.34,1.68,1S416.58,375.17,416.49,375.28Z" style="fill:#263238"></path><path d="M439.29,341.2c.14-3.18.23-6.45-.78-9.47s-3.34-5.81-6.46-6.46c-3.56-.73-7.21,1.52-9.2,4.56s-2.69,6.73-3.28,10.32a364.2,364.2,0,0,0-4.46,74.92l14.57,2.05C436.08,391,438.13,368.1,439.29,341.2Z" style="fill:#455a64"></path><path d="M430,325.16s0,.09-.07.24l-.24.66c-.23.61-.56,1.45-1,2.51-.2.55-.47,1.15-.69,1.83s-.45,1.41-.71,2.2-.52,1.64-.81,2.54-.49,1.88-.76,2.89A128.39,128.39,0,0,0,423,352.45c-.79,5.48-1.31,11.55-1.71,17.93-.75,12.77-.86,24.36-1.19,32.75-.16,4.19-.3,7.58-.46,9.92-.08,1.14-.14,2-.19,2.69,0,.29,0,.52-.06.7a1.48,1.48,0,0,1,0,.24.64.64,0,0,1,0-.24c0-.19,0-.42,0-.7,0-.66.05-1.56.08-2.7.1-2.34.19-5.73.3-9.93.23-8.38.29-20,1-32.76.4-6.39.94-12.47,1.75-18a122.62,122.62,0,0,1,2.94-14.45c.28-1,.54-2,.79-2.89l.86-2.53.75-2.2c.23-.68.52-1.27.73-1.81l1.07-2.49.29-.64A.72.72,0,0,1,430,325.16Z" style="fill:#263238"></path><path d="M431.38,325.17a10.56,10.56,0,0,1,1.78,3,22.3,22.3,0,0,1,1.33,9.42c-.39,8.06-1.11,19.16-2.07,31.41s-2,23.33-2.89,31.34c-.43,4-.8,7.24-1.08,9.48-.13,1.08-.24,1.94-.33,2.57l-.09.67a.66.66,0,0,1-.06.22.68.68,0,0,1,0-.23c0-.18,0-.4,0-.67.06-.64.13-1.5.23-2.59l.91-9.49c.77-8,1.78-19.09,2.74-31.34s1.74-23.35,2.22-31.38a22.71,22.71,0,0,0-1.15-9.34A18.91,18.91,0,0,0,431.38,325.17Z" style="fill:#263238"></path><path d="M441.49,362.89a15.24,15.24,0,0,1-5.35-1.92,16,16,0,0,1,5.35,1.92Z" style="fill:#263238"></path><path d="M443.24,348a9,9,0,0,1-2.63,1.46,8.82,8.82,0,0,1-2.84,1A8.65,8.65,0,0,1,440.4,349,8.93,8.93,0,0,1,443.24,348Z" style="fill:#263238"></path><path d="M442.33,335.92a4.79,4.79,0,0,1-2.17.11,4.9,4.9,0,0,1-2.14-.41,4.48,4.48,0,0,1,2.17-.11A4.58,4.58,0,0,1,442.33,335.92Z" style="fill:#263238"></path><path d="M427.29,328.15c-.12.07-.76-.72-1.42-1.78a5.21,5.21,0,0,1-1-2.05c.12-.08.76.72,1.43,1.77A5.21,5.21,0,0,1,427.29,328.15Z" style="fill:#263238"></path><path d="M422.32,335.48a8.49,8.49,0,0,1-4.13-.09,4.4,4.4,0,0,1,2.07-.22C421.4,335.2,422.32,335.33,422.32,335.48Z" style="fill:#263238"></path><path d="M418.75,350.15a5.22,5.22,0,0,1-2.18-.6c-1.15-.47-2-.95-2-1.08a4.88,4.88,0,0,1,2.18.6C417.92,349.53,418.81,350,418.75,350.15Z" style="fill:#263238"></path><path d="M418.37,362.48c0,.14-.8.44-1.85.66s-1.94.28-2,.14.8-.43,1.85-.65S418.34,362.34,418.37,362.48Z" style="fill:#263238"></path><path d="M416.69,382.66c0,.14-.85.42-2,.62a4.23,4.23,0,0,1-2.06.1c0-.14.86-.42,2-.62A4.22,4.22,0,0,1,416.69,382.66Z" style="fill:#263238"></path><path d="M415.58,393.8c.06.12-.67.64-1.64,1.16s-1.82.83-1.89.7.67-.65,1.64-1.16S415.51,393.67,415.58,393.8Z" style="fill:#263238"></path><path d="M424.67,406.44c-.12.07-.76-.81-1.43-2a6.08,6.08,0,0,1-1-2.23c.13-.07.77.81,1.43,2A5.7,5.7,0,0,1,424.67,406.44Z" style="fill:#263238"></path><path d="M427.3,385.43c.1.1-.62,1-1.6,1.93s-1.85,1.66-2,1.55.62-1,1.6-1.92S427.2,385.33,427.3,385.43Z" style="fill:#263238"></path><path d="M426.72,374.41c-.11.1-.77-.45-1.48-1.22s-1.2-1.46-1.1-1.56.77.44,1.48,1.21S426.82,374.31,426.72,374.41Z" style="fill:#263238"></path><path d="M428.52,360.32c.11.1-.49.94-1.33,1.88s-1.61,1.62-1.72,1.52.49-.93,1.33-1.87S428.41,360.23,428.52,360.32Z" style="fill:#263238"></path><path d="M429.54,350.1c-.11.1-.94-.55-1.86-1.46s-1.59-1.72-1.49-1.82.93.55,1.86,1.45S429.64,350,429.54,350.1Z" style="fill:#263238"></path><path d="M431.53,336.28a5.08,5.08,0,0,1-.93,2.07c-.64,1.07-1.25,1.88-1.38,1.8a5.31,5.31,0,0,1,.93-2.07C430.79,337,431.41,336.21,431.53,336.28Z" style="fill:#263238"></path><path d="M435.28,323.48c.13.07-.24,1-.82,2.07s-1.15,1.89-1.28,1.82.24-1,.82-2.07S435.16,323.41,435.28,323.48Z" style="fill:#263238"></path><path d="M439.54,329.29c.07.13-.52.54-1.3.92s-1.46.57-1.53.44.53-.54,1.31-.91S439.48,329.16,439.54,329.29Z" style="fill:#263238"></path><path d="M439.65,375.28a5.93,5.93,0,0,1-2.86-.69,6.06,6.06,0,0,1-2.47-1.58,13.82,13.82,0,0,1,2.68,1.1A15.73,15.73,0,0,1,439.65,375.28Z" style="fill:#263238"></path><path d="M437.91,385a4.34,4.34,0,0,1-2,.64c-1.11.22-2,.28-2.05.14s.85-.43,2-.65A4.31,4.31,0,0,1,437.91,385Z" style="fill:#263238"></path><path d="M435.77,401.72a5.53,5.53,0,0,1-2.22-2,5.72,5.72,0,0,1-1.4-2.6,16.36,16.36,0,0,1,1.8,2.28A18.28,18.28,0,0,1,435.77,401.72Z" style="fill:#263238"></path><path d="M412.34,409.36c-.1-.11.5-.77,1.32-1.47s1.57-1.19,1.66-1.08-.5.77-1.32,1.47S412.43,409.47,412.34,409.36Z" style="fill:#263238"></path><path d="M405.6,372.91c-1-3-2.73-6.42-5.84-6.46a5.17,5.17,0,0,0-4.37,2.93,10.77,10.77,0,0,0-1.18,5.36,140.18,140.18,0,0,0,6.68,38.82h11.38A135,135,0,0,0,405.6,372.91Z" style="fill:#455a64"></path><path d="M385,354.26c-1.59-6.36-6.33-9.8-11.84-10.12-5,.89-7,5.84-7.58,10.91s1,10.12,2.53,15q7.49,23.43,15,46.86l14.16-1.55C392.79,394.42,390.21,375,385,354.26Z" style="fill:#455a64"></path><path d="M399.76,366.45a12.86,12.86,0,0,0-1,1.61,10.62,10.62,0,0,0-.53,5c.22,2.16.47,4.77.83,7.62s.88,6,1.52,9.26c1.29,6.54,2.74,12.41,3.66,16.68.47,2.14.82,3.87,1,5.08.09.55.17,1,.24,1.39a2.18,2.18,0,0,1,.05.49,1.9,1.9,0,0,1-.16-.47l-.33-1.37c-.3-1.27-.71-3-1.2-5-1-4.25-2.52-10.1-3.81-16.66-.64-3.28-1.14-6.42-1.49-9.3-.18-1.43-.3-2.81-.42-4.09s-.24-2.47-.3-3.56a10.41,10.41,0,0,1,.72-5.15A4.44,4.44,0,0,1,399.76,366.45Z" style="fill:#263238"></path><path d="M373.38,343.74a19.46,19.46,0,0,0-1.71,2.3,16.11,16.11,0,0,0-2.16,7.41,34.33,34.33,0,0,0,1.76,11.4c1.24,4.21,2.6,8.83,4,13.69,2.82,9.7,5.37,18.48,7.24,24.9.89,3.16,1.62,5.73,2.14,7.57.23.86.42,1.54.56,2.06a5.78,5.78,0,0,1,.16.73,3.1,3.1,0,0,1-.26-.7c-.17-.51-.38-1.19-.65-2l-2.3-7.52c-1.91-6.41-4.51-15.18-7.39-24.87-1.42-4.86-2.77-9.48-4-13.7a33.93,33.93,0,0,1-1.65-11.56,15.75,15.75,0,0,1,2.35-7.49A8.64,8.64,0,0,1,373.38,343.74Z" style="fill:#263238"></path><path d="M394.18,413.83a3.85,3.85,0,0,1-.32-.68c-.19-.45-.49-1.12-.81-2-.67-1.74-1.54-4.3-2.43-7.52s-1.79-7.09-2.64-11.42-1.72-9.09-2.67-14.08-2.08-9.7-3.35-13.91a77,77,0,0,0-4.13-10.91,57.14,57.14,0,0,0-3.81-6.87c-.49-.8-.93-1.37-1.2-1.78a3.6,3.6,0,0,1-.39-.64,4.81,4.81,0,0,1,.48.57c.29.4.76.95,1.27,1.73a51.4,51.4,0,0,1,4,6.83,73.75,73.75,0,0,1,4.26,10.93,138.58,138.58,0,0,1,3.4,14c.94,5,1.82,9.75,2.63,14.09s1.67,8.2,2.52,11.41,1.66,5.79,2.27,7.55c.29.88.56,1.56.72,2A3.58,3.58,0,0,1,394.18,413.83Z" style="fill:#263238"></path><path d="M368.38,367.7c0,.14-.73.44-1.72.68s-1.81.32-1.84.18.74-.45,1.72-.68S368.35,367.56,368.38,367.7Z" style="fill:#263238"></path><path d="M366.88,358a17.48,17.48,0,0,1-4.79.19,4.9,4.9,0,0,1,2.38-.45A5,5,0,0,1,366.88,358Z" style="fill:#263238"></path><path d="M368.48,349.21c-.1.11-.86-.39-1.72-1.12s-1.47-1.4-1.38-1.51.86.39,1.72,1.12S368.57,349.1,368.48,349.21Z" style="fill:#263238"></path><path d="M372.8,341c.14,0,.1.72.08,1.55s0,1.52-.17,1.55-.38-.67-.35-1.56S372.66,341,372.8,341Z" style="fill:#263238"></path><path d="M381.62,344.89c.12.08-.23.78-.77,1.56s-1.08,1.34-1.2,1.26.23-.78.77-1.56S381.5,344.81,381.62,344.89Z" style="fill:#263238"></path><path d="M387.35,354.84c0,.13-.68.56-1.64,1s-1.78.6-1.83.46.68-.55,1.63-.94S387.29,354.71,387.35,354.84Z" style="fill:#263238"></path><path d="M390.82,365.08a6.62,6.62,0,0,1-4.69,1.06,9.13,9.13,0,0,1,2.33-.59A8.89,8.89,0,0,1,390.82,365.08Z" style="fill:#263238"></path><path d="M374.87,362.17c-.14,0,0-.75.22-1.58s.58-1.47.72-1.43,0,.75-.22,1.58S375,362.21,374.87,362.17Z" style="fill:#263238"></path><path d="M377.1,375c-.14-.06.15-1,.64-2.13s1-2,1.11-1.92-.15,1-.64,2.13S377.23,375.08,377.1,375Z" style="fill:#263238"></path><path d="M371.6,378.54a5.23,5.23,0,0,1-2-.45c-1.08-.34-2-.65-1.93-.79a3.77,3.77,0,0,1,2.09.29C370.83,377.94,371.65,378.41,371.6,378.54Z" style="fill:#263238"></path><path d="M374.77,389c.08.11-.52.69-1.36,1.28s-1.57,1-1.65.87.52-.7,1.35-1.29S374.68,388.9,374.77,389Z" style="fill:#263238"></path><path d="M377.31,399.46c0,.14-.72.45-1.68.68s-1.76.31-1.79.17.71-.44,1.67-.68S377.28,399.32,377.31,399.46Z" style="fill:#263238"></path><path d="M391.1,373.8c.08.12-.57.64-1.5,1s-1.75.39-1.78.25.71-.4,1.6-.74S391,373.68,391.1,373.8Z" style="fill:#263238"></path><path d="M393.07,390.06c-.06.13-.82-.1-1.7-.52s-1.55-.86-1.49-1,.83.1,1.71.52S393.13,389.93,393.07,390.06Z" style="fill:#263238"></path><path d="M396.55,401.69a5.47,5.47,0,0,1-2.25-.61c-1.19-.46-2.12-.95-2.07-1.09a5.46,5.46,0,0,1,2.26.61C395.68,401.07,396.6,401.55,396.55,401.69Z" style="fill:#263238"></path><path d="M377.87,410.8c-.07-.13.85-.76,1.93-1.6s1.9-1.6,2-1.5-.57,1-1.69,1.91A4.67,4.67,0,0,1,377.87,410.8Z" style="fill:#263238"></path><path d="M387.06,404.88c-.14,0-.34-.76-.7-1.67s-.72-1.62-.6-1.71.71.54,1.09,1.52S387.2,404.87,387.06,404.88Z" style="fill:#263238"></path><path d="M384.63,390.9c-.09.11-.68-.17-1.33-.64s-1.11-.93-1-1.05.67.17,1.32.63S384.71,390.78,384.63,390.9Z" style="fill:#263238"></path><path d="M406.06,369c.09.11-.49.68-1.29,1.27s-1.52,1-1.6.86.49-.69,1.29-1.28S406,368.86,406.06,369Z" style="fill:#263238"></path><path d="M409.29,377.81c0,.14-.89.33-2,.2s-2-.49-1.92-.63.91,0,2,.12S409.28,377.66,409.29,377.81Z" style="fill:#263238"></path><path d="M395.41,379.79c0,.14-.81.44-1.9.51s-1.95-.12-1.94-.26.87-.19,1.91-.26S395.38,379.65,395.41,379.79Z" style="fill:#263238"></path><path d="M396.6,371.44c0,.14-.86.16-1.79-.27s-1.46-1.08-1.36-1.18.73.32,1.58.71S396.62,371.29,396.6,371.44Z" style="fill:#263238"></path><path d="M410.49,387.29c-.08.12-.95-.29-1.94-.91s-1.74-1.23-1.66-1.36.94.29,1.93.92S410.56,387.17,410.49,387.29Z" style="fill:#263238"></path><rect x="370.28" y="412.08" width="74.09" height="13.13" style="fill:#D08770"></rect><polygon points="375.81 422.6 384.82 461.84 428.98 461.84 438.84 422.6 375.81 422.6" style="fill:#D08770"></polygon><path d="M444.33,425.22c0,.15-16.71.26-37.32.26s-37.33-.11-37.33-.26S386.39,425,407,425,444.33,425.08,444.33,425.22Z" style="fill:#263238"></path><path d="M403.13,380.08c-.13.07-.63-.52-1.14-1.32s-.81-1.52-.68-1.6.62.52,1.13,1.32S403.25,380,403.13,380.08Z" style="fill:#263238"></path><path d="M403.15,390.64a4.23,4.23,0,0,1,.39-2c.35-1.06.75-1.88.88-1.83s0,.94-.39,2S403.29,390.69,403.15,390.64Z" style="fill:#263238"></path><path d="M406.77,401.73c-.13.06-.68-.82-1.24-2a5.35,5.35,0,0,1-.76-2.2c.13-.06.68.82,1.23,2A5.28,5.28,0,0,1,406.77,401.73Z" style="fill:#263238"></path><path d="M398.94,410.66c-.1-.1.34-.78,1-1.54s1.27-1.29,1.38-1.19-.33.78-1,1.53S399.05,410.75,398.94,410.66Z" style="fill:#263238"></path><path d="M397.3,394.45c0,.15-.74.14-1.59,0s-1.53-.39-1.5-.53.73-.14,1.59,0S397.33,394.31,397.3,394.45Z" style="fill:#263238"></path></g><g id="freepik--Character--inject-85"><path d="M344.09,256.85a2.2,2.2,0,0,0-2.12-1.91,2.19,2.19,0,0,0,.72-2.24,2.21,2.21,0,0,0-2.94-1.31c1.88-2.18.16-6.25-2.71-6.42,2.35-2.47-.44-7.43-3.78-6.71a2.88,2.88,0,0,0-3-4.87c1.19-2.43-1.89-5.59-4.35-4.46.82-2.52-2.1-5.37-4.61-4.48a2.6,2.6,0,0,0-4.68-2.22A3.3,3.3,0,0,0,311,219a3.05,3.05,0,0,0-5.39-2.72,4.56,4.56,0,0,0-8-3.47c.19-1.72-1.55-3.15-3.27-3.3a9.82,9.82,0,0,0-4.92,1.39,3.42,3.42,0,0,0-3.67-1.94,10,10,0,0,0-4.08,1.81,5,5,0,0,0-1.13-2.47l-2.73,1a4.46,4.46,0,0,0-3.27-8.2c1.68-2,0-5-1.73-7l-1.49-1.77a5.51,5.51,0,0,0-1.54-1.43A2.88,2.88,0,0,0,266,192a3,3,0,0,0-5.53-2c-1.49-2.84-6.24-3-7.93-.29.06-1.45-2.07-1.87-3.37-1.24s-2.43,1.82-3.87,1.82a14.33,14.33,0,0,1-2.55-.61,4.14,4.14,0,0,0-4.68,3.31,6.3,6.3,0,0,0-7.65,2.36c-3.55-.39-6.92,1.45-10,3.22-1.47.84-3.14,2.68-2,3.91a4.92,4.92,0,0,0-5.75,4.78c-2.91-1.07-6.24,2.57-4.91,5.38-2.06-.74-4.3,2-3.15,3.9-2.18-.72-4.6,1.91-3.71,4-1.65-.56-3.07,1.76-2.43,3.38s2.36,2.5,3.94,3.23a5,5,0,0,0-3.68.54c-1,.76-1.23,2.61-.09,3.19a4.93,4.93,0,0,0-5.09,5.48c-2.24-.49-4,2.94-2.38,4.51-2.58,1-2.92,5.26-.54,6.68a7.2,7.2,0,0,0-2,10.21c-2.07.92-1.8,4.6.38,5.21-2.08,2.94,0,7.77,3.61,8.25a3.4,3.4,0,0,0-3.67,3.05,3.36,3.36,0,0,0,1.63,2.95c0,.11,0,.23,0,.35.08.68.48,1.32.61,2,0,.06,0,.11,0,.16a4.58,4.58,0,0,0-.35,1.67,2.43,2.43,0,0,0,0,.38,11.83,11.83,0,0,0-.61,2.06c-.41,3.25,3.07,5.83,5.3,8.54a14,14,0,0,1,2.67,5.07c.59,2.13,1.54,5.08,4,4.88-1.79,1.72-.31,5.16,2.36,5.52-1.28.27-1.18,2.07-.2,2.9s2.4,1.12,3.55,1.78a40.76,40.76,0,0,1,3.33,2.72c1.17.84,3,1.32,4.08.51a2.26,2.26,0,0,0,.19.42h0a1.49,1.49,0,0,0,.14,2.3,4.4,4.4,0,0,0,2.56.68l3,.15c4,1.46,8.14,2.67,12.25,2.09A5.59,5.59,0,0,0,240,322.5a9.46,9.46,0,0,0,8.23,1.13,7.27,7.27,0,0,0,4.91-5.74l3.58-.45,12.79,4.83c2.65,1,5.65,2,8.26,1.11a5.93,5.93,0,0,0,6.85.74,8.64,8.64,0,0,0,9.16.92A5.71,5.71,0,0,0,299,327.8a25,25,0,0,1,2.86-.29c1.87.12,3.93,1.51,5.41.55.87-.57,1-1.71,1.73-2.42s2.35-.91,3.62-1.21,3.83-6.28,3.41-7.41c3,.3,5.4-4.78,6.91-9.13,2.2-1.57,3.53-4.65,2.2-7a10.19,10.19,0,0,0,6.32-8.37c1.24.16,2.22-1.06,2.59-2.25s.41-2.51,1.09-3.55,1.74-1.62,2.14-2.71a4.82,4.82,0,0,0,.05-2.33c-.43-2.88-.85-5.77-1.27-8.65a2.91,2.91,0,0,0,1.76-4.51l3.12-1.79a2.81,2.81,0,0,0-1.39-1.91l2.75-1.4a3.12,3.12,0,0,1-.76-3.09l-5.15-1.6,5.42,1.67C343,259.57,344.18,258.33,344.09,256.85Z" style="fill:#263238"></path><path d="M281.66,342.69l-.32-17.2s17.1-2.53,21-24.7c1.95-11,1.72-29.16,1.05-44-.6-13.36-14.74-26.93-28.05-25.76l-36.18,6.22a8.49,8.49,0,0,0-7.06,8.39h0l1.19,97.79a24.18,24.18,0,0,0,24.18,23.89h0A24.18,24.18,0,0,0,281.66,342.69Z" style="fill:#ffbe9d"></path><path d="M299.93,271.46a2.85,2.85,0,0,1-2.8,2.83,2.72,2.72,0,0,1-2.89-2.62,2.84,2.84,0,0,1,2.79-2.83A2.72,2.72,0,0,1,299.93,271.46Z" style="fill:#263238"></path><path d="M300.22,266.89c-.29.46-2.7-1-5.74-.54s-5,2.46-5.39,2.09c-.19-.16.05-.95.9-1.88a7.29,7.29,0,0,1,4.24-2.18,7.08,7.08,0,0,1,4.64.95C299.93,266,300.36,266.68,300.22,266.89Z" style="fill:#263238"></path><path d="M270.5,271.46a2.85,2.85,0,0,1-2.8,2.83,2.73,2.73,0,0,1-2.89-2.62,2.85,2.85,0,0,1,2.8-2.83A2.71,2.71,0,0,1,270.5,271.46Z" style="fill:#263238"></path><path d="M270.44,267.84c-.41.43-2.85-1.45-6.34-1.49s-6.07,1.7-6.45,1.26c-.18-.19.23-1,1.36-1.78a8.77,8.77,0,0,1,5.17-1.54,8.49,8.49,0,0,1,5,1.73C270.28,266.87,270.63,267.65,270.44,267.84Z" style="fill:#263238"></path><path d="M279.87,289.14c0-.17,1.9-.47,5-.81.78-.07,1.53-.21,1.67-.74a4,4,0,0,0-.48-2.33l-2.21-6c-3.07-8.55-5.27-15.58-4.93-15.7s3.11,6.71,6.18,15.27q1.11,3.15,2.11,6a4.47,4.47,0,0,1,.35,3.08,1.94,1.94,0,0,1-1.3,1.12,4.86,4.86,0,0,1-1.34.16C281.81,289.34,279.88,289.32,279.87,289.14Z" style="fill:#263238"></path><path d="M281.34,325.49A56.55,56.55,0,0,1,251.71,317s7.44,15.53,29.73,13.84Z" style="fill:#eb996e"></path><path d="M272,261c-.42.78-3.4,0-7-.12s-6.65.49-7-.32c-.16-.38.45-1.09,1.73-1.72a11.52,11.52,0,0,1,5.38-1.07,11.68,11.68,0,0,1,5.31,1.4C271.61,259.86,272.17,260.61,272,261Z" style="fill:#263238"></path><path d="M300.36,258.85c-.52.75-2.91.27-5.7.52s-5.1,1-5.71.32c-.28-.33,0-1.06,1-1.82a9,9,0,0,1,9.19-.68C300.19,257.8,300.59,258.48,300.36,258.85Z" style="fill:#263238"></path><path d="M234,276.41c-.32-.15-13.11-4.47-13.23,8.75s13.17,10.62,13.2,10.24S234,276.41,234,276.41Z" style="fill:#ffbe9d"></path><path d="M229.93,290.36c-.06-.05-.23.15-.62.33a2.35,2.35,0,0,1-1.73,0c-1.39-.53-2.54-2.76-2.59-5.14a7.56,7.56,0,0,1,.68-3.29,2.65,2.65,0,0,1,1.75-1.75,1.17,1.17,0,0,1,1.35.64c.18.37.09.64.16.66s.29-.22.18-.77a1.45,1.45,0,0,0-.51-.83,1.73,1.73,0,0,0-1.27-.35,3.21,3.21,0,0,0-2.42,2,7.8,7.8,0,0,0-.84,3.68c.06,2.66,1.4,5.17,3.31,5.74a2.46,2.46,0,0,0,2.11-.33C229.9,290.67,230,290.38,229.93,290.36Z" style="fill:#eb996e"></path><path d="M212.94,305.92c6.36,2.4,5.47-28.73,11.13-32.49s6.69,11.67,14.29,6.44c4.94-3.4,1.72-5.78,4.66-11,3.9-6.91,14.57-7.48,18.51-14.37,2.28-4,1.67-9.22,4.16-13.1,2.34-3.65,6.84-5.23,11.1-6s8.74-1.09,12.54-3.16,6.73-6.68,5.15-10.72a230.23,230.23,0,0,0-54.32,4.13c-4.14.82-8.53,1.9-11.4,5-3,3.27-3.71,8-4.22,12.47Q220.76,275.52,217,308" style="fill:#263238"></path><path d="M268.18,188.59s.14-.14.45-.36a2.73,2.73,0,0,1,1.54-.45,3,3,0,0,1,2.23,1,4.68,4.68,0,0,1,1.07,3.11v.3l.29-.11a4.75,4.75,0,0,1,4.81.89,4.69,4.69,0,0,1,1,5.46l-.74,1.48,1.17-1.17a3,3,0,0,1,3.42-.34,3.29,3.29,0,0,1,1.66,3.81,4.53,4.53,0,0,1-.95,1.94,2.46,2.46,0,0,1-1.61,1.05.63.63,0,0,1-.56-.43c-.05-.21.1-.38.36-.42a1.27,1.27,0,0,1,1.24.93,4.83,4.83,0,0,1-.37,3.32,13,13,0,0,1-2.78,4.24c-.85.86-1.41,1.24-1.38,1.28s.16-.07.43-.25a9.4,9.4,0,0,0,1.1-.88,12.42,12.42,0,0,0,3-4.25,5.18,5.18,0,0,0,.44-3.61,1.73,1.73,0,0,0-1.73-1.25.89.89,0,0,0-.6.3.76.76,0,0,0-.17.71,1.09,1.09,0,0,0,1,.81,1.92,1.92,0,0,0,1.18-.41,4.67,4.67,0,0,0,.86-.8,5.15,5.15,0,0,0,1.07-2.17,4.29,4.29,0,0,0-.16-2.5,3.73,3.73,0,0,0-5.82-1.46l.43.31a5.06,5.06,0,0,0-6.44-7l.29.19a4.94,4.94,0,0,0-1.24-3.33,3.17,3.17,0,0,0-2.48-1,2.6,2.6,0,0,0-1.6.59,1.76,1.76,0,0,0-.31.32C268.19,188.54,268.17,188.59,268.18,188.59Z" style="fill:#263238"></path><path d="M313.78,217.72a.93.93,0,0,0,.15-.29,1.86,1.86,0,0,0,0-.94,2.5,2.5,0,0,0-.77-1.3,2.11,2.11,0,0,0-2-.54l.21.19a2.59,2.59,0,0,0-.67-2.16,2.72,2.72,0,0,0-2.46-.94l.26.17a5.74,5.74,0,0,0-.89-2.29,2.41,2.41,0,0,0-1.13-.82,1.76,1.76,0,0,0-1.48.1l.38.19a3.26,3.26,0,0,0-6.21-1l-1,2.13,1.45-1.85a2.34,2.34,0,0,0,.43-.93,2.94,2.94,0,0,0-1.06-2.91,3.43,3.43,0,0,0-2.94-.5,4.2,4.2,0,0,0-2.31,1.61,6,6,0,0,0-1,2.39l.47.05a2.3,2.3,0,0,0-1.79-2,3.54,3.54,0,0,0-2.41.31,8.35,8.35,0,0,0-3,2.43,4.07,4.07,0,0,0-.9,2.31,2.83,2.83,0,0,0,.05.66c0,.14.06.21.08.21s0-.31,0-.86a4.2,4.2,0,0,1,1-2.15,8.33,8.33,0,0,1,2.95-2.24,3.18,3.18,0,0,1,2.13-.25,1.86,1.86,0,0,1,1.43,1.61l0,2.18.44-2.14a4.47,4.47,0,0,1,3-3.59,2.91,2.91,0,0,1,2.48.42,2.39,2.39,0,0,1,.86,2.36,1.79,1.79,0,0,1-.33.71l.46.28a2.83,2.83,0,0,1,3-1.55,2.88,2.88,0,0,1,2.18,2.39l0,.39.34-.21a1.62,1.62,0,0,1,2,.58,5.34,5.34,0,0,1,.84,2.1l.05.2.21,0a2.43,2.43,0,0,1,2.72,2.61l0,.26.25-.08a1.86,1.86,0,0,1,1.71.42,2.36,2.36,0,0,1,.76,1.15A2.39,2.39,0,0,1,313.78,217.72Z" style="fill:#263238"></path><path d="M222.45,249.85a5.16,5.16,0,0,1-.34-2.14,5.24,5.24,0,0,1,.83-2.45,4.51,4.51,0,0,1,2.74-2l.16,0-.05-.16a2.51,2.51,0,0,1,.8-2.57,2.27,2.27,0,0,1,1.44-.55,2.68,2.68,0,0,0,1.79-.52,3.75,3.75,0,0,0,.85-1.76,3.21,3.21,0,0,1,4.51-2.22l.92.48-.62-.82a2.8,2.8,0,0,1,4-3.84l.6.51-.19-.77a4.49,4.49,0,0,1,7.75-4l.51.59,0-.79a6.92,6.92,0,0,1,1.12-4,7.13,7.13,0,0,1,2.88-2.57,6.3,6.3,0,0,1,3.69-.57,7.17,7.17,0,0,1,5.56,4.25l.25.65.23-.66a4,4,0,0,1,2.49-2.34,5.16,5.16,0,0,1,3.36-.06,9,9,0,0,1,4.71,4.21l.12.21.2-.15a9.45,9.45,0,0,1,7.39-1.78,9.09,9.09,0,0,1,5.11,2.91,9.75,9.75,0,0,1,1.95,3.28c.28.83.35,1.3.38,1.29a5.79,5.79,0,0,0-.26-1.33,9.53,9.53,0,0,0-7.12-6.49,9.77,9.77,0,0,0-7.72,1.78l.32.06a9.45,9.45,0,0,0-4.93-4.45,5.66,5.66,0,0,0-3.68.05,4.53,4.53,0,0,0-2.81,2.64h.49a7.66,7.66,0,0,0-6-4.59,6.82,6.82,0,0,0-4,.61,7.8,7.8,0,0,0-3.1,2.77,7.48,7.48,0,0,0-1.2,4.32l.48-.19a5,5,0,0,0-8.66,4.5l.41-.26a3.28,3.28,0,0,0-4.72,4.51l.29-.35a3.68,3.68,0,0,0-4.14.71c-1.13,1-.91,2.65-1.71,3.4a2.39,2.39,0,0,1-1.55.43,2.64,2.64,0,0,0-1.64.66,2.82,2.82,0,0,0-.86,2.93l.11-.2a4.76,4.76,0,0,0-2.87,2.18,5.32,5.32,0,0,0-.79,2.56,4.35,4.35,0,0,0,.25,1.64A2.45,2.45,0,0,0,222.45,249.85Z" style="fill:#455a64"></path><path d="M327.84,256.91a5.27,5.27,0,0,0,.49-.77,16.68,16.68,0,0,0,1.16-2.31,6.91,6.91,0,0,0,.46-4,5.23,5.23,0,0,0-1.19-2.28,3.54,3.54,0,0,0-2.61-1.2l.22.26a4.57,4.57,0,0,0-1.3-4.11,4.67,4.67,0,0,0-4.51-1.44l.32.31a5.83,5.83,0,0,0-1-4.61,5.71,5.71,0,0,0-4.42-2.32,6.19,6.19,0,0,0-2,.27c-.61.16-1.27.3-1.66,0s-.47-1-.82-1.58a4.84,4.84,0,0,0-1.32-1.45,5.35,5.35,0,0,0-6.74.25l.4.14a14,14,0,0,0-.93-3.5,4.68,4.68,0,0,0-2.19-2.47,4.44,4.44,0,0,0-2.9-.18,13,13,0,0,0-2.33.77,11.84,11.84,0,0,0-2.89,1.81c-.3.25-.52.47-.66.61s-.21.23-.2.24a16.13,16.13,0,0,1,3.86-2.4,12.13,12.13,0,0,1,2.29-.69,4.09,4.09,0,0,1,2.66.2,4.18,4.18,0,0,1,2,2.29,13.47,13.47,0,0,1,.87,3.39l.07.47.34-.34a4.88,4.88,0,0,1,6.09-.17,4.65,4.65,0,0,1,1.17,1.29,8.16,8.16,0,0,1,.35.84,2,2,0,0,0,.61.91,1.65,1.65,0,0,0,1.1.29,5.32,5.32,0,0,0,1-.18,5.55,5.55,0,0,1,1.88-.26,5.23,5.23,0,0,1,4,2.09,5.36,5.36,0,0,1,.92,4.19l-.09.42.41-.12a4.2,4.2,0,0,1,4,1.28,4.12,4.12,0,0,1,1.21,3.68l-.06.27h.28a3.16,3.16,0,0,1,2.31,1,4.87,4.87,0,0,1,1.14,2.08,6.74,6.74,0,0,1-.36,3.87C328.46,255.8,327.76,256.87,327.84,256.91Z" style="fill:#455a64"></path><path d="M201.77,228.24a6.27,6.27,0,0,1,.55-2.08,6.16,6.16,0,0,1,1.59-2,5.49,5.49,0,0,1,3.19-1.27h.2l-.08-.18a4.19,4.19,0,0,1,.12-3.23,4.27,4.27,0,0,1,2.78-2.45l.19,0-.06-.19a3.86,3.86,0,0,1,3.22-4.73,3.13,3.13,0,0,0,1.92-.47c.59-.59.4-1.39.65-1.88a2.22,2.22,0,0,1,3.08-1l.26.16.09-.29a5.17,5.17,0,0,1,6.89-2.94l.24.12.1-.25a4.5,4.5,0,0,1,6.93-1.41l.25.24.16-.3c1.41-2.56,6.09-2.58,7.5.26l.25.51.24-.51a3.26,3.26,0,0,1,4.14-1.51,3.29,3.29,0,0,1,1.9,3.07l0,.72.51-.53c2.41-2.51,7.23-1.38,8.34,1.68l.15.41.3-.32a5.36,5.36,0,0,1,9.3,3.21l0,.35.32-.15a7,7,0,0,1,10,7l0,.23.23,0a10.63,10.63,0,0,1,7.53,2.6,10.26,10.26,0,0,1,3.18,5.21,10.82,10.82,0,0,1,.28,3.9c-.1.9-.23,1.36-.2,1.37a6.85,6.85,0,0,0,.32-1.35,10.56,10.56,0,0,0-.19-4,10.39,10.39,0,0,0-3.18-5.39,10.88,10.88,0,0,0-7.76-2.76l.21.21a7.48,7.48,0,0,0-10.62-7.44l.35.2a5.87,5.87,0,0,0-10.18-3.53l.44.09a5.47,5.47,0,0,0-4.06-3.28,5.55,5.55,0,0,0-5.18,1.41l.47.2a3.85,3.85,0,0,0-2.21-3.59,3.8,3.8,0,0,0-4.86,1.78H242a4.7,4.7,0,0,0-4.23-2.46,4.65,4.65,0,0,0-4.22,2.17l.42-.06a5,5,0,0,0-7.77,1.6l.35-.13a5.65,5.65,0,0,0-7.56,3.25l.35-.12a2.67,2.67,0,0,0-3.74,1.22c-.27.69-.14,1.39-.54,1.74s-1,.3-1.66.36a4.11,4.11,0,0,0-3,2,4,4,0,0,0-.5,3.29l.13-.23a4.61,4.61,0,0,0-3,2.67,4.48,4.48,0,0,0-.08,3.46l.12-.19a5.64,5.64,0,0,0-3.31,1.38,6.22,6.22,0,0,0-1.59,2.11,5.63,5.63,0,0,0-.42,1.58A4,4,0,0,0,201.77,228.24Z" style="fill:#455a64"></path><path d="M219.42,289.69s-.15,0-.43.13a6.86,6.86,0,0,0-1.15.62,8.13,8.13,0,0,0-3.05,3.66,10.38,10.38,0,0,0-.36,7,8.17,8.17,0,0,0,2.35,3.52,9.23,9.23,0,0,0,4,2.19,8.77,8.77,0,0,0,4.54-.37,7.94,7.94,0,0,0,3.57-2.29,8.85,8.85,0,0,0,2.15-6.68,8.18,8.18,0,0,0-1.69-4.46,4.59,4.59,0,0,0-1-.87c-.27-.14-.41-.21-.42-.19a6.06,6.06,0,0,1,1.23,1.2,8.4,8.4,0,0,1,1.47,4.35,8.51,8.51,0,0,1-2.15,6.31,7.5,7.5,0,0,1-3.35,2.13,8.42,8.42,0,0,1-4.26.34,8.77,8.77,0,0,1-3.75-2.05A7.75,7.75,0,0,1,214.9,301a10.21,10.21,0,0,1,.24-6.74,8.44,8.44,0,0,1,2.82-3.63C218.86,290,219.44,289.73,219.42,289.69Z" style="fill:#e0e0e0"></path><path d="M271.43,292.57a3.85,3.85,0,0,1,2.47-1,4.65,4.65,0,0,1,3.69,1.26,3.34,3.34,0,0,1,.7,3.71l-.05-.35a3.74,3.74,0,0,1-2.36,2.84,4,4,0,0,1-3.68-.54,4.29,4.29,0,0,1-1.71-3.32A3.53,3.53,0,0,1,271.43,292.57Z" style="fill:#eb996e"></path><path d="M230.45,273.83A4.64,4.64,0,0,0,233.6,278c-.85,0-1.1,1.34-.53,2a2.93,2.93,0,0,0,2.36.69,13.12,13.12,0,0,0,10.3-5.89,3.86,3.86,0,0,0,1.91-5.73,3.42,3.42,0,0,0,2.3-4.07,2.76,2.76,0,0,0,3.34-2.83,35,35,0,0,0,11.54-8,3.55,3.55,0,0,0-.1-4.73,2.69,2.69,0,0,0,1-4.41,2.54,2.54,0,0,0,2-3.11c1.54-.07,9.22-.38,9.26-1.91,4.31-1.11,6.37-3.19,6.6-4.39s2.45-.79,2.64-1.94c.26-1.55-1.75-2.39-3.32-2.52a28.69,28.69,0,0,0-13.69,2.23c-4.94,2.13-9.16,5.61-13.3,9l-5.69,4.7c-1.43,1.19-3,2.8-2.57,4.61-1.3-.73-2.93.36-3.62,1.68s-.86,2.87-1.63,4.14a20,20,0,0,1-2.69,2.91,4.12,4.12,0,0,0-1.33,3.57,5.09,5.09,0,0,0-5.48,3.15c-1.15-.82-2.87.31-3.15,1.7a6.54,6.54,0,0,0,1,4" style="fill:#263238"></path><path d="M274.67,271.66a21.7,21.7,0,0,0,.05-2.94,12,12,0,0,0-3.18-7.16,11.59,11.59,0,0,0-4.51-3,11.91,11.91,0,0,0-6.18-.57,11.74,11.74,0,0,0-6.09,3.09,11.69,11.69,0,0,0-2.44,13.67,11.67,11.67,0,0,0,4.65,5,11.88,11.88,0,0,0,6,1.61,11.74,11.74,0,0,0,5.29-1.28,12,12,0,0,0,5.45-5.62,23,23,0,0,0,1-2.78,3.49,3.49,0,0,1-.12.76,5.5,5.5,0,0,1-.23.91,8.1,8.1,0,0,1-.44,1.19,11.93,11.93,0,0,1-5.47,5.87,12.06,12.06,0,0,1-5.44,1.38,12.33,12.33,0,0,1-6.24-1.62A11.73,11.73,0,0,1,254,278a11.5,11.5,0,0,1-2.1-3,12.16,12.16,0,0,1,2.55-14.26,11.19,11.19,0,0,1,3-2.1,11.53,11.53,0,0,1,3.35-1.09,12.13,12.13,0,0,1,11.05,3.81,12,12,0,0,1,3.1,7.39,10.89,10.89,0,0,1,0,1.28,5.51,5.51,0,0,1-.1.93A3.55,3.55,0,0,1,274.67,271.66Z" style="fill:#455a64"></path><path d="M308.79,271.46a26.22,26.22,0,0,0,0-2.95A11.84,11.84,0,0,0,295,257.77a11.93,11.93,0,0,0-6.09,3.08,11.73,11.73,0,0,0-2.44,13.67,11,11,0,0,0,2,2.9,11.2,11.2,0,0,0,2.64,2.1,11.85,11.85,0,0,0,6,1.61,11.69,11.69,0,0,0,5.28-1.28,11.88,11.88,0,0,0,5.45-5.61,22.93,22.93,0,0,0,1-2.78,4.85,4.85,0,0,1-.12.76,6.63,6.63,0,0,1-.23.9,10.14,10.14,0,0,1-.44,1.2,12.11,12.11,0,0,1-10.92,7.24,12.23,12.23,0,0,1-6.24-1.62,11.44,11.44,0,0,1-2.76-2.18,11.28,11.28,0,0,1-2.1-3,12.15,12.15,0,0,1,2.54-14.27,12.25,12.25,0,0,1,6.36-3.19,12.27,12.27,0,0,1,6.42.64A12.1,12.1,0,0,1,309,268.5a7.66,7.66,0,0,1,0,1.27,5.63,5.63,0,0,1-.09.93A4,4,0,0,1,308.79,271.46Z" style="fill:#455a64"></path><path d="M308.16,262.26a12.49,12.49,0,0,0-10.36-6c-7.48-.16-12.86,5.79-12.86,5.79-6.81-1.69-10.75.37-10.75.37a14.67,14.67,0,0,0-11.56-6.2c-6.78-.35-12.08,6.27-12.08,6.27l-5.38.54.32,4.79,6-.47s2.87-8.61,10.29-8.78c10-.22,11.36,7.21,11.36,7.21l2.37-.17-.7-1.45s5.64-1.77,9.51,0l0,1.72,1.68.17s2.83-8,11.71-7.54c10.12.53,10.83,10.27,10.83,10.27l4-.27.05-4.72Z" style="fill:#455a64"></path><path d="M261.8,280a4.83,4.83,0,0,1-2.18-.19,10.34,10.34,0,0,1-7.45-7,4.9,4.9,0,0,1-.31-2.17c.08,0,.19.81.66,2.05a11.15,11.15,0,0,0,7.2,6.8C261,279.81,261.81,279.88,261.8,280Z" style="fill:#fff"></path><path d="M294.11,279a3.65,3.65,0,0,1-1.72-.34,8.78,8.78,0,0,1-5.51-6.09,3.66,3.66,0,0,1-.16-1.74,16.11,16.11,0,0,1,.51,1.64,10.43,10.43,0,0,0,2,3.48,10.1,10.1,0,0,0,3.26,2.37A11.91,11.91,0,0,1,294.11,279Z" style="fill:#fff"></path><path d="M280,298.22c-.28.35-2.68-1.11-5.8-2.51s-5.79-2.27-5.71-2.71,3.05-.23,6.36,1.28S280.3,297.9,280,298.22Z" style="fill:#263238"></path><path d="M157.31,417.41s7.22-8.18,11.54-7.84c0,0-2.06.13-.42-6.76S178,389.39,178,389.39l15.43-28.91s7.92-19.43,15.07-23.47,11.82-3.87,11.82-3.87v38.69l-3.87,32.32-5.63,16.55c-4.74,13.95-17.61,28.05-32.35,27.81H160.69Z" style="fill:#D08770"></path><path d="M335.86,343.53a109,109,0,0,0-22.33-7.79c-11.61-2.49-32.43-3.47-32.43-3.47s-2.84,26.28-37,17.87c-12-2.95-10.93-19.15-10.93-19.15s-12.23,1.37-14.37,2.45c-10,5-15.84,59.1-16.26,70.71s.28,18.57,6.67,35.39l8.9,22.39H339.51l-3.57-20.14,9.78-71S346.59,352.28,335.86,343.53Z" style="fill:#D08770"></path><g style="opacity:0.30000000000000004"><path d="M252.91,458.34c5.91,6.17,22.9,2.87,32.34,1.08,25.16-4.78,40.83-19.62,48.91-43.92Z"></path></g><path d="M210.7,443.27a3.47,3.47,0,0,1-.35-.7l-.91-2c-.4-.89-.87-2-1.32-3.29s-1.07-2.76-1.54-4.44c-.25-.83-.52-1.7-.79-2.61s-.48-1.88-.74-2.87c-.53-2-.9-4.14-1.32-6.4A93.6,93.6,0,0,1,202.56,406a96.12,96.12,0,0,1,1.35-14.91c.22-1.13.42-2.24.63-3.31s.48-2.09.71-3.09c.44-2,1-3.82,1.51-5.49s1-3.14,1.48-4.45.89-2.41,1.27-3.31.64-1.55.86-2.07a3.61,3.61,0,0,1,.33-.7,3.6,3.6,0,0,1-.24.74l-.77,2.1c-.34.91-.77,2-1.18,3.33s-1,2.79-1.4,4.47-1,3.49-1.44,5.48c-.22,1-.49,2-.69,3.08s-.39,2.17-.59,3.3A97.86,97.86,0,0,0,203.08,406a96.5,96.5,0,0,0,1.12,14.84c.41,2.26.76,4.41,1.27,6.38.25,1,.43,2,.7,2.86s.52,1.78.76,2.62c.45,1.67,1,3.13,1.46,4.44s.87,2.41,1.24,3.31.61,1.56.82,2.08A4,4,0,0,1,210.7,443.27Z" style="fill:#263238"></path><g style="opacity:0.30000000000000004"><path d="M207.58,378.42a25.5,25.5,0,0,0-6.24,12.08,67.28,67.28,0,0,0-1.43,13.67,68.19,68.19,0,0,0,.6,14.07c.83,4.64,2.21,8.24,5.34,11.75a83.21,83.21,0,0,1-3-20.27A81.12,81.12,0,0,1,207.58,378.42Z"></path></g><path d="M189.33,425.28a28.54,28.54,0,0,0-.67-4.37,17.34,17.34,0,0,0-5.57-8.85,13,13,0,0,0-5.11-2.68,15.24,15.24,0,0,0-4.73-.43c-2.73.19-4.37.73-4.4.62a4.92,4.92,0,0,1,1.14-.39,18.41,18.41,0,0,1,3.23-.59,14.77,14.77,0,0,1,4.88.32,13.28,13.28,0,0,1,5.33,2.75,17,17,0,0,1,5.59,9.16,15,15,0,0,1,.4,3.26A4.67,4.67,0,0,1,189.33,425.28Z" style="fill:#263238"></path><path d="M237.65,361.94a4.23,4.23,0,0,0-1.88-1.66,188.43,188.43,0,0,0-18.61-9.78,94.24,94.24,0,0,0-16-5.29q-1.53,2.44-2.83,4.91a13.16,13.16,0,0,0,11.1,3.43c1.32-.21,2.69-.63,4-.23,2,.63,2.86,2.9,4.49,4.18,2.41,1.88,5.95,1.29,8.66,2.69a20.23,20.23,0,0,1,4,3.33c1.28,1.17,2.89,2.2,4.62,2S238.4,363.5,237.65,361.94Z" style="fill:#fff"></path><path d="M168.39,438.68s4.24-4.06,3.9-8,1.36-11.19-3.9-12.38-8.3,0-8.3,0-14.07-5.08-17.29-3.22-4.24,6.95-4.24,6.95-6.27,7.63-6.61,10.17a7.49,7.49,0,0,0,1.53,4.92l2.2.68s-.68,2.88.34,4.06a15.12,15.12,0,0,0,3.11,2.43,5.48,5.48,0,0,0,2.35,4.18c2.38,1.69,8.1.89,8.1.89s13-1,15.42-3.26S168.39,438.68,168.39,438.68Z" style="fill:#ffbe9d"></path><path d="M135.22,437.76a163.4,163.4,0,0,0,21.61,4c1.25.14,2.74.18,3.49-.83a2.6,2.6,0,0,0-.7-3.36,10.44,10.44,0,0,0-3.41-1.58c-3.3-1.2-6.18-3.3-9.11-5.23s-6.08-3.73-9.56-4.2" style="fill:#ffbe9d"></path><path d="M137.54,426.57a1.91,1.91,0,0,1,.55,0,12.69,12.69,0,0,1,1.56.32,22.14,22.14,0,0,1,5.36,2.33c2.15,1.22,4.52,3,7.31,4.6A24.07,24.07,0,0,0,156.9,436a9.63,9.63,0,0,1,2.51,1.12,3.45,3.45,0,0,1,1.53,2.48,2.23,2.23,0,0,1-.39,1.5,2.36,2.36,0,0,1-1.26.86,6.89,6.89,0,0,1-2.78.06c-1.76-.22-3.46-.45-5.07-.7-3.22-.5-6.1-1-8.5-1.56s-4.35-1-5.68-1.36c-.66-.17-1.17-.32-1.52-.42a2,2,0,0,1-.52-.19,2,2,0,0,1,.54.08l1.55.34c1.34.29,3.29.72,5.7,1.19s5.29,1,8.5,1.45c1.61.23,3.3.46,5.06.66a6.72,6.72,0,0,0,2.57,0,1.7,1.7,0,0,0,1.28-1.82,2.9,2.9,0,0,0-1.3-2.1,9.54,9.54,0,0,0-2.39-1.07,24.07,24.07,0,0,1-4.66-2.18c-2.81-1.68-5.14-3.46-7.25-4.7a24.25,24.25,0,0,0-5.22-2.46C138.29,426.71,137.53,426.62,137.54,426.57Z" style="fill:#eb996e"></path><path d="M150.72,420.4,139.79,398s-1-3.68,1.37-4.11,3.43.43,4,1.8S158.58,424,158.58,424v4.83Z" style="fill:#455a64"></path><path d="M160.58,440.44c-.26.5,4.52,6.78,5.35,6.17s-1.65-10.17-1.65-10.17l-.95-2.81-4.75-3.21-.37,5.12Z" style="fill:#455a64"></path><path d="M138.58,422c-.38,5,4.53,5.81,7.39,8a57.18,57.18,0,0,0,8.91,5.41c1.39.73,3.1,1.57,4.5.85,1.15-.59,1.33-1.6,1.18-2.89a6.63,6.63,0,0,0-1.54-3.54c-3.59-4.11-6.91-7.72-10.88-11.55" style="fill:#ffbe9d"></path><path d="M148.14,418.33a2.26,2.26,0,0,1,.4.32c.25.22.62.55,1.08,1,.92.86,2.23,2.14,3.81,3.78s3.4,3.61,5.38,5.85a7.06,7.06,0,0,1,2,4.31,4.39,4.39,0,0,1,0,1.3,2.23,2.23,0,0,1-.66,1.22,2.94,2.94,0,0,1-2.6.68,9,9,0,0,1-2.46-.93l-2.19-1.17c-1.44-.77-2.81-1.55-4.08-2.36s-2.42-1.69-3.47-2.46-2.2-1.28-3.17-1.87a10,10,0,0,1-2.43-1.92,4.66,4.66,0,0,1-1.08-2.07,5,5,0,0,1-.13-1.47,1.77,1.77,0,0,1,.06-.51,14,14,0,0,0,.27,1.93,4.53,4.53,0,0,0,1.1,1.93,9.93,9.93,0,0,0,2.39,1.79c1,.56,2.1,1.09,3.23,1.83s2.21,1.63,3.49,2.42,2.62,1.55,4.06,2.31l2.19,1.16a8.66,8.66,0,0,0,2.31.88,2.15,2.15,0,0,0,2.7-2.64,6.57,6.57,0,0,0-1.87-4c-2-2.26-3.76-4.26-5.29-5.92s-2.81-3-3.68-3.89l-1-1C148.24,418.48,148.13,418.35,148.14,418.33Z" style="fill:#eb996e"></path><path d="M139.16,444.07a4.37,4.37,0,0,1,.91-3.47,3.61,3.61,0,0,1,2.49-1,10.48,10.48,0,0,1,2.72.36" style="fill:#ffbe9d"></path><path d="M145.28,440c0,.08-.54,0-1.35-.08a5.22,5.22,0,0,0-3,.4,3.18,3.18,0,0,0-1.56,2.45,7.36,7.36,0,0,1-.19,1.32,2.48,2.48,0,0,1-.18-1.36,4.18,4.18,0,0,1,.36-1.49,3.07,3.07,0,0,1,1.32-1.38,4.89,4.89,0,0,1,3.33-.31A3.32,3.32,0,0,1,145.28,440Z" style="fill:#eb996e"></path><path d="M159.31,441.82a2.22,2.22,0,0,1,2.42,2.15,3.55,3.55,0,0,1-1.85,3,9.3,9.3,0,0,1-3.51,1,47.31,47.31,0,0,1-11,.36" style="fill:#ffbe9d"></path><path d="M145.41,448.34c0-.08,1.24,0,3.22,0a58.16,58.16,0,0,0,7.71-.6,7.88,7.88,0,0,0,3.88-1.3,3,3,0,0,0,1.27-2.82,2.31,2.31,0,0,0-1.36-1.63,4.64,4.64,0,0,0-.82-.15,1.16,1.16,0,0,1,.88,0,2.45,2.45,0,0,1,1.66,1.74,3.35,3.35,0,0,1-1.33,3.28,8.08,8.08,0,0,1-4.11,1.44,44.7,44.7,0,0,1-7.79.45c-1,0-1.8-.11-2.35-.18A2.88,2.88,0,0,1,145.41,448.34Z" style="fill:#eb996e"></path><path d="M162,419.41a8.31,8.31,0,0,0-1.43,12.79,4.18,4.18,0,0,0,2.75,1.43,5.11,5.11,0,0,0,3.43-1.74,26.06,26.06,0,0,0,4.49-5.6" style="fill:#ffbe9d"></path><path d="M171.25,426.29a3.85,3.85,0,0,1-.52,1,21.38,21.38,0,0,1-1.81,2.56,20,20,0,0,1-1.44,1.61,11.42,11.42,0,0,1-1.88,1.66,3.77,3.77,0,0,1-2.76.69,4.83,4.83,0,0,1-2.58-1.59A8.57,8.57,0,0,1,158,427a8.25,8.25,0,0,1,1-4.56,8.1,8.1,0,0,1,2-2.41,3,3,0,0,1,1-.61,10.75,10.75,0,0,0-2.67,3.2,8.08,8.08,0,0,0-.86,4.35,8.24,8.24,0,0,0,2.16,4.92,4.44,4.44,0,0,0,2.3,1.45,3.27,3.27,0,0,0,2.4-.59,12.3,12.3,0,0,0,1.84-1.56c.55-.53,1-1.06,1.46-1.55C170.35,427.66,171.17,426.24,171.25,426.29Z" style="fill:#eb996e"></path><path d="M94.22,459.09V448.73l63.37,1.15-64.4-2.2.57-2.29L170,447.86s-3.49,5.62,0,10.32Z" style="fill:#ebebeb"></path><path d="M90.33,461.81c1.14-.22,81.09,0,81.09,0V451.36l74.15,19.54v-3.63l-75.69-20h-2.73v10.91H94a3.64,3.64,0,0,0-3.64,3.63Z" style="fill:#263238"></path><path d="M246.06,465a100.62,100.62,0,0,1-26.73-8.22c-11.48-5.39-22.3-13.06-34.89-14.61a22,22,0,0,0-8.71.43,12.2,12.2,0,0,0-7,4.94h0A103.67,103.67,0,0,1,179,449.66c4.52,1.25,29.11,7.36,44.7,11.82s21.92,6.24,21.92,6.24Z" style="fill:#e0e0e0"></path><path d="M275.24,340.88l.19-.05.56-.14,2.2-.48c1.91-.44,4.71-1,8.19-2a32.19,32.19,0,0,0,5.57-1.93,2.33,2.33,0,0,0,.6-.44c.17-.19.33-.43.5-.65l1-1.36,2.19-2.84c1.5-2,3.09-4,4.69-6.25.41-.56.8-1.12,1.19-1.7a4.3,4.3,0,0,0,.79-1.84,7.53,7.53,0,0,0-.73-4.11l-.06-.14.09-.12a10.68,10.68,0,0,0,2-4.63,3.38,3.38,0,0,0,0-1.23,1.89,1.89,0,0,0-.62-1,4,4,0,0,0-2.38-.77h-.12l-.07-.08-1.42-1.66,0,0a5,5,0,0,0-3.25-.73,18,18,0,0,0-3.61.55l-.14,0-.11-.1-.16-.14A15.14,15.14,0,0,0,288,305a3.72,3.72,0,0,0-2.27-.22,4,4,0,0,0-1.94,1.14,37,37,0,0,0-3.34,3.27,2.14,2.14,0,0,0-.51.86,2.89,2.89,0,0,0,.11,1,9.11,9.11,0,0,0,.82,2l.12.22-.22.12-14.9,7.94-6.3,3.4-2.8,1.56a14.08,14.08,0,0,0-2.43,1.54,6.13,6.13,0,0,0-1.16,2.27,20,20,0,0,0-.49,2.28c-.21,1.43-.29,2.68-.35,3.69s-.05,1.79-.05,2.32V339a1.66,1.66,0,0,1,0,.21.55.55,0,0,1,0-.2l0-.6c0-.53,0-1.31,0-2.33a33.73,33.73,0,0,1,.28-3.72,16.53,16.53,0,0,1,.46-2.31,6.14,6.14,0,0,1,1.2-2.41,5.79,5.79,0,0,1,1.18-.87l1.3-.76,2.79-1.58L265.7,321l14.87-8-.1.34a10.35,10.35,0,0,1-.88-2.14,3.47,3.47,0,0,1-.12-1.22,2.43,2.43,0,0,1,.62-1.12,36.78,36.78,0,0,1,3.39-3.33,4.48,4.48,0,0,1,2.17-1.27,4.31,4.31,0,0,1,2.54.24,15.53,15.53,0,0,1,4.56,2.22l.18.16-.25-.06a17.73,17.73,0,0,1,3.73-.57,8.28,8.28,0,0,1,1.86.12,3.59,3.59,0,0,1,1.74.74h0v0l1.42,1.65-.2-.09a4.48,4.48,0,0,1,2.72.91,2.42,2.42,0,0,1,.78,1.26,4,4,0,0,1,0,1.42,11.22,11.22,0,0,1-2.13,4.87l0-.27a8,8,0,0,1,.76,4.41,4.77,4.77,0,0,1-.87,2l-1.2,1.71c-1.63,2.21-3.23,4.28-4.74,6.23l-2.21,2.83q-.52.69-1,1.35c-.17.22-.32.44-.52.66a2.49,2.49,0,0,1-.71.52,31.46,31.46,0,0,1-5.67,1.9c-3.49.9-6.3,1.47-8.23,1.85l-2.21.42-.57.09C275.31,340.89,275.24,340.89,275.24,340.88Z" style="fill:#eb996e"></path><path d="M252.27,341.23s-.45-11.94,2.39-13.83,26-14.19,26-14.19-1.18-2.13-.94-3.31,5.91-5.92,5.91-5.92,5.44,1.42,7.1,3.08c0,0,5.2-1.42,7.09.23l1.42,1.66s3.55,0,3.31,2.84a10.8,10.8,0,0,1-2.13,5.2s1.66,3.31.24,5.68-8.52,11.35-9.93,13.25-17.48,5.67-17.48,5.67Z" style="fill:#ffbe9d"></path><path d="M252.27,341.23a2,2,0,0,1,.42,0h1.2l4.59,0,16.8.16h0c2.62-.64,5.45-1.37,8.43-2.22,1.48-.43,3-.88,4.56-1.41.78-.26,1.56-.54,2.33-.86.38-.16.76-.33,1.13-.53a2.5,2.5,0,0,0,.94-.7c2.1-2.73,4.29-5.6,6.56-8.56,1.11-1.5,2.29-3,3.29-4.61s.51-3.71-.26-5.41l-.06-.15.09-.13a10.78,10.78,0,0,0,2-4.29,2.73,2.73,0,0,0-.24-2.22,3.13,3.13,0,0,0-2-1,5.45,5.45,0,0,0-.67-.07h-.12l-.08-.09c-.47-.56-.95-1.11-1.42-1.66l0,0a3.2,3.2,0,0,0-1.56-.64,8.72,8.72,0,0,0-1.77-.09,18.15,18.15,0,0,0-3.53.55l-.14,0-.11-.1a10.94,10.94,0,0,0-3.34-1.83c-1.2-.46-2.42-.85-3.63-1.18l.22-.05c-1.57,1.32-3.1,2.66-4.48,4.06a10.87,10.87,0,0,0-1,1.08,1.35,1.35,0,0,0-.4,1.17,8,8,0,0,0,.93,2.6l.11.22-.21.11-15.72,8.38-6.58,3.58L255.58,327a5,5,0,0,0-1.23.88,4.28,4.28,0,0,0-.72,1.24,20.06,20.06,0,0,0-1,5c-.16,1.5-.22,2.79-.26,3.83s0,1.83,0,2.4c0,.25,0,.46,0,.62a1.87,1.87,0,0,1,0,.21.65.65,0,0,1,0-.21l0-.62c0-.54,0-1.35,0-2.4s0-2.34.18-3.86a20.09,20.09,0,0,1,1-5.11,4.66,4.66,0,0,1,.75-1.33,5.37,5.37,0,0,1,1.29-.95c.93-.55,1.9-1.1,2.91-1.67l6.56-3.63L280.57,313l-.1.32a8.36,8.36,0,0,1-1-2.79,1.8,1.8,0,0,1,.07-.82,1.42,1.42,0,0,1,.19-.37A2,2,0,0,1,280,309c.31-.41.66-.76,1-1.13,1.41-1.42,2.94-2.76,4.52-4.1l.1-.09.12,0a37,37,0,0,1,3.7,1.2,11.21,11.21,0,0,1,3.52,1.94l-.25-.07a18.3,18.3,0,0,1,3.63-.56,8.59,8.59,0,0,1,1.89.09,3.66,3.66,0,0,1,1.81.76h0v0l1.42,1.65-.2-.09a6.15,6.15,0,0,1,.75.07,3.67,3.67,0,0,1,2.37,1.25,2.64,2.64,0,0,1,.45,1.31,5.07,5.07,0,0,1-.12,1.31,11.31,11.31,0,0,1-2.06,4.52l0-.27a9.14,9.14,0,0,1,.8,2.92,4.89,4.89,0,0,1-.57,3c-1.05,1.67-2.21,3.15-3.33,4.66L293,336a3,3,0,0,1-1.09.82,12.35,12.35,0,0,1-1.18.54c-.78.33-1.57.6-2.35.87-1.57.52-3.1,1-4.6,1.39-3,.84-5.82,1.55-8.45,2.17h-.05l-16.9-.37-4.55-.12-1.17,0Z" style="fill:#eb996e"></path><path d="M247.14,343.56c-.16.11-.24,28.38-.24,28.38s-7.65,18.77-7.3,26.76,4.27,50.47,11.43,58.07c6.54,6.94,17.73,5.63,23.06,3.89,26.9-8.76,36.81-19.6,44.06-25.81,18.16-15.57,23.63-37.88,25.37-50.39s3.75-41.15-14-43.23S298,357.7,295.21,364.3s-11.12,23.63-11.12,23.63l-7.65-21.55-1.17-24.79S255.38,338.26,247.14,343.56Z" style="fill:#D08770"></path><path d="M292.44,306.94a2,2,0,0,1,.83.32,3.37,3.37,0,0,1,.85.64,2.11,2.11,0,0,1,.58,1.33,3.94,3.94,0,0,1-.49,1.65,17.28,17.28,0,0,1-.87,1.71,19.63,19.63,0,0,1-2.57,3.56c-1,1.18-2.25,2.07-3.16,3a19.08,19.08,0,0,0-2,2.88,3.55,3.55,0,0,1-2,1.46,1.21,1.21,0,0,1-.89,0,7.88,7.88,0,0,0,.84-.17,3.57,3.57,0,0,0,1.7-1.48,18,18,0,0,1,2-3c.95-1,2.12-1.86,3.12-3a21.37,21.37,0,0,0,2.55-3.45c.34-.57.63-1.12.89-1.65a3.61,3.61,0,0,0,.51-1.46,2.3,2.3,0,0,0-1.17-1.81A6,6,0,0,1,292.44,306.94Z" style="fill:#eb996e"></path><path d="M299.17,306.94s.39,0,1,.38a3.47,3.47,0,0,1,1.36,2.47,6.23,6.23,0,0,1-1.23,4c-.89,1.32-2.05,2.55-3,4-1.93,3-3.49,5.88-5.08,7.66a14.26,14.26,0,0,1-2,1.94,3.64,3.64,0,0,1-.87.54,30.65,30.65,0,0,0,2.61-2.72c1.49-1.8,3-4.67,4.93-7.7,1-1.53,2.18-2.79,3-4a6,6,0,0,0,1.26-3.7,3.34,3.34,0,0,0-1.12-2.34A6.81,6.81,0,0,0,299.17,306.94Z" style="fill:#eb996e"></path><path d="M302.59,316.71a14.84,14.84,0,0,1-1.41,2.34c-.93,1.41-2.24,3.34-3.71,5.45-.73,1.06-1.48,2-2,3a19.87,19.87,0,0,1-1.4,2.63,2.78,2.78,0,0,1-1.73,1.11c-.5.07-.76-.07-.75-.09s.27,0,.71-.1a2.82,2.82,0,0,0,1.47-1.13,26.8,26.8,0,0,0,1.28-2.65,31.8,31.8,0,0,1,2-3.06c1.47-2.11,2.83-4,3.83-5.36A14.72,14.72,0,0,1,302.59,316.71Z" style="fill:#eb996e"></path><path d="M286.58,308.81s.18,0,.29.23a.92.92,0,0,1-.31.95,14,14,0,0,1-2.3,1.91,7.1,7.1,0,0,1-2.75,1.27,1.15,1.15,0,0,1-1-.2c-.17-.18-.18-.32-.15-.33s.12.08.27.17a1.16,1.16,0,0,0,.77,0,9.67,9.67,0,0,0,2.53-1.34c.94-.64,1.76-1.28,2.34-1.75.28-.23.38-.44.36-.63S286.56,308.84,286.58,308.81Z" style="fill:#eb996e"></path><path d="M288.6,424.85s.09-.45.3-1.34a39.89,39.89,0,0,0,.7-4,51.57,51.57,0,0,0-.39-15.37h0l-13-37.74v-.06c-.36-7.54-.76-15.91-1.19-24.79l.19.21a90.84,90.84,0,0,0-13.84-1.17,46.83,46.83,0,0,0-7.24.6,23.67,23.67,0,0,0-3.58.88,11.23,11.23,0,0,0-3.27,1.62l.08-.17c-.12,8-.24,16.34-.36,24.95v0l0,.05c-2,5.24-4,10.62-5.71,16.16-.86,2.77-1.68,5.58-2.28,8.45a61,61,0,0,0-1,8.79c-.55,12,1.73,23.65,4.44,34.62,1.41,5.47,2.66,11,5.4,15.66a18.64,18.64,0,0,0,5.28,5.91,19,19,0,0,0,7.15,3c5.09,1,10.23.26,14.93-1.07,1.18-.34,2.35-.7,3.5-1.09s2.26-.84,3.39-1.25c2.25-.79,4.38-1.8,6.5-2.72a104.84,104.84,0,0,0,21.77-13.58,106,106,0,0,0,15.08-14.89,100.26,100.26,0,0,0,9.25-13.07c.56-.95,1.11-1.83,1.59-2.69l1.27-2.42c.4-.74.76-1.44,1.1-2.07s.57-1.24.82-1.76c.48-1,.86-1.84,1.11-2.39s.4-.81.4-.81-.11.28-.35.83-.6,1.36-1.07,2.41c-.24.53-.5,1.13-.79,1.78l-1.08,2.09-1.26,2.43c-.46.86-1,1.74-1.56,2.7a98.52,98.52,0,0,1-9.21,13.16,105.92,105.92,0,0,1-36.89,28.68c-2.13.92-4.26,1.94-6.53,2.73-1.12.42-2.24.87-3.4,1.27s-2.32.76-3.51,1.1c-4.74,1.34-10,2.16-15.15,1.1a19.56,19.56,0,0,1-7.34-3.06,19.14,19.14,0,0,1-5.43-6.06c-2.8-4.79-4.05-10.32-5.46-15.79-2.73-11-5-22.67-4.47-34.77a62.55,62.55,0,0,1,1-8.87c.61-2.9,1.43-5.71,2.29-8.49,1.75-5.56,3.7-10.94,5.74-16.2l0,.09c.13-8.6.26-17,.38-24.95v-.11l.07-.06a11.13,11.13,0,0,1,3.46-1.73,24.62,24.62,0,0,1,3.65-.9,47.93,47.93,0,0,1,7.32-.59,91.38,91.38,0,0,1,13.91,1.2l.18,0v.18c.41,8.88.79,17.25,1.14,24.79v-.05l12.82,37.79h0a50.93,50.93,0,0,1,.28,15.44,36.14,36.14,0,0,1-.77,4C288.73,424.41,288.6,424.85,288.6,424.85Z" style="fill:#263238"></path><path d="M324.89,343.19a4.58,4.58,0,0,1-.64.16c-.41.1-1,.19-1.82.39a34.07,34.07,0,0,0-6.48,2.19,31.27,31.27,0,0,0-8.36,5.62,48.23,48.23,0,0,0-7.72,9.69,112.16,112.16,0,0,0-5.83,11c-1.65,3.46-3.17,6.58-4.58,9.12a58.06,58.06,0,0,1-3.67,5.84c-.46.66-.88,1.14-1.14,1.48a3,3,0,0,1-.43.49,3.83,3.83,0,0,1,.35-.55c.23-.36.62-.86,1.06-1.54a67.84,67.84,0,0,0,3.5-5.9c1.37-2.55,2.85-5.67,4.48-9.15A107.56,107.56,0,0,1,299.42,361a47.22,47.22,0,0,1,7.84-9.76,30.86,30.86,0,0,1,8.54-5.61,31.81,31.81,0,0,1,6.59-2c.79-.16,1.42-.23,1.85-.29A2.62,2.62,0,0,1,324.89,343.19Z" style="fill:#263238"></path><path d="M252.4,342.17c.15,0,.24,5.45.22,12.17s-.15,12.16-.29,12.16-.25-5.44-.23-12.16S252.26,342.17,252.4,342.17Z" style="fill:#263238"></path><path d="M260.53,366.18a3.83,3.83,0,0,1-.18-1c-.09-.62-.19-1.53-.31-2.65-.22-2.24-.46-5.34-.61-8.77s-.18-6.55-.15-8.8c0-1.12,0-2,.07-2.66a3.93,3.93,0,0,1,.1-1,26.15,26.15,0,0,1,.2,3.64c.06,2.25.16,5.35.3,8.78s.33,6.52.46,8.77A25.58,25.58,0,0,1,260.53,366.18Z" style="fill:#263238"></path><path d="M268.1,364c-.15,0-.36-5-.48-11.26s-.11-11.26,0-11.26.36,5,.48,11.25S268.24,364,268.1,364Z" style="fill:#263238"></path><path d="M294.82,420.65c-.1,0,.15-2,.07-5.11a41.15,41.15,0,0,0-.5-5.49,41.52,41.52,0,0,0-4.24-12.77,41.8,41.8,0,0,0-2.88-4.7c-1.82-2.57-3.19-4-3.11-4.05a9,9,0,0,1,1,1c.31.32.68.71,1.08,1.21s.88,1,1.34,1.67a38.26,38.26,0,0,1,3,4.7,43.44,43.44,0,0,1,2.71,6.27,42.66,42.66,0,0,1,1.58,6.65,37.67,37.67,0,0,1,.4,5.56c0,.79,0,1.51-.07,2.14a15.36,15.36,0,0,1-.14,1.61A7.22,7.22,0,0,1,294.82,420.65Z" style="fill:#263238"></path><g style="opacity:0.30000000000000004"><path d="M295.63,413.18a51.09,51.09,0,0,0-11.16-24.32l-.25.32c4.41,11.54,7.13,24.77,2.67,36.33a12.45,12.45,0,0,0-1.09,3.79,3.6,3.6,0,0,0,1.6,3.39c1.89,1,4.14-.61,5.37-2.37C296.15,425.44,296.49,419.05,295.63,413.18Z"></path></g><path d="M246.52,462.68c0,.15-1.12.68-3.38,1.06a26.79,26.79,0,0,1-9.66-.38,46,46,0,0,1-13.28-5.29c-4.68-2.64-9.42-6.08-14.48-9.38a60.35,60.35,0,0,0-15-7.52,25.85,25.85,0,0,0-13.29-.9,13.86,13.86,0,0,0-7.58,4.51c-1.39,1.65-1.79,2.85-2,2.78s-.08-1.37,1.17-3.38a12.46,12.46,0,0,1,2.87-3.13,15,15,0,0,1,5-2.56c4.05-1.23,9.19-1.11,14.44.38a57.49,57.49,0,0,1,15.75,7.63c5.15,3.37,9.79,6.83,14.27,9.5a49.26,49.26,0,0,0,12.5,5.57,32,32,0,0,0,9.14,1.16C245.24,462.68,246.47,462.48,246.52,462.68Z" style="fill:#e0e0e0"></path><path d="M321.88,383.52a22.39,22.39,0,0,0-3.38,0c-4.58-.4-6.45-7-11-7.81-1.86-.36-3.94.35-5.62-.56-1.4-.75-2-2.38-3-3.65s-2.91-2.22-4.07-1.13l-4.29,8.93a4.08,4.08,0,0,0,3.12,3.63,10.31,10.31,0,0,0,4.74-.62,10.79,10.79,0,0,1,4.75-.64c2.09.36,3.74,1.91,5.52,3.07A16.58,16.58,0,0,0,322,386.79a2.3,2.3,0,0,0,1.36-.77C324,385.08,323,383.79,321.88,383.52Z" style="fill:#fff"></path><path d="M311.42,437.08c-.21-2.18-1.13-4.3-.89-6.48.17-1.42.83-2.79.77-4.22-.14-2.89-3.11-4.94-3.59-7.78-.29-1.73.38-3.46.64-5.19s-.1-3.84-1.67-4.61-3.52.3-4.34,1.83a10.25,10.25,0,0,0-.81,5.08c.07,5.3.14,10.61-.25,15.91-.12,1.53-.27,3.07-.42,4.6q-.62,6.15-1.22,12.31a31.26,31.26,0,0,0,10.17-6.78l-.26.09C311,441,311.59,438.86,311.42,437.08Z" style="fill:#fff"></path><path d="M272.8,430c-1.11-.56-2.44.22-3.29,1.13s-1.61,2-2.79,2.4c-1.58.49-3.18-.54-4.58-1.42s-3.24-1.65-4.61-.74c-1.58,1.05-1.48,3.69-3.11,4.64-1.28.75-2.87.07-4.34-.16a6.34,6.34,0,0,0-6.94,3.49l1,3.66.76,2.5c.53,1.27,2.39,1.51,3.65,1a9.12,9.12,0,0,0,3-2.7,6.11,6.11,0,0,1,3.3-2.32c2.8-.49,5.52,2.61,8.16,1.59,2.32-.89,2.54-4.16,4.31-5.9a9.81,9.81,0,0,1,3.2-1.77,5.87,5.87,0,0,0,2.92-2.14A2.33,2.33,0,0,0,272.8,430Z" style="fill:#fff"></path><path d="M256.68,406.93c-1.09-.72-.34-2.61.9-3s2.57.12,3.83.45,2.81.39,3.65-.6c.62-.74.7-1.92,1.53-2.41,1.24-.75,2.75.72,4.18.54,2.15-.27,2.47-3.78,4.57-4.34,1.63-.43,3.33,1.24,4.92.67,2-.74,3.18-4.82,5.35-4.76,0,0,2,5.33,2.16,7.28-1.25-.35-2.22.47-2.87,1.61s-1.16,2.47-2.3,3.09c-1.78,1-3.93-.33-5.93-.2-4,.27-6.4,6-10.41,5.53-1.74-.22-3.06-1.58-4.44-2.65s-3.35-1.88-4.81-.92" style="fill:#fff"></path><path d="M242.54,380.8c.63,1.87,3.17,2.28,5.07,1.75s3.68-1.67,5.66-1.69c2.22,0,4.39,1.34,6.55.85,1.75-.4,3.11-2,4.9-2.18a17.79,17.79,0,0,1,3.23.38c1.09.08,2.39-.35,2.66-1.41.34-1.36-1.34-2.45-2.74-2.38s-2.74.77-4.15.75c-3.28,0-5.45-3.73-8.67-4.32-1.61-.29-3.24.25-4.88.31s-3.56-.6-4-2.19" style="fill:#fff"></path><path d="M337.6,364.74c-2.88-.3-5.75.59-8.64.86a10.07,10.07,0,0,1-6.42-1.25,1.28,1.28,0,0,0-2,1.34,4.12,4.12,0,0,0,1.31,2.07,9.85,9.85,0,0,0,5.1,1.72,11,11,0,0,1,5.17,1.56c1.53,1.11,2.34,2.94,3.3,4.57s4.67,5,9.18,3.45l1.12-8.5C344.06,367.75,340.86,365.08,337.6,364.74Z" style="fill:#fff"></path><path d="M297.79,350.71c-2.5-.87-5.34-1.47-7.71-.3-1.6.79-2.89,2.33-4.67,2.49a19.31,19.31,0,0,1-2.71-.28,2.21,2.21,0,0,0-2.27,1.16l.32.5-.15.23a6.12,6.12,0,0,0,8.4,3.08c1.65-.93,3.15-2.74,5-2.33a11.49,11.49,0,0,1,2.56,1.46,5.35,5.35,0,0,0,5.07-.45,16,16,0,0,0,3.82-3.67C302.8,352.73,300.29,351.58,297.79,350.71Z" style="fill:#fff"></path><path d="M236.88,401.86a4.14,4.14,0,0,0-5.13-2.32,12.56,12.56,0,0,1-2.79,1.18c-2.93.3-4.14-4.39-7.06-4.8-2.13-.31-3.93,1.86-6.08,1.86-2,0-3.43-1.75-5.23-2.5a5.59,5.59,0,0,0-7.18,3.36l-.38,8.77c-.13-2.53,3.08-4.51,5-4s3.48,1.94,5.1,3.13,3.67,2.19,5.58,1.55c1.6-.52,2.68-2.07,4.25-2.67,3.73-1.43,7.84,3,11.58,1.6A4.14,4.14,0,0,0,236.88,401.86Z" style="fill:#fff"></path><path d="M236.42,447.48c-2.24,0-4.39,1.41-6.59,1-3.62-.65-4.92-5.47-8.25-7-2.05-.95-4.43-.49-6.68-.42s-5.22-.24-6.11-2.32l3.73,9c1.45-1.54,4.08-.65,5.66.75s2.95,3.28,5,3.73c2.25.49,4.48-.93,6.77-1a11.58,11.58,0,0,1,4.88,1.45,10.71,10.71,0,0,0,4.89,1.34c1.71-.09,3.49-1.26,3.67-3C241.38,449.3,239.1,447.44,236.42,447.48Z" style="fill:#fff"></path><path d="M198.93,390.78a4,4,0,0,0-2.47-1.07,45.43,45.43,0,0,1-4.52-.6,4.84,4.84,0,0,1-3.46-2.69c-.44-1.15-.22-2.5-.78-3.59-.88-1.73-3.19-2-5.13-2.11L178,389.39c1.46-.87,3.87-.19,5.06,1s2,2.8,3.18,4,3.26,1.83,4.61.79,1.59-3.11,3.14-3.34a3.69,3.69,0,0,1,2.42,1c.75.49,1.75.9,2.49.4A1.69,1.69,0,0,0,198.93,390.78Z" style="fill:#fff"></path><path d="M203.11,430.85a9.68,9.68,0,0,0-2.52.83,3.23,3.23,0,0,1-2.58.12c-1.46-.73-1.48-2.93-2.78-3.93-1.56-1.2-3.95,0-5.76-.76-1.43-.62-2.06-2.25-2.64-3.7a40.35,40.35,0,0,0-2.43-5.1,5.94,5.94,0,0,0-2.34-2.63,2.25,2.25,0,0,0-3.06.89,2.71,2.71,0,0,0,.82,2.67,12.78,12.78,0,0,1,2,2.18c1,1.86.05,4.18.29,6.29a6.79,6.79,0,0,0,4.9,5.4,21.56,21.56,0,0,1,4.09,1.16c1.47.77,2.42,2.23,3.65,3.35s3.46,2,4.86,1.09a46.12,46.12,0,0,0,5.57-6.81C205,431,204,430.78,203.11,430.85Z" style="fill:#fff"></path></g></svg>